<svg xmlns="http://www.w3.org/2000/svg" xmlns:xlink="http://www.w3.org/1999/xlink" preserveAspectRatio="xMidYMid" width="581.625" height="304" viewBox="0 0 581.625 304">
  <defs>
    <style>
      .cls-1 {
        fill: #fff;
        fill-rule: evenodd;
      }
    </style>
  </defs>
  <path d="M547.656,109.798 L535.369,114.972 L532.296,111.254 L543.454,106.079 L547.656,109.798 ZM530.842,119.338 L521.301,134.860 L505.942,142.782 L501.575,137.608 L516.937,129.039 L522.111,114.002 L530.842,119.338 ZM528.579,152.322 L523.565,156.041 L519.038,141.974 L522.111,142.782 L528.579,152.322 ZM536.824,213.442 L505.942,206.974 L504.970,195.979 L533.913,203.257 L536.824,213.442 ZM580.804,273.267 L569.971,286.526 L564.797,285.879 L563.341,278.281 L576.762,263.726 L571.265,255.482 L574.336,250.955 L579.510,258.555 L580.804,273.267 ZM497.695,194.363 L491.874,204.548 L486.862,203.901 L491.874,192.259 L497.695,194.363 ZM486.862,192.259 L480.719,203.901 L469.723,200.993 L470.531,192.259 L480.071,182.721 L486.862,192.259 ZM581.613,78.753 L561.077,81.018 L561.724,88.293 L549.435,104.462 L547.012,89.748 L553.802,81.018 L530.195,83.281 L516.290,90.558 L514.511,96.540 L524.374,94.276 L525.021,108.181 L518.391,108.828 L516.290,115.620 L502.869,124.512 L504.970,130.333 L496.401,136.154 L493.330,125.968 L487.509,129.039 L488.963,149.574 L463.902,164.126 L470.531,173.827 L459.536,180.295 L455.008,171.725 L452.745,172.372 L455.008,181.911 L463.902,187.732 L460.829,190.805 L455.008,189.189 L456.465,193.716 L461.639,194.363 L464.549,203.257 L477.968,208.268 L478.615,212.795 L463.255,210.047 L441.750,186.438 L450.644,187.088 L438.032,159.761 L438.032,152.322 L434.475,152.322 L432.856,159.114 L420.569,168.655 L420.569,177.547 L410.868,180.295 L404.885,163.479 L400.680,162.185 L401.327,152.322 L365.918,145.855 L371.737,155.394 L377.720,153.293 L384.351,159.761 L377.720,168.006 L362.198,173.827 L346.029,142.782 L341.664,142.782 L341.017,148.766 L351.850,170.756 L360.097,176.900 L372.709,175.930 L349.909,209.078 L352.659,211.986 L353.629,222.981 L346.838,228.155 L346.029,236.402 L328.406,257.745 L314.338,256.936 L301.889,222.981 L305.769,217.807 L305.769,209.078 L295.258,196.626 L299.623,193.716 L289.437,187.088 L268.903,186.438 L256.937,175.930 L256.292,153.293 L282.809,130.333 L297.522,129.039 L301.242,133.244 L300.432,136.962 L312.237,140.681 L318.056,135.507 L322.585,139.226 L338.591,140.034 L341.664,136.962 L341.664,128.070 L335.034,136.962 L326.303,125.159 L327.759,136.962 L319.512,130.979 L318.056,122.249 L308.194,110.769 L306.416,112.709 L314.338,123.704 L309.164,130.979 L307.063,122.249 L298.169,115.620 L293.157,120.146 L290.084,118.530 L273.268,134.213 L267.287,117.721 L279.089,118.530 L281.190,113.355 L276.826,108.828 L284.263,103.007 L288.630,102.361 L296.875,94.922 L294.611,89.102 L298.978,87.000 L301.889,91.366 L316.764,90.558 L317.411,86.353 L333.580,80.210 L330.669,76.652 L320.481,80.210 L317.411,73.741 L324.848,67.920 L320.481,63.393 L310.943,75.844 L314.338,78.753 L313.691,86.353 L304.152,89.102 L301.889,83.281 L291.701,84.574 L292.348,75.844 L309.164,53.206 L327.759,48.679 L355.568,55.146 L350.556,62.746 L339.561,61.775 L346.838,69.214 L368.182,55.146 L382.247,55.146 L395.346,55.956 L392.596,50.782 L402.783,41.888 L421.216,46.416 L423.964,40.595 L457.272,27.982 L480.071,32.995 L463.255,42.697 L515.480,48.032 L524.374,39.140 L528.579,47.062 L553.802,49.325 L561.077,53.206 L573.917,60.273 L581.613,78.753 ZM544.908,243.839 L532.296,267.284 L522.111,266.477 L502.222,251.764 L501.575,255.482 L477.161,260.494 L480.071,250.308 L474.897,248.207 L474.897,235.595 L506.749,215.059 L521.301,224.597 L522.111,216.513 L526.475,215.868 L544.908,243.839 ZM285.557,94.922 L284.910,101.067 L274.562,101.067 L277.795,94.922 L271.005,87.647 L276.016,82.473 L279.089,89.748 L285.557,94.922 ZM265.021,67.112 L251.763,76.652 L243.840,64.848 L258.555,61.130 L265.021,67.112 ZM306.738,130.818 L302.211,129.201 L304.959,124.836 L306.738,130.818 ZM262.111,13.269 L253.381,20.707 L251.763,39.140 L238.504,59.675 L217.323,66.141 L212.149,78.753 L202.610,78.107 L191.615,61.130 L187.248,38.331 L178.357,31.702 L168.653,34.774 L163.642,27.982 L179.649,8.096 L245.944,0.011 L262.111,13.269 ZM272.621,97.348 L268.094,102.361 L263.082,97.833 L267.287,90.558 L272.621,97.348 ZM370.445,219.586 L363.815,240.767 L354.276,234.138 L357.024,224.597 L366.563,217.162 L370.445,219.586 ZM161.216,154.587 L155.395,151.676 L155.395,146.503 L161.216,154.587 ZM182.721,168.655 L179.004,170.109 L160.571,163.479 L161.863,159.761 L182.721,168.655 ZM156.851,157.658 L155.395,162.185 L144.077,159.761 L145.209,154.262 L156.851,157.658 ZM226.055,209.078 L220.234,215.868 L218.617,229.125 L173.830,276.987 C175.446,279.735 175.931,282.968 175.284,286.526 L169.463,292.347 L174.637,298.815 L170.110,303.989 L158.468,290.893 L158.468,269.547 L165.745,227.510 L156.042,222.981 L145.856,197.436 L150.221,190.805 L150.221,183.368 L140.035,183.368 L135.508,174.476 L129.687,175.121 L108.991,163.479 L102.360,155.394 L94.276,155.394 L72.126,125.968 L73.095,111.254 L65.495,100.258 L60.484,101.714 L56.764,94.276 L61.131,94.922 L50.136,83.281 L35.583,81.018 L0.012,98.642 L12.623,86.353 L3.729,79.562 L0.012,54.500 L14.724,47.062 L85.384,54.500 L72.126,44.961 L75.196,32.348 L145.856,5.346 L173.183,6.639 L148.929,33.965 L181.105,60.320 L170.919,71.316 L151.677,67.920 L154.103,55.956 L147.310,55.956 L144.402,64.201 L146.503,71.316 L131.951,70.023 L124.351,80.210 L129.687,84.574 L140.035,87.647 L149.576,98.642 L153.131,87.647 L151.030,85.383 L151.030,74.388 L173.830,78.107 L192.262,100.258 L166.390,114.972 L166.390,122.896 L161.863,122.249 L157.498,126.613 L158.468,132.435 L147.957,141.328 L151.030,151.029 L145.856,151.029 L141.491,144.400 L125.322,144.400 L119.177,155.394 L125.322,161.215 L128.071,161.215 L133.891,157.658 L137.772,159.761 L136.317,168.006 L142.136,168.655 L143.593,177.547 L154.103,177.547 L164.289,173.182 L171.564,175.930 L185.310,176.415 L186.279,185.469 L197.436,185.469 L198.728,195.979 L206.328,195.979 L226.055,209.078 ZM390.494,120.631 L389.685,114.649 L385.967,115.134 L386.452,121.117 L390.494,120.631 ZM377.236,130.171 L372.384,120.631 L376.426,115.134 L374.325,112.870 L370.120,116.104 L371.092,131.789 L377.236,130.171 ZM354.436,120.308 L349.102,111.738 L344.088,110.769 L344.413,114.649 L340.046,115.134 L336.328,110.283 L329.698,118.530 L330.992,123.704 L336.813,119.176 L341.340,119.176 L354.436,120.308 ZM527.500,278.132 L531.244,278.132 L531.244,271.394 L523.758,271.394 L527.500,278.132 Z" class="cls-1"/>
</svg>
