<svg xmlns="http://www.w3.org/2000/svg" xmlns:xlink="http://www.w3.org/1999/xlink" preserveAspectRatio="xMidYMid" width="41.844" height="41.844" viewBox="0 0 41.844 41.844">
  <defs>
    <style>
      .cls-1 {
        fill: #363641;
        opacity: 0.4;
        fill-rule: evenodd;
      }
    </style>
  </defs>
  <path d="M33.748,0.009 L8.081,0.009 C3.622,0.009 -0.005,3.636 -0.005,8.094 L-0.005,16.635 L-0.005,33.764 C-0.005,38.223 3.622,41.849 8.081,41.849 L33.748,41.849 C38.207,41.849 41.835,38.223 41.835,33.764 L41.835,16.635 L41.835,8.094 C41.835,3.636 38.207,0.009 33.748,0.009 ZM36.069,4.832 L36.994,4.828 L36.994,5.750 L36.994,11.920 L29.924,11.943 L29.900,4.851 L36.069,4.832 ZM14.945,16.635 C16.283,14.780 18.457,13.565 20.915,13.565 C23.372,13.565 25.547,14.780 26.885,16.635 C27.759,17.846 28.281,19.326 28.281,20.929 C28.281,24.989 24.975,28.292 20.915,28.292 C16.855,28.292 13.551,24.989 13.551,20.929 C13.551,19.326 14.073,17.846 14.945,16.635 ZM37.758,33.764 C37.758,35.976 35.961,37.772 33.748,37.772 L8.081,37.772 C5.869,37.772 4.072,35.976 4.072,33.764 L4.072,16.635 L10.318,16.635 C9.777,17.962 9.475,19.411 9.475,20.929 C9.475,27.237 14.606,32.370 20.915,32.370 C27.223,32.370 32.355,27.237 32.355,20.929 C32.355,19.411 32.050,17.962 31.512,16.635 L37.758,16.635 L37.758,33.764 Z" class="cls-1"/>
</svg>
