<svg xmlns="http://www.w3.org/2000/svg" xmlns:xlink="http://www.w3.org/1999/xlink" preserveAspectRatio="xMidYMid" width="47.719" height="46.688" viewBox="0 0 47.719 46.688">
  <defs>
    <style>
      .cls-1 {
        fill: #363641;
        opacity: 0.4;
        fill-rule: evenodd;
      }
    </style>
  </defs>
  <path d="M38.999,46.673 L8.704,46.673 C3.888,46.673 -0.015,42.767 -0.015,37.952 L-0.015,30.945 C-0.015,26.130 3.888,22.222 8.704,22.222 L38.999,22.222 C43.813,22.222 47.717,26.130 47.717,30.945 L47.717,37.952 C47.717,42.767 43.813,46.673 38.999,46.673 ZM15.069,25.298 L6.717,25.298 L6.717,27.679 L9.532,27.679 L9.532,41.673 L12.253,41.673 L12.253,27.679 L15.069,27.679 L15.069,25.298 ZM23.025,29.592 L20.611,29.592 L20.611,38.768 C20.384,39.032 20.136,39.248 19.863,39.418 C19.591,39.587 19.364,39.671 19.190,39.671 C18.963,39.671 18.797,39.610 18.693,39.478 C18.596,39.352 18.543,39.146 18.543,38.860 L18.543,29.592 L16.129,29.592 L16.129,39.692 C16.129,40.415 16.273,40.950 16.553,41.311 C16.838,41.673 17.255,41.851 17.814,41.851 C18.269,41.851 18.735,41.727 19.217,41.465 C19.701,41.212 20.163,40.839 20.611,40.349 L20.611,41.673 L23.025,41.673 L23.025,29.592 ZM31.787,32.474 C31.787,31.485 31.586,30.731 31.182,30.216 C30.779,29.701 30.196,29.446 29.432,29.446 C29.057,29.446 28.686,29.540 28.316,29.734 C27.956,29.924 27.609,30.206 27.282,30.572 L27.282,25.298 L24.841,25.298 L24.841,41.673 L27.282,41.673 L27.282,40.747 C27.598,41.121 27.946,41.392 28.314,41.566 C28.682,41.743 29.103,41.828 29.578,41.828 C30.292,41.828 30.843,41.603 31.219,41.146 C31.598,40.688 31.787,40.032 31.787,39.179 L31.787,32.474 ZM40.161,37.649 L37.677,37.649 L37.677,38.199 C37.677,38.910 37.593,39.368 37.436,39.578 C37.276,39.786 36.998,39.890 36.596,39.890 C36.211,39.890 35.938,39.770 35.778,39.523 C35.619,39.276 35.542,38.835 35.542,38.199 L35.542,35.923 L40.161,35.923 L40.161,32.842 C40.161,31.697 39.864,30.820 39.271,30.208 C38.677,29.597 37.828,29.292 36.722,29.292 C35.640,29.292 34.763,29.621 34.079,30.280 C33.395,30.939 33.052,31.798 33.052,32.842 L33.052,38.269 C33.052,39.434 33.367,40.349 33.985,41.008 C34.605,41.673 35.458,42.003 36.541,42.003 C37.744,42.003 38.649,41.693 39.250,41.070 C39.861,40.440 40.161,39.508 40.161,38.269 L40.161,37.649 ZM35.542,32.823 C35.542,32.315 35.622,31.952 35.792,31.740 C35.959,31.515 36.233,31.406 36.619,31.406 C36.987,31.406 37.258,31.515 37.422,31.740 C37.590,31.952 37.677,32.315 37.677,32.823 L37.677,34.044 L35.542,34.044 L35.542,32.823 ZM28.438,39.937 C28.233,39.937 28.042,39.890 27.854,39.807 C27.669,39.722 27.477,39.572 27.282,39.377 L27.282,31.850 C27.447,31.686 27.612,31.559 27.780,31.481 C27.948,31.402 28.120,31.365 28.292,31.365 C28.617,31.365 28.868,31.470 29.045,31.678 C29.215,31.889 29.298,32.197 29.298,32.607 L29.298,38.847 C29.298,39.233 29.227,39.508 29.090,39.678 C28.951,39.851 28.734,39.937 28.438,39.937 ZM34.650,16.553 C34.152,17.095 33.630,17.511 33.084,17.795 C32.544,18.075 32.019,18.220 31.509,18.220 C30.878,18.220 30.407,18.018 30.087,17.620 C29.770,17.227 29.611,16.634 29.611,15.841 L29.611,4.718 L32.325,4.718 L32.325,14.922 C32.325,15.235 32.388,15.462 32.501,15.602 C32.611,15.746 32.798,15.815 33.053,15.815 C33.252,15.815 33.505,15.722 33.813,15.536 C34.116,15.347 34.397,15.110 34.650,14.821 L34.650,4.718 L37.369,4.718 L37.369,18.026 L34.650,18.026 L34.650,16.553 ZM23.440,18.362 C22.251,18.362 21.298,18.026 20.584,17.358 C19.872,16.687 19.515,15.790 19.515,14.659 L19.515,7.760 C19.515,6.726 19.881,5.908 20.611,5.297 C21.342,4.687 22.328,4.382 23.562,4.382 C24.689,4.382 25.610,4.705 26.331,5.346 C27.046,5.989 27.405,6.824 27.405,7.837 L27.405,14.712 C27.405,15.851 27.053,16.739 26.352,17.390 C25.645,18.038 24.675,18.362 23.440,18.362 ZM24.635,7.659 C24.635,7.370 24.524,7.136 24.304,6.954 C24.081,6.774 23.791,6.687 23.431,6.687 C23.099,6.687 22.831,6.774 22.620,6.954 C22.416,7.136 22.313,7.370 22.313,7.659 L22.313,14.910 C22.313,15.275 22.409,15.555 22.602,15.756 C22.794,15.959 23.072,16.056 23.431,16.056 C23.799,16.056 24.092,15.956 24.308,15.752 C24.526,15.547 24.635,15.266 24.635,14.910 L24.635,7.659 ZM15.731,18.026 L12.671,18.026 L12.671,10.879 L9.026,-0.015 L12.108,-0.015 L14.096,7.196 L14.289,7.196 L16.184,-0.015 L19.293,-0.015 L15.731,10.542 L15.731,18.026 Z" class="cls-1"/>
</svg>
