<svg xmlns="http://www.w3.org/2000/svg" xmlns:xlink="http://www.w3.org/1999/xlink" preserveAspectRatio="xMidYMid" width="49.718" height="40.406" viewBox="0 0 49.718 40.406">
  <defs>
    <style>
      .cls-1 {
        fill: #363641;
        opacity: 0.4;
        fill-rule: evenodd;
      }
    </style>
  </defs>
  <path d="M49.709,4.788 C47.881,5.599 45.915,6.147 43.853,6.393 C45.960,5.131 47.577,3.135 48.336,0.754 C46.365,1.922 44.185,2.770 41.859,3.226 C40.004,1.245 37.352,0.007 34.418,0.007 C28.790,0.007 24.225,4.573 24.225,10.202 C24.225,11.002 24.312,11.778 24.488,12.523 C16.015,12.097 8.504,8.043 3.472,1.870 C2.595,3.381 2.092,5.131 2.092,7.000 C2.092,10.534 3.892,13.656 6.628,15.486 C4.958,15.435 3.384,14.972 2.008,14.213 L2.008,14.338 C2.008,19.280 5.522,23.401 10.189,24.335 C9.333,24.575 8.433,24.694 7.501,24.694 C6.845,24.694 6.204,24.633 5.584,24.513 C6.880,28.562 10.645,31.512 15.107,31.590 C11.618,34.326 7.221,35.956 2.445,35.956 C1.622,35.956 0.809,35.910 0.012,35.815 C4.525,38.705 9.884,40.394 15.641,40.394 C34.398,40.394 44.650,24.861 44.650,11.386 C44.650,10.942 44.641,10.501 44.623,10.066 C46.615,8.628 48.346,6.832 49.709,4.788 " class="cls-1"/>
</svg>
