<svg xmlns="http://www.w3.org/2000/svg" xmlns:xlink="http://www.w3.org/1999/xlink" preserveAspectRatio="xMidYMid" width="161" height="198.031" viewBox="0 0 161 198.031">
  <defs>
    <style>
      .cls-1 {
        fill: #36b1bd;
        fill-rule: evenodd;
      }
    </style>
  </defs>
  <path d="M154.922,40.685 L154.922,3.958 L161.001,3.958 L161.001,40.685 L154.922,40.685 ZM154.946,48.817 C155.483,48.057 156.243,47.450 157.415,47.450 C159.140,47.450 160.809,48.817 160.809,51.248 C160.809,53.679 159.153,55.047 157.415,55.047 C156.215,55.047 155.456,54.439 154.946,53.762 L154.946,57.105 L153.277,57.105 L153.277,47.602 L154.946,47.602 L154.946,48.817 ZM157.029,53.596 C158.174,53.596 159.113,52.699 159.113,51.248 C159.113,49.812 158.160,48.900 157.029,48.900 C155.899,48.900 154.904,49.826 154.904,51.248 C154.904,52.671 155.899,53.596 157.029,53.596 ZM114.894,141.382 L120.831,150.358 C121.604,151.528 121.537,153.070 120.659,154.165 C119.782,155.260 118.302,155.666 116.992,155.163 C116.953,155.147 113.420,153.800 108.385,152.671 L83.156,196.424 C82.580,197.423 81.516,198.039 80.365,198.039 C79.214,198.039 78.150,197.423 77.574,196.424 L58.792,163.850 C58.506,163.356 58.359,162.798 58.359,162.235 C58.359,161.955 58.396,161.673 58.470,161.396 C58.693,160.569 59.236,159.865 59.979,159.438 L78.960,148.552 C87.738,143.529 99.250,144.319 107.362,145.868 C108.494,146.084 109.569,146.317 110.585,146.555 C109.658,145.153 108.410,143.267 108.410,143.267 C105.564,138.919 103.858,136.235 103.203,135.078 C103.203,135.078 98.927,127.632 98.937,127.648 C98.104,126.217 96.022,122.140 92.756,115.538 C92.741,115.541 92.728,115.544 92.713,115.545 C89.856,124.886 84.569,136.348 75.100,141.831 L56.134,152.793 C54.593,153.683 52.624,153.154 51.734,151.610 L43.920,138.059 C43.030,136.517 43.558,134.543 45.100,133.652 C54.762,128.063 72.368,117.890 81.724,112.534 C84.005,111.230 86.611,110.241 89.466,109.595 C91.012,109.245 92.653,108.992 94.343,108.840 C101.172,108.230 108.099,109.303 113.331,110.529 C110.356,106.017 106.953,100.800 105.967,99.060 C105.967,99.060 101.693,91.614 101.701,91.630 C100.691,89.893 97.896,84.320 95.498,79.474 C93.923,84.619 91.364,91.155 87.401,96.755 L87.401,96.756 C86.439,98.114 85.417,99.381 84.364,100.522 C82.351,102.702 80.165,104.483 77.865,105.814 L41.275,127.011 C40.535,127.441 39.655,127.557 38.828,127.336 C38.002,127.114 37.298,126.574 36.870,125.832 L28.927,112.056 C28.498,111.314 28.382,110.431 28.605,109.603 C28.829,108.774 29.371,108.069 30.114,107.644 L49.178,96.710 C58.689,91.267 71.257,92.464 80.787,94.709 C76.713,88.532 74.232,84.666 73.422,83.236 C73.422,83.236 69.145,75.789 69.155,75.805 C68.477,74.642 67.024,71.825 64.712,67.195 C64.712,67.195 63.705,65.153 62.953,63.627 C62.641,64.646 62.294,65.715 61.902,66.827 C59.158,74.602 54.052,84.931 45.318,89.990 L26.269,100.999 C24.728,101.889 22.759,101.359 21.869,99.816 L7.846,75.496 C7.269,74.496 7.270,73.264 7.848,72.265 L12.552,64.134 C13.128,63.137 14.190,62.525 15.341,62.525 L56.545,62.525 C58.120,57.565 58.740,53.795 58.748,53.752 C58.971,52.366 60.067,51.290 61.453,51.082 C62.839,50.873 64.204,51.591 64.825,52.849 L69.598,62.525 L80.365,62.525 L145.159,62.525 C146.308,62.525 147.371,63.137 147.947,64.134 L152.767,72.465 C153.345,73.464 153.345,74.696 152.769,75.696 L114.894,141.382 ZM82.158,154.156 C82.159,154.156 82.158,154.156 82.159,154.156 C82.159,154.156 70.064,161.091 65.991,163.427 C68.253,167.351 76.728,182.049 80.365,188.357 C84.383,181.389 98.155,157.504 101.610,151.512 C95.250,150.762 87.810,150.922 82.158,154.156 ZM84.924,118.138 C76.415,123.009 61.083,131.864 51.114,137.628 C52.617,140.234 54.202,142.982 55.705,145.589 C60.973,142.545 71.873,136.244 71.873,136.244 C78.332,132.504 82.507,124.698 85.027,118.084 C84.993,118.103 84.957,118.120 84.924,118.138 ZM52.377,102.314 C52.377,102.314 40.205,109.293 36.126,111.634 C37.655,114.284 39.314,117.162 40.839,119.808 C49.373,114.864 74.638,100.227 74.638,100.227 C74.706,100.187 74.772,100.138 74.839,100.099 C67.821,98.924 58.907,98.576 52.377,102.314 ZM17.198,68.978 C16.297,70.537 15.264,72.323 14.360,73.884 C15.784,76.355 23.505,89.745 25.840,93.795 C31.126,90.739 42.091,84.402 42.091,84.402 C47.703,81.153 51.580,74.831 54.131,68.978 C46.973,68.978 20.217,68.978 17.198,68.978 ZM80.365,68.978 C80.365,68.978 76.477,68.978 72.833,68.978 C73.919,71.104 74.462,72.107 74.733,72.572 C74.733,72.572 79.010,80.019 79.019,80.035 C79.650,81.149 81.630,84.245 84.682,88.897 C89.578,79.867 91.276,69.694 91.294,69.577 C91.329,69.363 91.419,69.175 91.493,68.978 C88.327,68.978 80.365,68.978 80.365,68.978 ZM99.760,115.150 C102.211,120.070 103.869,123.305 104.515,124.415 C104.515,124.415 108.791,131.862 108.800,131.876 C109.059,132.337 109.651,133.309 110.944,135.324 C112.796,132.113 118.692,121.887 120.201,119.270 C120.053,119.237 119.904,119.201 119.760,119.145 C119.648,119.102 110.016,115.458 99.760,115.150 ZM143.301,68.978 C140.751,68.978 115.345,68.978 97.522,68.978 C100.380,74.834 105.898,86.022 107.280,88.397 C107.280,88.397 111.556,95.843 111.565,95.860 C112.898,98.211 119.656,108.434 123.300,113.896 C132.195,98.469 144.972,76.309 146.255,74.085 C145.331,72.489 144.221,70.571 143.301,68.978 ZM122.366,86.140 C122.790,86.620 123.232,86.886 123.862,86.886 C124.374,86.886 124.737,86.593 124.737,86.123 C124.737,85.609 124.303,85.325 123.525,85.325 L122.959,85.325 L122.746,84.457 L124.224,82.969 L121.791,82.969 L121.791,81.800 L125.975,81.800 L125.975,82.828 L124.410,84.325 C125.259,84.466 126.073,84.909 126.073,86.070 C126.073,87.248 125.224,88.108 123.844,88.108 C122.728,88.108 121.959,87.665 121.428,87.035 L122.366,86.140 ZM125.042,78.709 L125.042,76.459 L124.475,76.459 L124.475,75.307 L125.042,75.307 L125.042,74.093 L126.386,74.093 L126.386,75.307 L127.502,75.307 L127.502,76.459 L126.386,76.459 L126.386,78.488 C126.386,78.798 126.518,78.948 126.820,78.948 C127.067,78.948 127.289,78.887 127.483,78.780 L127.483,79.861 C127.200,80.029 126.873,80.136 126.422,80.136 C125.599,80.136 125.042,79.808 125.042,78.709 ZM127.984,84.785 C127.507,84.493 127.197,84.094 127.197,83.421 C127.197,82.465 128.065,81.711 129.374,81.711 C130.684,81.711 131.550,82.465 131.550,83.421 C131.550,84.094 131.241,84.493 130.763,84.785 C131.392,85.113 131.763,85.512 131.763,86.256 C131.763,87.417 130.745,88.090 129.374,88.090 C128.002,88.090 126.985,87.382 126.985,86.291 C126.985,85.530 127.330,85.087 127.984,84.785 ZM129.374,82.836 C128.816,82.836 128.489,83.173 128.489,83.562 C128.489,84.006 128.834,84.333 129.374,84.333 C129.914,84.333 130.259,84.014 130.259,83.572 C130.259,83.181 129.932,82.836 129.374,82.836 ZM129.374,86.965 C130.047,86.965 130.444,86.628 130.444,86.185 C130.444,85.698 129.993,85.415 129.374,85.415 C128.754,85.415 128.303,85.698 128.303,86.185 C128.303,86.628 128.702,86.965 129.374,86.965 ZM130.156,80.144 C129.492,80.144 128.749,79.923 128.121,79.427 L128.695,78.541 C129.209,78.913 129.749,79.108 130.191,79.108 C130.580,79.108 130.758,78.966 130.758,78.754 L130.758,78.735 C130.758,78.443 130.297,78.346 129.775,78.187 C129.111,77.992 128.360,77.681 128.360,76.760 L128.360,76.742 C128.360,75.776 129.138,75.236 130.094,75.236 C130.695,75.236 131.351,75.440 131.863,75.785 L131.351,76.715 C130.882,76.441 130.412,76.273 130.068,76.273 C129.740,76.273 129.573,76.414 129.573,76.600 L129.573,76.618 C129.573,76.884 130.023,77.008 130.536,77.185 C131.199,77.407 131.969,77.725 131.969,78.594 L131.969,78.612 C131.969,79.665 131.182,80.144 130.156,80.144 ZM122.067,79.002 C122.519,79.002 122.829,78.807 123.156,78.496 L123.944,79.294 C123.483,79.798 122.953,80.162 122.006,80.162 C120.581,80.162 119.538,79.063 119.538,77.708 L119.538,77.691 C119.538,76.335 120.572,75.219 122.023,75.219 C122.917,75.219 123.475,75.519 123.917,76.016 L123.095,76.902 C122.794,76.583 122.492,76.379 122.015,76.379 C121.343,76.379 120.864,76.972 120.864,77.673 L120.864,77.691 C120.864,78.417 121.334,79.002 122.067,79.002 ZM117.183,78.665 L114.564,78.665 L113.997,80.056 L112.608,80.056 L115.263,73.809 L116.519,73.809 L119.174,80.056 L117.749,80.056 L117.183,78.665 ZM115.873,75.448 L115.050,77.460 L116.697,77.460 L115.873,75.448 ZM116.526,83.740 C116.526,83.217 116.181,82.933 115.694,82.933 C115.216,82.933 114.888,83.199 114.428,83.766 L113.473,82.996 C114.084,82.162 114.676,81.711 115.783,81.711 C117.101,81.711 117.915,82.473 117.915,83.633 C117.915,84.670 117.384,85.193 116.287,86.043 L115.278,86.823 L117.977,86.823 L117.977,88.001 L113.393,88.001 L113.393,86.920 L115.455,85.228 C116.224,84.590 116.526,84.254 116.526,83.740 ZM120.498,84.670 L119.065,84.670 L119.065,83.252 L120.498,83.252 L120.498,84.670 ZM120.498,88.001 L119.065,88.001 L119.065,86.584 L120.498,86.584 L120.498,88.001 ZM149.428,54.894 L149.428,47.602 L151.097,47.602 L151.097,54.894 L149.428,54.894 ZM149.359,44.894 L151.153,44.894 L151.153,46.483 L149.359,46.483 L149.359,44.894 ZM140.779,54.894 L140.779,44.811 L142.449,44.811 L142.449,48.735 C142.917,48.044 143.593,47.450 144.724,47.450 C146.366,47.450 147.318,48.555 147.318,50.254 L147.318,54.894 L145.649,54.894 L145.649,50.751 C145.649,49.619 145.083,48.969 144.090,48.969 C143.124,48.969 142.449,49.646 142.449,50.779 L142.449,54.894 L140.779,54.894 ZM136.819,50.585 C137.882,50.917 139.082,51.400 139.082,52.713 L139.082,52.740 C139.082,54.273 137.896,55.033 136.378,55.033 C135.344,55.033 134.200,54.660 133.289,53.942 L134.033,52.809 C134.819,53.403 135.675,53.707 136.419,53.707 C137.136,53.707 137.551,53.403 137.551,52.920 L137.551,52.892 C137.551,52.325 136.779,52.132 135.923,51.870 C134.847,51.566 133.647,51.124 133.647,49.729 L133.647,49.701 C133.647,48.320 134.791,47.478 136.240,47.478 C137.150,47.478 138.144,47.795 138.917,48.306 L138.254,49.494 C137.551,49.066 136.806,48.803 136.199,48.803 C135.551,48.803 135.178,49.107 135.178,49.535 L135.178,49.563 C135.178,50.088 135.965,50.309 136.819,50.585 ZM143.315,37.416 C141.506,39.579 138.743,41.239 134.723,41.239 C129.698,41.239 125.276,38.371 125.276,33.038 L125.276,32.938 C125.276,27.202 129.849,24.384 136.029,24.384 C139.245,24.384 141.306,24.838 143.366,25.492 L143.366,24.838 C143.366,21.165 141.054,19.152 136.833,19.152 C133.869,19.152 131.657,19.807 129.246,20.813 L127.587,15.932 C130.503,14.625 133.366,13.718 137.687,13.718 C145.525,13.718 149.345,17.844 149.345,24.938 L149.345,40.685 L143.315,40.685 L143.315,37.416 ZM143.465,29.416 C141.908,28.812 139.747,28.360 137.385,28.360 C133.567,28.360 131.306,29.919 131.306,32.636 L131.306,32.737 C131.306,35.252 133.567,36.661 136.431,36.661 C140.451,36.661 143.465,34.397 143.465,31.077 L143.465,29.416 ZM126.389,47.574 L127.810,47.574 L129.439,52.602 L130.928,47.602 L132.597,47.602 L130.211,54.950 L128.721,54.950 L127.093,49.964 L125.452,54.950 L123.963,54.950 L121.603,47.602 L123.314,47.602 L124.776,52.602 L126.389,47.574 ZM120.857,51.248 C120.857,53.334 119.202,55.061 116.953,55.061 C114.732,55.061 113.090,53.361 113.090,51.276 C113.090,49.177 114.746,47.450 116.981,47.450 C119.215,47.450 120.857,49.149 120.857,51.248 ZM114.760,51.248 C114.760,52.547 115.684,53.611 116.981,53.611 C118.332,53.611 119.188,52.560 119.188,51.276 C119.188,49.977 118.263,48.914 116.953,48.914 C115.615,48.914 114.760,49.964 114.760,51.248 ZM109.642,54.894 L109.642,44.811 L111.311,44.811 L111.311,54.894 L109.642,54.894 ZM105.696,54.894 L105.696,44.811 L107.366,44.811 L107.366,54.894 L105.696,54.894 ZM108.842,40.887 L97.938,14.122 L104.470,14.122 L111.606,33.642 L118.790,14.122 L125.171,14.122 L114.319,40.887 L108.842,40.887 ZM103.917,51.386 C103.917,51.539 103.903,51.676 103.889,51.842 L98.538,51.842 C98.731,53.030 99.558,53.693 100.634,53.693 C101.448,53.693 102.028,53.389 102.606,52.823 L103.586,53.693 C102.896,54.521 101.945,55.061 100.606,55.061 C98.496,55.061 96.868,53.527 96.868,51.262 C96.868,49.163 98.344,47.450 100.427,47.450 C102.745,47.450 103.917,49.273 103.917,51.386 ZM98.524,50.738 L102.261,50.738 C102.152,49.660 101.517,48.817 100.413,48.817 C99.392,48.817 98.675,49.605 98.524,50.738 ZM90.314,49.411 L95.184,49.411 L95.184,50.958 L90.314,50.958 L90.314,54.894 L88.617,54.894 L88.617,45.226 L95.805,45.226 L95.805,46.773 L90.314,46.773 L90.314,49.411 ZM88.441,40.685 L88.441,14.122 L94.521,14.122 L94.521,40.685 L88.441,40.685 ZM88.190,4.260 L94.723,4.260 L94.723,10.046 L88.190,10.046 L88.190,4.260 ZM68.595,40.887 L57.692,14.122 L64.223,14.122 L71.358,33.642 L78.544,14.122 L84.926,14.122 L74.072,40.887 L68.595,40.887 ZM37.739,29.567 C38.442,33.893 41.457,36.309 45.376,36.309 C48.341,36.309 50.451,35.202 52.562,33.139 L56.130,36.309 C53.617,39.327 50.150,41.290 45.276,41.290 C37.588,41.290 31.659,35.705 31.659,27.453 C31.659,19.807 37.036,13.568 44.623,13.568 C53.064,13.568 57.335,20.209 57.335,27.907 C57.335,28.460 57.285,28.963 57.235,29.567 L37.739,29.567 ZM44.573,18.549 C40.854,18.549 38.241,21.416 37.689,25.543 L51.306,25.543 C50.904,21.618 48.592,18.549 44.573,18.549 ZM50.163,7.022 C50.356,8.210 51.184,8.873 52.260,8.873 C53.073,8.873 53.653,8.569 54.233,8.003 L55.212,8.873 C54.522,9.702 53.570,10.240 52.232,10.240 C50.122,10.240 48.494,8.707 48.494,6.442 C48.494,4.342 49.970,2.629 52.053,2.629 C54.370,2.629 55.543,4.453 55.543,6.567 C55.543,6.718 55.529,6.856 55.515,7.022 L50.163,7.022 ZM52.039,3.997 C51.019,3.997 50.300,4.785 50.149,5.917 L53.888,5.917 C53.777,4.839 53.143,3.997 52.039,3.997 ZM45.211,5.931 C45.211,4.798 44.645,4.149 43.652,4.149 C42.686,4.149 42.010,4.826 42.010,5.959 L42.010,10.075 L40.341,10.075 L40.341,-0.008 L42.010,-0.008 L42.010,3.914 C42.479,3.224 43.155,2.629 44.287,2.629 C45.928,2.629 46.879,3.735 46.879,5.434 L46.879,10.075 L45.211,10.075 L45.211,5.931 ZM35.763,10.075 L34.052,10.075 L34.052,1.980 L30.990,1.980 L30.990,0.406 L38.825,0.406 L38.825,1.980 L35.763,1.980 L35.763,10.075 ZM22.565,40.685 L13.923,28.410 L6.185,28.410 L6.185,40.685 L0.005,40.685 L0.005,5.468 L15.682,5.468 C23.772,5.468 28.746,9.744 28.746,16.637 C28.746,22.473 25.279,25.995 20.355,27.353 L29.852,40.685 L22.565,40.685 ZM22.465,16.989 C22.465,13.115 19.752,11.103 15.179,11.103 L6.185,11.103 L6.185,22.926 L15.229,22.926 C19.651,22.926 22.465,20.611 22.465,16.989 Z" class="cls-1"/>
</svg>
