<svg xmlns="http://www.w3.org/2000/svg" xmlns:xlink="http://www.w3.org/1999/xlink" preserveAspectRatio="xMidYMid" width="413" height="347" viewBox="0 0 413 347">
  <defs>
    <style>
      .cls-1 {
        fill: #d89d5c;
      }

      .cls-1, .cls-2, .cls-3 {
        fill-rule: evenodd;
      }

      .cls-2, .cls-3 {
        fill: #363641;
      }

      .cls-2 {
        opacity: 0.8;
      }

      .cls-3 {
        opacity: 0.5;
        mix-blend-mode: multiply;
      }
    </style>
  </defs>
  <g>
    <path d="M234.411,40.071 C235.014,39.646 235.520,39.375 235.919,38.995 C239.067,35.990 242.268,33.034 245.310,29.926 C248.879,26.281 252.914,23.267 257.300,20.681 C257.730,20.428 258.214,20.263 258.993,19.913 C258.716,20.491 258.646,20.826 258.443,21.030 C256.701,22.785 254.932,24.514 253.175,26.254 C252.071,27.348 250.906,28.391 249.899,29.567 C249.354,30.202 249.162,31.121 248.675,31.818 C247.350,33.716 245.940,35.555 244.587,37.433 C243.340,39.162 242.172,40.948 240.875,42.637 C240.115,43.626 239.479,44.651 239.024,45.802 C238.825,46.307 238.400,46.651 238.508,47.363 C238.575,47.811 237.890,48.371 237.485,48.964 C237.173,48.840 236.867,48.717 236.433,48.543 C235.725,49.506 234.661,49.909 233.439,50.079 C232.170,50.255 230.910,50.523 229.663,50.820 C227.663,51.296 226.136,50.517 225.168,48.912 C223.555,46.238 222.005,43.503 221.503,40.352 C221.331,39.274 221.216,38.187 221.050,36.905 C220.021,37.702 219.229,38.447 218.666,39.447 C217.647,41.258 216.561,43.031 215.543,44.842 C214.908,45.970 214.497,47.252 213.715,48.259 C212.664,49.611 211.397,50.810 209.880,51.701 C208.079,52.760 206.193,52.690 204.312,52.051 C202.880,51.565 202.239,50.339 201.612,49.049 C199.382,44.465 199.633,39.508 199.290,34.643 C199.079,31.652 198.891,28.652 198.876,25.656 C198.854,21.450 199.002,17.244 199.081,12.871 C198.780,13.140 198.406,13.359 198.196,13.683 C197.001,15.524 195.860,17.399 194.674,19.245 C193.493,21.082 192.217,22.862 191.099,24.735 C189.921,26.709 188.796,28.681 189.109,31.187 C189.495,34.279 189.475,37.393 188.893,40.488 C188.747,41.265 188.901,42.093 188.858,42.894 C188.746,45.003 188.608,47.110 188.460,49.217 C188.445,49.423 188.289,49.620 188.148,49.934 C187.573,49.740 187.055,49.565 186.474,49.370 C186.363,49.706 186.259,50.020 186.179,50.261 C183.641,51.246 180.835,51.148 178.479,52.635 C177.171,53.460 177.005,53.296 176.091,52.067 C174.882,50.442 174.719,48.568 174.656,46.671 C174.605,45.180 174.597,43.684 174.669,42.194 C174.788,39.717 175.089,37.246 175.127,34.769 C175.178,31.449 174.998,28.127 175.014,24.806 C175.035,20.155 174.725,15.484 175.779,10.885 C175.890,10.399 175.811,9.870 175.824,9.138 C174.166,9.980 172.631,10.759 170.944,11.616 C171.199,12.685 171.517,13.720 171.685,14.779 C172.048,17.069 172.677,19.319 172.263,21.707 C171.823,24.247 171.645,26.830 171.320,29.391 C171.047,31.535 170.602,33.639 169.795,35.664 C169.447,36.536 169.231,37.464 169.008,38.379 C168.700,39.645 168.737,40.992 167.973,42.152 C167.774,42.455 167.810,42.933 167.805,43.332 C167.780,45.390 167.328,47.298 165.989,48.951 C165.766,49.227 165.658,49.709 165.709,50.067 C165.870,51.206 165.162,51.850 164.339,52.261 C162.992,52.932 161.593,53.567 160.145,53.953 C158.590,54.368 156.952,54.479 155.350,54.721 C154.831,54.799 154.314,54.911 153.792,54.937 C153.157,54.969 152.438,55.113 151.893,54.885 C149.449,53.864 147.329,52.554 146.073,49.978 C144.338,46.420 143.526,42.704 143.168,38.829 C142.888,35.801 142.954,32.795 143.445,29.788 C143.607,28.793 143.494,27.757 143.559,26.743 C143.876,21.769 145.028,16.948 146.400,12.177 C147.054,9.902 147.927,7.728 149.445,5.813 C150.089,5.000 150.676,4.733 151.644,5.053 C152.416,3.779 153.422,2.818 154.594,1.978 C155.236,1.519 155.769,1.534 156.507,1.570 C159.905,1.733 162.942,3.117 166.075,4.169 C167.577,4.673 169.429,7.004 169.974,8.914 C171.739,8.685 173.072,7.474 174.650,6.859 C176.450,6.159 176.779,4.325 177.999,3.003 C179.295,3.439 180.616,3.835 181.900,4.326 C183.441,4.915 184.274,6.108 184.616,7.682 C185.483,11.669 187.183,15.451 187.613,19.548 C187.640,19.808 187.881,20.045 188.100,20.429 C189.015,19.037 189.876,17.748 190.716,16.445 C193.055,12.816 196.049,9.723 198.970,6.570 C199.206,6.315 199.556,6.105 199.668,5.806 C200.232,4.303 201.465,4.203 202.794,4.259 C204.747,4.342 206.558,4.959 208.295,5.782 C208.683,5.965 209.059,6.361 209.241,6.750 C210.997,10.494 211.833,14.437 211.931,18.567 C212.024,22.474 212.249,26.379 212.440,30.284 C212.606,33.667 212.806,37.048 213.001,40.622 C213.357,40.303 213.676,40.094 213.894,39.809 C216.006,37.046 218.115,34.280 220.186,31.487 C220.516,31.041 220.809,30.467 220.852,29.931 C221.171,25.967 221.449,22.000 221.677,18.030 C221.739,16.942 221.546,15.843 221.539,14.748 C221.509,10.679 222.212,6.782 224.925,3.563 C225.673,2.676 226.841,2.050 227.931,1.545 C232.378,-0.514 236.904,-0.449 241.430,1.325 C242.326,1.676 242.659,3.036 242.020,3.811 C240.773,5.326 240.078,7.059 239.726,8.957 C239.666,9.281 239.524,9.601 239.363,9.893 C237.717,12.886 235.737,15.658 233.457,18.202 C232.522,19.245 232.207,20.363 232.284,21.684 C232.441,24.393 232.591,27.102 232.719,29.812 C232.756,30.605 232.797,31.414 232.686,32.195 C232.290,34.970 233.665,37.323 234.411,40.071 ZM157.271,45.881 C157.779,45.355 158.109,45.106 158.319,44.782 C160.454,41.478 162.660,38.213 164.656,34.828 C165.766,32.948 166.635,30.904 167.405,28.858 C168.653,25.541 168.439,22.045 168.362,18.586 C168.318,16.581 168.194,14.581 167.453,12.532 C164.233,12.922 161.046,13.290 157.916,12.020 C156.998,14.663 156.677,17.229 156.392,19.797 C156.234,21.219 156.093,22.649 156.073,24.078 C156.041,26.324 156.203,28.574 156.128,30.817 C155.997,34.737 155.977,38.651 156.436,42.549 C156.555,43.559 156.926,44.540 157.271,45.881 ZM238.675,3.681 C235.624,2.443 233.432,3.737 231.266,5.239 C230.621,5.686 230.435,6.277 230.294,6.974 C229.817,9.325 230.274,11.648 230.458,13.980 C230.475,14.199 230.601,14.410 230.754,14.841 C232.393,12.139 233.898,9.686 235.369,7.213 C235.778,6.527 236.135,5.802 236.433,5.061 C236.964,3.739 236.940,3.727 238.675,3.681 ZM165.984,9.679 C164.983,8.234 163.746,7.335 162.406,6.518 C161.348,5.874 160.392,5.756 159.433,6.630 C159.346,9.359 162.158,10.719 165.984,9.679 Z" class="cls-1"/>
    <path d="M112.261,126.556 C112.378,126.554 112.496,126.553 112.613,126.552 C112.613,127.689 112.613,128.826 112.613,129.963 C112.496,129.968 112.378,129.974 112.261,129.979 C112.261,128.838 112.261,127.697 112.261,126.556 ZM112.933,141.540 C111.674,139.370 110.907,133.619 111.934,130.963 C111.934,131.824 111.934,132.685 111.934,133.630 C112.246,133.440 112.413,133.338 112.447,133.317 C113.273,136.022 113.489,138.833 112.933,141.540 ZM412.284,105.200 C411.863,105.559 411.253,105.719 410.704,105.902 C408.645,106.589 406.939,107.725 405.387,109.290 C403.615,111.075 401.530,112.549 399.600,114.181 C398.085,115.463 396.607,116.790 395.096,118.078 C394.420,118.653 394.145,119.335 394.111,120.235 C393.955,124.344 393.765,128.452 393.520,132.556 C393.431,134.056 393.201,135.552 392.955,137.036 C392.655,138.848 392.381,140.677 391.893,142.442 C391.352,144.395 390.619,146.300 389.885,148.193 C389.707,148.650 389.265,149.101 388.827,149.346 C387.126,150.299 386.358,152.128 384.910,153.368 C383.337,154.716 381.437,155.189 379.772,156.205 C379.271,156.510 378.591,156.612 377.985,156.639 C376.333,156.711 374.676,156.714 373.021,156.705 C371.643,156.698 370.788,156.117 370.299,154.698 C368.675,149.992 369.230,145.519 371.277,141.078 C373.939,135.304 377.345,130.009 381.213,124.982 C381.639,124.429 381.901,123.648 381.976,122.944 C382.210,120.756 382.413,118.557 382.449,116.359 C382.494,113.603 381.938,110.906 381.241,108.248 C381.000,107.327 380.677,106.428 380.364,105.431 C379.414,105.613 378.927,106.416 378.305,106.998 C375.067,110.033 372.614,113.669 370.284,117.410 C369.715,118.322 368.867,119.057 368.184,119.903 C367.148,121.187 366.022,122.422 365.165,123.819 C364.457,124.972 364.162,126.262 364.324,127.759 C364.598,130.280 364.482,132.843 364.515,135.389 C364.555,138.531 364.657,141.674 364.589,144.813 C364.520,148.034 364.208,151.248 364.131,154.468 C364.063,157.272 364.196,160.081 364.200,162.887 C364.207,168.709 364.221,174.532 364.156,180.353 C364.137,182.032 363.694,183.712 363.729,185.386 C363.838,190.450 362.542,195.386 362.468,200.430 C362.457,201.221 362.073,202.006 361.874,202.796 C361.743,203.317 361.565,203.839 361.527,204.369 C361.396,206.175 361.011,206.568 359.175,206.655 C358.978,206.664 358.784,206.734 358.761,206.739 C357.956,208.252 357.216,209.644 356.367,211.240 C355.962,210.761 355.761,210.522 355.499,210.212 C355.122,211.433 354.125,211.840 353.102,212.352 C351.979,212.915 351.011,213.350 350.150,212.624 C349.897,211.060 349.670,209.785 349.494,208.503 C349.415,207.926 349.570,207.289 349.384,206.761 C349.162,206.129 348.664,205.600 348.330,205.000 C347.752,203.962 347.479,202.889 347.552,201.648 C347.774,197.870 347.882,194.085 347.995,190.302 C348.114,186.319 348.471,182.316 348.217,178.355 C347.745,171.013 348.086,163.650 347.448,156.320 C346.849,149.440 347.516,142.557 347.458,135.676 C347.422,131.405 347.610,127.133 347.673,122.861 C347.681,122.364 347.532,121.865 347.241,121.349 C346.828,123.429 345.215,125.059 345.320,127.259 C345.323,127.324 345.290,127.395 345.261,127.457 C343.600,131.093 343.145,135.073 341.975,138.847 C341.614,140.014 340.961,141.100 340.373,142.186 C338.217,146.170 336.402,150.344 333.693,154.018 C331.988,156.330 329.467,157.143 326.857,157.156 C324.292,157.167 322.670,155.306 321.593,153.089 C320.120,150.056 319.816,146.776 319.650,143.473 C319.557,141.626 319.452,139.779 319.331,137.540 C318.980,138.017 318.807,138.168 318.738,138.357 C317.727,141.126 316.766,143.913 315.720,146.668 C314.030,151.119 310.901,154.258 306.673,156.356 C305.558,156.910 304.478,157.154 303.680,155.855 C302.598,156.899 302.352,156.836 301.949,155.675 C301.689,154.925 301.431,153.949 300.849,153.576 C298.454,152.044 297.736,149.556 297.142,147.131 C295.823,141.750 295.666,136.233 295.667,130.708 C295.668,125.002 295.551,119.296 295.458,113.591 C295.447,112.916 295.262,112.244 295.109,111.253 C294.622,111.913 294.241,112.296 294.017,112.755 C292.906,115.040 291.801,117.329 290.765,119.648 C290.205,120.900 289.735,122.198 289.313,123.503 C288.089,127.289 286.908,131.089 285.713,134.885 C284.683,138.155 283.544,141.398 282.681,144.713 C282.317,146.114 282.534,147.667 282.494,149.151 C282.475,149.869 282.475,150.588 282.465,151.408 C284.504,150.272 284.481,150.278 283.996,148.503 C283.903,148.164 283.949,147.642 284.157,147.392 C285.278,146.040 285.559,144.475 285.523,142.796 C285.521,142.702 285.689,142.604 285.923,142.354 C286.048,142.776 286.256,143.113 286.220,143.420 C286.084,144.573 285.859,145.716 285.692,146.866 C285.655,147.125 285.611,147.516 285.754,147.647 C286.938,148.733 286.034,149.638 285.516,150.536 C283.904,153.331 281.728,155.655 279.307,157.760 C279.139,157.906 278.835,157.895 278.473,157.987 C278.840,156.533 280.658,155.721 279.686,153.901 C279.291,154.115 278.832,154.256 278.523,154.552 C277.362,155.662 276.202,156.778 275.137,157.977 C274.249,158.975 273.470,159.292 272.294,158.856 C271.244,158.466 270.780,157.633 270.946,156.336 C271.082,155.274 271.095,154.151 271.475,153.177 C271.973,151.899 271.603,150.782 271.312,149.603 C270.987,148.283 270.547,146.981 271.537,145.696 C271.774,145.389 271.688,144.799 271.676,144.341 C271.546,139.337 271.406,134.333 271.260,129.329 C271.194,127.093 271.110,124.859 271.027,122.403 C269.821,123.606 270.814,124.844 270.426,125.859 C270.048,126.850 269.384,127.623 269.620,128.899 C270.014,131.029 270.335,133.261 270.119,135.392 C269.892,137.628 270.433,139.686 270.637,141.825 C270.687,142.353 270.141,142.937 269.653,143.445 C269.222,142.190 268.772,141.063 269.046,139.740 C269.250,138.755 269.269,137.682 269.122,136.684 C268.589,133.049 268.971,129.413 268.936,125.777 C268.923,124.467 268.624,123.149 269.119,121.875 C269.735,120.290 270.084,118.713 269.257,117.094 C270.167,116.083 269.434,114.881 269.569,113.777 C269.721,112.535 269.505,111.155 269.093,109.957 C268.275,107.575 268.415,105.115 268.128,102.689 C268.052,102.038 268.204,101.245 267.111,100.906 C266.685,100.773 266.574,99.473 266.416,98.686 C266.301,98.109 266.345,97.501 266.037,96.830 C265.792,97.288 265.534,97.739 265.304,98.203 C262.206,104.495 259.095,110.780 256.025,117.086 C255.185,118.812 254.392,120.571 253.755,122.377 C253.579,122.878 253.915,123.678 254.232,124.214 C256.042,127.280 257.978,130.273 259.749,133.361 C261.009,135.559 262.079,137.865 263.225,140.127 C263.595,140.858 263.928,141.607 264.294,142.339 C264.965,143.681 265.586,145.006 265.290,146.601 C265.172,147.236 265.367,147.929 265.425,148.669 C264.509,149.122 263.443,149.573 262.462,150.165 C261.959,150.469 261.598,151.015 261.192,151.469 C260.927,151.765 260.756,152.180 260.442,152.393 C257.624,154.310 254.804,156.227 251.933,158.063 C251.203,158.529 250.310,158.851 249.452,158.984 C246.803,159.396 244.137,159.705 241.473,160.012 C239.708,160.215 238.047,159.818 236.493,158.962 C236.252,158.828 235.912,158.776 235.769,158.577 C234.276,156.509 231.799,155.101 231.459,152.078 C232.061,152.181 232.618,152.276 233.198,152.375 C234.470,147.612 236.676,143.262 239.122,139.016 C240.050,137.405 240.914,135.757 241.875,134.167 C242.330,133.414 242.293,132.773 241.859,132.060 C239.724,128.557 237.499,125.103 235.512,121.517 C234.324,119.372 233.367,117.068 232.578,114.743 C231.777,112.380 231.439,111.817 228.988,112.332 C226.836,112.784 224.910,112.617 222.797,111.382 C222.473,112.559 222.042,113.503 221.981,114.470 C221.804,117.267 220.767,119.815 219.863,122.401 C218.598,126.021 217.114,129.572 216.015,133.240 C215.135,136.177 214.763,139.262 214.023,142.247 C213.620,143.876 213.868,145.605 213.093,147.182 C212.851,147.674 213.034,148.398 213.096,149.009 C213.239,150.431 213.453,151.873 212.815,153.212 C212.131,154.648 213.041,155.700 213.614,156.981 C213.252,157.407 212.872,157.854 212.464,158.334 C212.213,157.902 212.025,157.580 211.652,156.938 C211.412,157.689 211.268,158.142 211.103,158.655 C210.914,158.702 210.651,158.821 210.388,158.820 C209.322,158.817 208.653,159.095 208.448,160.354 C208.360,160.891 207.462,161.296 207.072,161.638 C206.005,160.985 205.202,160.276 204.269,159.985 C203.372,159.705 203.160,159.186 202.909,158.429 C202.160,156.173 201.237,153.974 200.536,151.706 C200.036,150.091 199.610,148.416 199.466,146.741 C199.271,144.472 198.790,142.306 198.203,140.110 C197.497,137.469 197.189,134.721 196.728,132.017 C195.924,127.295 195.136,122.571 194.333,117.850 C194.314,117.741 194.191,117.650 194.039,117.448 C192.659,118.353 192.390,119.880 191.921,121.251 C191.391,122.803 190.955,124.389 190.542,125.977 C190.162,127.434 189.857,128.912 189.534,130.384 C188.657,134.392 187.832,138.412 186.897,142.407 C186.446,144.334 185.783,146.210 185.244,148.118 C185.079,148.704 184.896,149.320 184.917,149.916 C184.947,150.804 184.652,151.487 184.123,152.171 C183.708,152.706 183.455,153.365 182.991,154.227 C182.386,154.228 181.586,154.472 180.869,155.228 C179.170,157.020 176.674,157.142 174.497,157.887 C173.266,158.309 172.243,157.430 171.505,156.473 C169.967,154.477 169.090,152.170 168.789,149.697 C168.342,146.017 167.931,142.327 167.698,138.630 C167.370,133.422 167.041,128.203 167.039,122.989 C167.038,117.223 167.407,111.456 167.611,105.689 C167.630,105.151 167.626,104.612 167.636,103.810 C164.898,104.873 162.318,105.874 159.964,106.788 C159.775,110.893 159.623,114.754 159.403,118.612 C159.334,119.828 159.040,121.030 158.923,122.245 C158.670,124.876 158.437,127.510 158.248,130.146 C158.060,132.778 157.193,135.236 156.335,137.686 C155.069,141.301 153.534,144.808 152.804,148.620 C152.452,150.461 151.531,152.275 150.040,153.589 C148.654,154.811 147.245,156.038 145.703,157.044 C142.440,159.172 139.098,158.965 136.306,156.266 C135.030,155.031 133.584,153.901 132.644,152.299 C131.068,149.610 129.862,146.760 129.151,143.754 C128.149,139.521 127.806,135.192 127.847,130.838 C127.852,130.379 127.858,129.921 127.864,129.462 C127.724,129.426 127.584,129.390 127.444,129.354 C126.883,130.914 126.295,132.464 125.765,134.035 C124.578,137.552 123.389,141.070 122.260,144.606 C121.215,147.880 120.399,151.172 120.504,154.687 C120.586,157.421 118.865,159.421 116.240,160.214 C115.789,160.350 115.616,161.562 114.834,160.541 C114.788,161.086 114.826,161.585 114.692,162.033 C114.389,163.046 114.000,164.035 113.643,165.042 C111.997,164.246 111.621,163.557 111.754,161.950 C111.792,161.499 111.586,161.031 111.521,160.567 C111.442,160.006 111.394,159.441 111.301,158.580 C112.042,158.884 112.429,159.043 113.214,159.365 C112.742,157.436 112.187,155.843 111.998,154.208 C111.811,152.592 111.992,150.934 112.013,149.210 C112.650,150.689 113.251,152.085 114.003,153.831 C114.721,151.573 115.413,149.721 114.565,147.583 C114.234,146.747 114.355,145.682 114.448,144.738 C114.831,140.816 114.362,136.945 113.917,133.062 C113.770,131.786 113.901,130.476 113.925,129.181 C113.943,128.195 114.147,127.123 112.625,127.211 C112.659,124.469 112.493,121.988 113.239,119.454 C113.754,117.703 113.387,115.693 113.424,113.799 C113.431,113.408 113.445,113.012 113.516,112.629 C113.874,110.688 113.740,109.013 112.918,106.137 C111.627,109.500 112.234,112.775 112.309,116.140 C110.099,115.541 109.860,113.608 109.237,111.736 C108.891,112.962 108.090,114.215 108.426,114.949 C109.058,116.328 108.108,117.277 108.128,118.414 C108.148,119.558 108.451,120.703 108.419,121.842 C108.393,122.745 108.243,123.753 107.802,124.515 C106.877,126.115 107.139,127.690 107.600,129.266 C107.801,129.952 107.941,130.483 107.664,131.214 C107.450,131.777 107.599,132.542 107.767,133.168 C108.043,134.193 108.026,134.836 107.568,136.206 C107.480,136.470 107.755,136.871 107.902,137.191 C108.004,137.414 108.230,137.590 108.292,137.817 C108.336,137.978 108.200,138.189 108.089,138.562 C107.200,137.790 106.856,136.932 106.780,135.895 C106.643,134.041 106.481,132.187 106.286,130.338 C106.100,128.580 106.070,126.750 104.302,125.472 C103.646,127.027 102.944,128.642 102.282,130.274 C101.381,132.497 100.506,134.730 99.630,136.962 C98.359,140.200 97.057,143.426 95.844,146.686 C94.694,149.774 93.654,152.904 92.531,156.002 C92.382,156.414 92.089,156.823 91.755,157.109 C90.609,158.088 89.443,159.050 88.230,159.945 C87.406,160.553 86.534,161.131 85.608,161.560 C82.790,162.869 81.209,162.418 79.388,159.911 C76.926,156.522 75.715,152.683 75.440,148.551 C75.181,144.652 75.039,140.746 74.844,136.843 C74.828,136.510 74.798,136.178 74.750,135.503 C74.222,135.764 73.714,135.843 73.564,136.117 C72.349,138.336 71.278,140.637 70.012,142.825 C68.370,145.663 66.802,148.584 64.817,151.174 C62.055,154.775 57.986,156.411 53.641,157.188 C51.319,157.603 49.488,156.156 47.873,154.690 C46.167,153.141 45.067,151.127 44.301,148.977 C42.675,144.413 41.778,139.716 41.661,134.848 C41.538,129.696 41.264,124.551 42.200,119.440 C42.259,119.117 42.215,118.776 42.221,118.347 C41.657,118.340 41.211,118.335 40.494,118.326 C40.469,120.436 40.444,122.477 40.417,124.691 C39.162,124.114 41.015,122.488 39.111,122.432 C38.902,123.678 38.842,124.881 39.105,126.196 C39.450,127.922 39.434,129.721 39.551,131.490 C39.563,131.676 39.450,131.888 39.350,132.062 C39.043,132.601 37.892,132.378 38.184,133.548 C38.350,134.211 37.911,135.000 37.952,135.720 C38.073,137.848 36.817,139.620 36.536,141.652 C36.238,143.797 35.503,145.888 35.275,148.037 C34.895,151.606 33.992,154.998 32.600,158.291 C32.273,159.066 32.156,159.930 31.960,160.758 C31.913,160.955 32.011,161.216 31.916,161.369 C30.233,164.081 30.066,167.291 29.045,170.224 C27.914,173.474 27.370,176.926 26.545,180.284 C25.561,184.288 24.702,188.326 23.780,192.341 C22.939,196.001 21.543,199.380 20.052,202.751 C19.374,204.285 18.371,205.677 17.473,207.107 C17.264,207.441 16.905,207.701 16.571,207.931 C16.065,208.279 15.520,208.571 14.794,209.006 C14.129,208.940 13.185,208.791 12.237,208.762 C10.559,208.712 9.221,207.957 8.092,206.813 C7.673,206.390 7.147,205.790 7.157,205.281 C7.187,203.748 6.356,202.540 5.923,201.185 C5.526,199.945 4.992,198.704 4.876,197.430 C4.770,196.277 4.169,195.322 3.889,194.263 C3.227,191.762 2.864,189.229 2.615,186.699 C1.879,179.238 1.354,171.757 0.698,164.287 C0.029,156.671 -0.091,149.037 0.038,141.404 C0.152,134.630 0.504,127.858 0.801,121.088 C0.870,119.515 1.059,117.935 1.353,116.389 C1.514,115.546 1.813,114.560 2.398,114.005 C3.640,112.825 3.568,111.519 3.317,110.068 C2.956,107.978 3.235,105.938 3.920,103.924 C4.862,106.352 3.360,109.080 5.006,111.755 C5.166,110.585 5.285,109.721 5.402,108.867 C7.124,108.967 7.202,108.842 7.093,106.147 C6.445,106.293 5.835,106.430 5.088,106.599 C5.331,104.654 5.568,102.764 5.804,100.874 C5.929,100.883 6.054,100.892 6.179,100.901 C6.223,102.112 6.267,103.324 6.311,104.535 C6.403,104.525 6.495,104.516 6.587,104.506 C7.194,102.083 7.883,99.676 8.372,97.230 C8.609,96.045 8.519,94.784 8.464,93.562 C8.451,93.291 7.960,93.041 7.616,92.710 C7.925,91.767 8.341,90.687 8.627,89.574 C8.895,88.532 9.805,87.446 8.370,86.432 C8.002,86.172 7.976,85.295 7.959,84.696 C7.902,82.619 7.901,80.575 8.461,78.503 C9.189,75.807 9.488,72.999 10.077,70.262 C10.627,67.704 11.408,65.213 12.949,63.035 C13.105,62.815 13.305,62.588 13.357,62.337 C14.980,54.544 18.375,47.439 23.233,41.710 C24.771,39.896 26.401,39.762 28.338,41.028 C29.063,41.502 30.085,41.538 30.982,41.718 C31.225,41.766 31.578,41.471 31.762,41.565 C33.728,42.571 36.215,42.566 37.658,44.594 C38.092,45.203 38.584,45.772 39.054,46.356 C41.387,49.247 40.820,52.538 40.247,55.770 C39.729,58.691 38.761,61.546 38.415,64.481 C37.997,68.016 36.814,71.289 35.563,74.537 C34.230,77.997 32.528,81.312 31.097,84.736 C29.959,87.462 29.071,90.292 27.909,93.007 C27.136,94.812 26.086,96.500 25.142,98.230 C24.159,100.031 23.155,101.820 22.159,103.616 C23.955,104.529 24.134,104.419 24.083,102.688 C24.869,102.698 25.648,102.707 26.446,102.716 C26.609,103.207 26.773,103.699 26.999,104.380 C27.785,103.812 28.444,103.337 29.302,102.719 C29.466,103.477 29.562,103.920 29.678,104.456 C30.460,104.404 31.256,104.350 32.073,104.295 C32.279,104.710 32.511,105.175 32.854,105.865 C33.246,105.323 33.494,104.980 33.856,104.480 C36.311,106.956 38.835,109.292 40.119,112.802 C40.048,112.775 40.174,112.865 40.301,112.865 C44.575,112.869 43.902,113.685 45.381,109.084 C46.617,105.238 48.198,101.484 49.887,97.810 C50.868,95.674 52.777,94.167 54.705,92.820 C55.124,92.527 55.729,92.313 56.226,92.351 C58.411,92.518 60.531,93.036 62.514,93.979 C62.973,94.197 63.326,94.709 63.642,95.148 C66.661,99.328 66.212,103.873 64.943,108.463 C64.610,109.668 63.589,110.817 65.154,111.876 C65.228,111.926 65.257,112.139 65.218,112.243 C64.915,113.053 64.730,114.173 65.437,114.478 C66.080,114.755 66.556,115.249 67.162,115.710 C66.543,115.619 65.924,115.528 65.157,115.415 C64.327,116.770 62.861,116.610 61.437,116.525 C57.766,116.306 57.296,116.593 57.467,120.314 C57.652,124.340 58.169,128.352 58.577,132.366 C58.827,134.830 59.040,137.305 59.460,139.743 C59.807,141.755 60.433,143.719 60.964,145.816 C62.524,145.138 63.478,144.012 64.349,142.918 C68.045,138.277 71.405,133.406 74.151,128.124 C74.798,126.880 74.907,125.660 74.807,124.339 C74.674,122.574 74.286,120.805 74.873,119.044 C74.933,118.862 74.905,118.622 74.843,118.433 C73.926,115.639 74.491,112.748 74.267,109.910 C74.052,107.177 73.812,104.447 73.650,101.712 C73.552,100.064 73.595,98.409 73.552,96.758 C73.469,93.544 73.394,90.329 73.271,87.116 C73.158,84.181 73.266,81.253 73.340,78.320 C73.420,75.116 73.180,71.906 73.202,68.699 C73.216,66.645 73.452,64.592 73.585,62.539 C73.718,60.497 73.777,58.448 73.997,56.416 C74.203,54.516 74.619,52.640 74.870,50.743 C75.420,46.584 75.798,42.397 76.491,38.263 C76.973,35.393 77.861,32.592 78.585,29.693 C79.254,29.882 79.675,30.151 80.021,30.075 C82.080,29.621 83.218,31.085 84.303,32.285 C85.424,33.525 86.245,35.030 86.221,36.872 C86.156,41.824 86.157,46.777 86.166,51.730 C86.168,53.098 86.376,54.468 86.341,55.833 C86.250,59.379 86.053,62.921 85.942,66.467 C85.820,70.363 85.748,74.260 85.651,78.157 C85.583,80.880 85.460,83.603 85.450,86.327 C85.437,89.690 85.595,93.054 85.521,96.415 C85.484,98.093 85.182,99.781 84.839,101.432 C84.551,102.818 84.572,104.130 84.904,105.501 C85.026,106.007 84.754,106.609 84.643,107.172 C84.654,107.177 84.661,107.180 84.672,107.185 C84.422,107.619 83.917,108.086 83.966,108.483 C84.236,110.643 84.613,112.791 85.014,114.931 C85.253,116.206 85.668,117.449 85.893,118.726 C86.665,123.115 87.390,127.514 88.130,131.909 C88.265,132.716 88.399,133.523 88.514,134.333 C89.189,139.062 89.855,143.793 90.538,148.521 C90.564,148.706 90.732,148.871 90.986,149.306 C92.156,146.790 93.312,144.480 94.317,142.107 C96.487,136.982 98.508,131.794 100.722,126.689 C103.199,120.980 104.665,114.989 105.998,108.949 C106.410,107.083 106.918,105.233 107.230,103.350 C107.856,99.574 108.401,95.784 108.932,91.993 C109.226,89.900 109.429,87.794 109.660,85.693 C109.689,85.428 109.676,85.142 109.609,84.886 C109.172,83.235 109.537,81.653 109.904,80.045 C110.130,79.057 110.326,77.986 110.171,77.010 C110.033,76.146 109.390,75.362 108.815,74.239 C108.574,71.962 108.290,69.265 107.962,66.166 C107.156,67.515 106.368,68.241 105.053,68.226 C105.167,68.956 105.134,69.764 105.430,70.426 C105.977,71.647 105.775,72.560 104.487,73.327 C104.440,72.939 104.278,72.501 104.359,72.114 C104.604,70.939 105.011,69.814 103.964,68.749 C103.707,68.487 103.790,67.837 103.808,67.368 C103.968,63.045 104.088,58.719 104.339,54.400 C104.572,50.373 104.955,46.354 105.263,42.332 C105.557,38.484 107.066,34.995 108.560,31.523 C109.128,30.205 110.099,29.166 111.922,29.598 C113.291,29.922 114.732,29.943 116.115,30.096 C116.708,32.934 117.452,35.479 117.718,38.074 C117.954,40.375 117.754,42.738 117.574,45.060 C117.279,48.878 116.889,52.691 116.451,56.496 C116.178,58.876 115.681,61.230 115.405,63.609 C115.250,64.945 115.329,66.309 115.325,67.660 C115.322,69.026 115.336,70.392 115.364,71.758 C115.373,72.232 115.403,72.713 115.497,73.175 C115.808,74.691 116.408,76.200 116.403,77.710 C116.400,78.937 115.867,80.263 115.246,81.363 C114.223,83.178 114.072,85.050 114.183,87.044 C114.226,87.821 113.984,88.616 113.857,89.400 C113.802,89.739 113.549,90.135 113.655,90.397 C114.633,92.817 113.386,95.324 114.064,97.821 C114.513,99.477 114.207,101.379 114.032,103.151 C113.848,105.017 114.006,106.843 114.485,108.607 C115.035,110.632 114.510,112.573 114.306,114.531 C114.191,115.622 114.170,116.647 114.293,117.748 C114.482,119.446 114.322,121.184 114.296,122.905 C114.280,123.937 114.310,124.979 114.185,125.999 C114.056,127.054 114.484,127.702 115.364,128.154 L115.330,128.136 C115.338,129.011 115.234,129.904 115.375,130.757 C115.695,132.690 114.880,134.697 115.787,136.582 C115.874,136.763 115.971,136.996 115.929,137.172 C115.275,139.910 116.005,142.627 116.041,145.352 C116.043,145.532 116.170,145.711 116.313,146.082 C117.783,144.070 116.686,141.850 117.350,139.857 C117.498,140.426 117.646,140.996 117.871,141.866 C119.821,136.688 121.519,131.766 123.520,126.971 C126.367,120.149 127.924,112.933 130.277,105.965 C131.593,102.069 132.525,98.008 134.872,94.514 C135.205,94.017 135.333,93.383 135.616,92.657 C137.022,93.585 138.535,93.204 140.081,92.981 C146.899,91.999 152.513,94.192 156.855,99.543 C157.278,100.065 157.519,100.735 157.843,101.337 C158.163,101.930 158.481,102.525 158.906,103.316 C162.200,102.112 165.393,100.944 168.552,99.789 C168.205,96.725 168.416,96.258 170.611,95.139 C171.158,95.492 171.707,95.912 172.314,96.219 C172.784,96.457 173.388,96.788 173.825,96.673 C175.546,96.220 177.098,97.018 178.613,97.410 C179.959,97.757 181.153,98.907 182.270,99.869 C183.460,100.895 183.412,102.363 183.431,103.849 C183.453,105.556 183.948,107.253 184.018,108.964 C184.202,113.495 184.286,118.032 184.371,122.567 C184.405,124.350 184.337,126.135 184.639,128.038 C185.351,126.389 186.134,124.765 186.764,123.085 C188.887,117.425 191.035,111.772 192.995,106.055 C193.538,104.469 193.409,102.663 193.681,100.972 C193.884,99.711 194.235,98.474 194.533,97.172 C198.343,97.362 201.052,99.035 202.772,102.061 C205.153,106.249 207.294,110.607 207.972,115.427 C208.373,118.273 209.221,121.147 208.619,124.151 C208.821,123.704 209.023,123.257 209.414,122.393 C210.154,125.314 210.384,127.893 209.949,130.858 C210.564,130.488 210.900,130.285 211.412,129.977 C211.482,130.520 211.545,131.005 211.612,131.529 C211.782,131.475 211.958,131.464 211.975,131.406 C214.002,124.630 216.015,117.849 218.035,111.070 C218.151,110.681 218.324,110.310 218.448,109.923 C218.862,108.626 219.186,107.491 218.275,106.077 C217.228,104.452 217.052,102.446 217.776,100.511 C218.454,98.699 221.442,97.566 223.137,98.473 C224.564,99.238 225.013,100.296 224.681,102.126 C224.504,103.105 223.720,104.154 224.655,105.048 C225.783,106.126 227.005,107.134 228.304,107.994 C228.693,108.251 229.515,108.020 230.071,107.824 C230.902,107.531 231.674,107.071 232.506,106.665 C232.226,103.700 232.748,100.884 233.598,98.125 C233.878,97.214 234.280,96.313 234.784,95.505 C235.324,94.638 236.147,94.219 237.212,93.881 C240.266,92.911 243.200,93.815 246.177,94.047 C247.656,94.163 248.545,95.041 248.915,96.462 C249.303,97.951 250.179,99.245 249.805,101.015 C249.548,102.233 249.289,103.187 248.332,103.988 C247.179,104.951 246.101,106.004 244.982,107.026 C245.910,111.548 248.909,114.972 250.999,119.287 C251.949,117.710 252.761,116.461 253.476,115.158 C255.064,112.265 256.632,109.360 258.159,106.434 C261.445,100.140 264.474,93.724 266.869,87.036 C267.943,84.034 268.294,80.844 267.758,77.713 C267.486,76.126 266.687,74.591 266.859,72.932 C267.090,70.713 266.230,68.639 266.197,66.452 C266.129,61.857 266.150,57.243 265.709,52.678 C265.430,49.792 265.415,46.920 265.480,44.060 C265.555,40.772 265.933,37.471 266.456,34.220 C266.881,31.581 267.694,29.001 268.383,26.408 C268.576,25.684 268.868,24.964 269.242,24.315 C270.386,22.329 272.794,22.344 274.113,24.254 C275.201,25.829 276.379,27.343 277.529,28.875 C279.183,31.077 280.082,33.541 280.272,36.294 C280.589,40.872 279.795,45.343 279.099,49.831 C278.699,52.411 278.240,54.996 278.099,57.595 C278.012,59.208 278.384,60.868 278.702,62.477 C279.631,67.186 280.307,71.917 280.557,76.716 C280.766,80.733 280.785,84.808 281.537,88.733 C282.166,92.020 281.731,95.416 282.844,98.616 C282.937,98.886 282.757,99.255 282.690,99.576 C282.608,99.971 282.414,100.368 282.435,100.755 C282.687,105.451 282.969,110.146 283.265,115.202 C285.250,110.702 288.247,107.060 289.660,102.567 C290.070,101.264 290.742,100.032 291.392,98.819 C292.138,97.425 292.962,96.097 292.962,94.420 C292.962,93.922 293.300,93.391 293.575,92.930 C294.385,91.571 294.843,91.414 296.232,92.080 C298.150,93.001 300.091,93.799 302.236,94.057 C303.569,94.217 304.672,94.752 305.399,96.054 C305.884,96.922 306.745,97.576 307.412,98.349 C308.346,99.433 308.634,100.783 308.752,102.138 C308.948,104.397 308.963,106.673 309.170,108.931 C309.339,110.768 309.801,112.581 309.916,114.418 C310.139,118.012 310.288,121.615 310.323,125.216 C310.359,128.807 310.168,132.400 310.170,135.991 C310.172,138.827 310.316,141.663 310.592,144.518 C314.494,136.820 316.464,128.560 318.163,120.231 C319.861,111.910 320.716,103.463 321.369,94.691 C322.328,95.132 322.846,95.443 323.407,95.606 C323.894,95.746 324.449,95.833 324.938,95.745 C326.479,95.467 327.679,95.927 328.450,97.273 C330.073,100.102 331.229,103.090 331.491,106.384 C331.762,109.808 332.035,113.234 332.419,116.646 C332.748,119.581 333.258,122.494 333.640,125.423 C333.790,126.580 333.863,127.754 333.873,128.922 C333.889,130.709 333.883,132.456 334.454,134.218 C334.854,135.454 334.731,136.858 335.181,138.288 C335.798,137.249 336.527,136.260 337.013,135.163 C339.160,130.322 341.493,125.542 343.274,120.567 C345.378,114.692 347.494,108.782 348.261,102.515 C348.444,101.016 348.807,99.538 349.107,98.055 C349.336,96.921 349.350,96.923 350.680,95.896 C351.134,96.209 351.609,96.578 352.122,96.882 C352.938,97.365 353.754,97.662 354.767,97.803 C357.764,98.223 360.884,98.764 362.160,102.131 C362.604,103.302 362.713,104.599 363.010,106.008 C363.387,105.697 363.771,105.449 364.069,105.122 C365.462,103.596 366.867,102.078 368.202,100.502 C370.863,97.360 374.355,95.503 378.104,94.049 C379.305,93.583 380.511,93.665 381.674,94.324 C383.395,95.298 385.116,96.278 386.887,97.155 C390.865,99.123 392.716,102.513 393.415,106.694 C393.628,107.973 393.776,109.263 393.984,110.766 C395.133,110.087 396.127,109.414 397.195,108.891 C398.384,108.308 399.183,107.279 400.200,106.527 C401.834,105.318 403.624,104.306 405.402,103.308 C406.529,102.675 407.731,101.862 408.942,101.783 C410.023,101.713 411.180,102.504 412.267,102.993 C412.589,103.138 413.031,103.586 412.995,103.833 C412.923,104.322 412.655,104.884 412.284,105.200 ZM378.226,138.182 C376.162,141.736 374.131,145.322 373.699,149.521 C373.630,150.187 373.869,150.884 373.996,151.789 C374.901,151.408 375.334,151.197 375.787,151.040 C377.588,150.415 378.860,149.255 379.384,147.399 C379.793,145.952 380.295,144.499 380.442,143.018 C380.715,140.272 380.758,137.504 380.922,134.237 C379.822,135.834 378.938,136.958 378.226,138.182 ZM8.327,205.289 C8.276,205.408 8.224,205.527 8.172,205.646 C8.716,205.941 9.261,206.236 9.805,206.530 C9.905,206.354 10.006,206.178 10.107,206.002 C9.513,205.764 8.920,205.526 8.327,205.289 ZM18.803,84.645 C18.654,85.453 18.505,86.261 18.357,87.069 C18.484,87.099 18.612,87.128 18.740,87.158 C18.873,86.343 19.007,85.529 19.140,84.715 C19.028,84.692 18.915,84.669 18.803,84.645 ZM24.597,75.722 C27.487,68.864 29.708,61.803 30.836,54.438 C31.086,52.805 31.350,51.047 30.204,49.188 C27.820,51.587 26.864,54.418 25.998,57.278 C25.364,59.375 24.542,61.477 24.348,63.626 C24.148,65.850 23.087,67.816 23.090,70.147 C23.093,72.201 21.762,74.233 21.195,76.322 C20.809,77.740 19.627,79.176 20.926,80.742 C21.042,80.881 20.911,81.261 20.839,81.513 C20.556,82.496 20.222,83.465 19.969,84.455 C19.873,84.833 19.945,85.254 19.940,85.656 C20.541,85.135 20.849,84.611 21.085,84.057 C22.266,81.283 23.425,78.500 24.597,75.722 ZM30.729,110.651 C29.104,109.135 27.102,108.222 25.067,107.388 C24.694,107.235 24.061,107.125 24.006,106.889 C23.768,105.864 23.053,106.215 22.464,106.245 C21.993,106.268 21.526,106.383 20.815,106.497 C20.603,107.754 20.374,108.962 20.204,110.178 C20.094,110.961 20.476,111.542 21.231,111.726 C23.303,112.230 25.372,112.799 27.476,113.099 C29.065,113.326 30.708,113.179 32.808,113.205 C31.945,112.129 31.423,111.298 30.729,110.651 ZM33.576,117.343 C28.726,117.490 24.212,116.743 19.640,115.450 C19.421,116.695 19.139,117.815 19.037,118.952 C18.494,124.967 17.910,130.979 17.512,137.003 C17.206,141.629 17.156,146.271 16.989,150.906 C16.906,153.205 16.888,155.510 16.712,157.803 C16.440,161.357 16.171,164.894 16.754,168.452 C17.016,170.051 17.284,171.733 17.058,173.307 C16.728,175.614 16.883,177.890 16.804,180.179 C16.768,181.207 16.758,182.190 16.918,183.197 C17.112,184.414 17.196,185.653 17.457,186.854 C17.615,187.580 17.448,188.470 18.412,189.300 C19.597,185.834 20.764,182.620 21.790,179.362 C22.720,176.412 23.490,173.412 24.343,170.438 C25.935,164.893 27.630,159.376 28.575,153.666 C29.313,149.200 30.007,144.723 30.891,140.285 C32.071,134.359 32.757,128.368 33.488,122.383 C33.684,120.781 33.554,119.139 33.576,117.343 ZM59.447,108.120 C61.449,105.170 62.060,101.975 60.805,98.566 C60.390,97.435 59.517,96.834 57.928,97.042 C57.466,98.574 56.876,100.166 56.516,101.808 C56.002,104.147 55.640,106.520 55.254,108.885 C55.160,109.458 55.227,110.057 55.219,110.685 C56.668,110.386 58.714,109.200 59.447,108.120 ZM84.622,107.163 C84.577,106.833 84.531,106.494 84.462,105.992 C83.976,106.858 83.968,106.883 84.622,107.163 ZM110.272,64.131 C109.310,65.138 109.310,65.138 109.751,67.743 C111.195,66.792 111.324,65.897 110.272,64.131 ZM114.762,78.105 C114.812,77.563 114.862,77.020 114.912,76.478 C114.765,76.478 114.618,76.478 114.470,76.478 C114.464,77.012 114.457,77.546 114.451,78.081 C114.554,78.089 114.658,78.097 114.762,78.105 ZM112.955,36.743 C112.132,39.269 112.431,41.794 112.947,44.315 C113.515,41.781 113.606,39.255 112.955,36.743 ZM148.975,97.950 C148.801,97.866 148.595,97.846 148.402,97.806 C147.167,97.554 145.931,97.305 144.654,97.046 C145.033,99.716 145.395,102.264 145.774,104.928 C148.824,105.524 151.838,104.672 154.959,104.192 C154.032,102.514 150.183,98.531 148.975,97.950 ZM156.217,107.909 C152.621,108.233 149.195,108.542 145.451,108.880 C145.214,111.322 144.927,113.702 144.767,116.090 C144.633,118.074 144.700,120.071 144.585,122.057 C144.393,125.375 143.932,128.689 143.948,132.002 C143.963,135.077 144.375,138.160 144.773,141.219 C144.951,142.586 145.106,144.048 146.210,145.438 C147.637,142.724 149.007,140.202 150.300,137.640 C152.576,133.131 153.960,128.308 154.978,123.396 C155.674,120.039 156.119,116.625 156.545,113.220 C156.770,111.423 157.049,109.558 156.217,107.909 ZM204.789,151.274 C204.537,150.540 204.781,149.285 203.289,149.179 C203.227,149.602 202.975,150.165 203.144,150.357 C203.927,151.242 203.962,152.221 203.844,153.297 C203.827,153.446 204.264,153.644 204.813,154.069 C204.827,152.897 205.040,152.006 204.789,151.274 ZM208.174,136.798 C208.279,137.954 208.455,138.873 208.419,139.782 C208.384,140.637 208.126,141.483 207.882,142.781 C210.061,140.049 209.464,138.311 208.174,136.798 ZM243.881,97.011 C242.550,96.429 241.814,96.894 241.868,98.392 C241.910,99.573 242.155,100.748 242.340,102.155 C245.274,100.755 244.712,99.978 244.903,97.635 C244.575,97.431 244.250,97.172 243.881,97.011 ZM249.268,142.433 C248.661,142.666 248.105,142.880 247.440,143.136 C246.659,141.767 245.905,140.446 245.063,138.969 C242.816,144.395 238.681,148.908 237.818,155.040 C239.265,155.766 240.711,155.934 242.222,155.752 C245.743,155.330 249.213,154.777 251.823,152.012 C251.594,151.756 251.383,151.520 251.158,151.268 C252.086,150.888 252.881,150.562 253.768,150.199 C252.793,147.173 250.949,144.902 249.268,142.433 ZM273.322,29.077 C273.168,31.801 273.401,34.374 273.918,36.915 C274.655,40.532 275.473,44.132 276.276,47.826 C278.643,42.363 277.052,31.812 273.322,29.077 ZM280.134,100.738 C279.643,101.626 279.037,102.552 280.341,103.109 C280.272,102.319 280.203,101.528 280.134,100.738 ZM280.796,109.398 C280.058,107.316 280.323,105.225 280.342,103.128 C280.342,103.125 280.342,103.121 280.341,103.118 C279.915,103.078 279.488,103.037 279.031,102.994 C278.901,104.914 278.646,106.656 278.699,108.388 C278.782,111.049 279.068,113.705 279.303,116.360 C279.321,116.562 279.613,116.740 279.778,116.929 C279.470,117.351 279.089,117.739 278.871,118.203 C278.580,118.823 279.555,118.677 279.547,119.119 C279.534,119.797 279.505,120.486 279.366,121.146 C279.120,122.320 279.182,123.465 279.425,124.640 C279.823,124.043 280.009,123.421 280.218,122.807 C280.459,122.099 280.919,121.402 280.932,120.694 C280.959,119.149 280.768,117.598 280.636,116.053 C280.631,115.997 280.303,115.968 280.126,115.926 C280.548,114.860 280.970,113.793 281.441,112.600 C281.143,112.372 280.841,112.141 280.546,111.915 C280.648,111.067 281.050,110.116 280.796,109.398 ZM340.630,64.865 C340.195,65.374 339.957,66.051 339.598,66.706 C337.410,67.067 335.815,68.087 335.002,70.411 C334.628,71.481 333.720,72.456 332.089,72.509 C330.556,72.559 329.768,74.083 329.087,75.323 C328.142,77.045 327.387,78.871 326.506,80.631 C326.308,81.026 325.929,81.331 325.500,81.832 C324.795,79.276 324.560,76.901 324.718,74.505 C325.032,69.746 325.979,65.096 327.469,60.569 C328.458,57.565 329.593,54.608 330.627,51.618 C330.873,50.908 331.007,50.155 331.135,49.412 C331.386,47.956 332.180,47.067 333.837,46.791 C335.495,48.702 337.801,49.497 340.303,49.824 C342.173,50.069 343.413,51.246 344.436,52.656 C344.809,53.169 345.094,53.981 344.981,54.574 C344.268,58.301 343.176,61.890 340.630,64.865 ZM115.466,122.793 C115.466,122.743 115.466,122.694 115.466,122.644 C115.482,122.703 115.492,122.762 115.509,122.822 C115.509,122.822 115.476,122.803 115.466,122.793 ZM115.456,118.853 C115.456,120.113 115.457,121.375 115.466,122.644 C115.110,121.393 114.998,120.134 115.456,118.853 ZM116.695,75.366 C116.729,75.606 116.764,75.845 116.799,76.085 C116.738,76.105 116.677,76.126 116.617,76.147 C116.617,75.889 116.617,75.631 116.617,75.373 C116.643,75.371 116.669,75.368 116.695,75.366 ZM117.071,81.187 C117.029,82.461 116.737,83.750 116.864,85.002 C117.119,87.513 116.283,89.634 114.698,91.592 C114.938,90.499 115.254,89.415 115.393,88.310 C115.490,87.532 115.569,86.618 115.255,85.955 C114.834,85.066 115.094,84.396 115.366,83.627 C115.840,82.286 116.283,80.935 116.874,79.189 C116.962,80.030 117.090,80.611 117.071,81.187 ZM117.540,104.170 C117.575,103.640 117.609,103.110 117.642,102.614 C117.487,102.549 117.381,102.502 117.380,102.504 C116.939,103.445 116.740,104.394 117.311,105.361 L117.330,105.370 C117.328,105.371 117.326,105.371 117.323,105.372 C117.318,105.376 117.314,105.380 117.309,105.385 C117.309,105.381 117.309,105.377 117.310,105.374 C116.705,105.494 116.095,105.364 116.147,104.676 C116.284,102.861 115.655,100.965 116.671,99.237 C116.397,98.962 115.857,98.644 115.893,98.419 C116.151,96.794 116.299,95.119 117.186,93.662 C117.396,96.192 118.343,98.697 117.201,101.218 C118.226,102.163 118.349,102.778 117.540,104.170 ZM117.309,105.385 C117.204,106.445 117.098,107.508 116.958,108.925 C115.809,107.053 115.890,106.589 117.309,105.385 Z" class="cls-2"/>
    <path d="M291.042,214.833 C290.890,214.885 290.649,214.682 290.415,214.583 C290.266,215.004 290.230,215.525 289.518,215.497 C288.782,215.468 288.876,214.902 288.660,214.358 C288.358,214.900 288.094,215.373 287.684,216.107 C287.590,215.615 287.553,215.417 287.516,215.219 C286.626,215.558 285.917,216.077 285.462,216.958 C285.250,217.367 284.818,217.653 284.410,217.153 C283.844,217.593 283.278,218.035 282.524,218.621 C282.611,219.230 282.204,219.892 281.343,220.378 C281.140,220.155 280.914,219.908 280.692,219.665 C279.725,220.301 278.919,221.070 278.035,221.738 C277.702,221.991 277.556,222.485 277.316,222.863 C277.017,223.335 276.935,224.054 276.114,223.945 C275.693,224.516 275.488,225.315 274.375,225.538 C274.609,225.099 274.740,224.855 274.871,224.610 C275.073,224.446 275.275,224.283 275.477,224.119 C275.687,224.049 275.897,223.980 276.107,223.910 C276.194,223.593 276.281,223.276 276.368,222.958 C276.245,222.925 276.122,222.891 275.999,222.858 C275.825,223.278 275.651,223.699 275.477,224.119 C275.275,224.283 275.073,224.446 274.871,224.610 C274.850,223.391 275.444,222.349 276.247,221.600 C277.583,220.356 279.129,219.336 280.578,218.210 C280.913,217.950 281.226,217.905 281.676,217.904 C282.747,217.901 283.383,217.148 283.786,216.231 C284.124,216.182 284.535,216.241 284.765,216.066 C285.304,215.655 285.758,215.132 286.246,214.655 L287.692,213.633 C288.005,213.041 288.351,212.465 288.623,211.855 C289.022,210.958 289.007,210.970 289.970,211.347 C290.324,211.485 290.748,211.448 291.104,211.487 C291.277,211.801 291.403,212.148 291.627,212.412 C292.284,213.190 292.000,214.502 291.042,214.833 ZM272.089,225.422 C272.081,225.426 272.071,225.429 272.063,225.433 C272.060,225.414 272.062,225.400 272.057,225.381 L272.094,225.415 C272.264,224.659 272.905,224.434 273.734,223.940 C273.411,224.910 273.178,225.605 272.887,226.476 C272.546,226.026 272.315,225.721 272.089,225.422 ZM271.123,227.003 C271.081,226.434 271.059,226.137 271.038,225.852 C271.407,225.703 271.737,225.569 272.063,225.433 C272.208,226.151 271.472,226.304 271.123,227.003 ZM269.198,232.240 C268.910,231.319 269.666,230.339 268.805,229.638 C269.037,229.406 269.319,229.202 269.471,228.927 C269.682,228.542 269.370,228.536 269.118,228.515 C269.432,228.050 269.746,227.586 270.060,227.122 C270.168,227.154 270.275,227.186 270.383,227.219 C270.355,227.720 270.508,228.344 270.264,228.698 C269.541,229.750 269.480,230.951 269.198,232.240 ZM269.047,228.571 C269.052,228.551 269.057,228.530 269.062,228.509 C269.080,228.511 269.100,228.513 269.118,228.515 C269.108,228.529 269.099,228.542 269.090,228.556 C269.076,228.561 269.061,228.567 269.047,228.571 ZM268.777,229.664 C268.778,229.658 268.780,229.651 268.781,229.645 C268.786,229.639 268.788,229.632 268.793,229.626 L268.777,229.664 ZM268.805,229.638 C268.796,229.647 268.785,229.655 268.777,229.664 C268.777,229.664 268.793,229.626 268.793,229.626 C268.798,229.629 268.800,229.634 268.805,229.638 ZM267.714,232.750 C267.391,234.374 267.728,235.959 267.970,237.542 C268.481,240.886 268.570,244.246 268.501,247.617 C268.490,248.125 268.518,248.633 268.492,249.140 C268.442,250.096 268.297,251.052 268.316,252.005 C268.344,253.428 268.351,254.870 268.599,256.263 C269.081,258.972 268.989,261.692 268.992,264.412 C268.992,265.073 268.751,265.735 268.441,266.376 C268.424,266.012 268.383,265.647 268.394,265.284 C268.408,264.797 268.554,264.291 267.986,263.968 C267.941,263.942 268.073,263.606 268.123,263.413 C267.885,263.453 267.559,263.314 267.535,263.754 C267.493,264.521 267.428,265.286 267.368,266.052 C267.307,266.827 267.242,267.602 267.177,268.377 C267.169,268.468 267.171,268.571 267.128,268.647 C266.939,268.984 266.734,269.314 266.535,269.646 C267.336,270.059 266.355,270.296 266.424,270.672 C266.497,271.069 266.433,271.503 266.366,271.910 C266.301,272.306 266.225,272.727 266.033,273.070 C265.334,274.323 264.590,275.550 263.848,276.779 C263.760,276.925 263.587,277.026 263.442,277.132 C262.171,278.057 260.731,278.606 259.217,278.980 C259.055,279.021 258.853,278.966 258.685,278.912 C257.855,278.643 257.032,278.766 256.201,278.910 C254.367,279.226 253.186,278.409 252.752,276.544 C252.975,276.511 253.318,276.370 253.405,276.463 C254.432,277.566 255.586,277.043 256.818,276.809 C256.757,276.062 257.090,275.559 257.759,275.290 C258.262,275.087 258.821,274.971 259.069,274.380 C259.086,274.340 259.479,274.457 259.588,274.479 C260.270,273.414 260.663,272.275 260.713,271.035 C260.714,270.994 260.750,270.950 260.778,270.914 C261.656,269.797 261.729,268.426 261.861,267.116 C261.915,266.586 262.454,265.947 261.796,265.407 C261.754,265.372 261.852,265.168 261.884,265.042 C262.394,265.305 262.318,265.061 262.337,264.648 C262.402,263.204 262.249,261.769 262.255,260.329 C262.255,260.206 262.178,259.972 262.148,259.974 C261.247,260.024 261.574,259.259 261.502,258.891 C261.230,257.500 261.042,256.091 260.876,254.682 C260.741,253.538 260.713,252.382 260.584,251.237 C260.287,248.622 259.957,246.011 259.641,243.396 C258.982,244.787 258.312,246.203 257.659,247.582 C257.615,247.444 257.555,247.254 257.451,246.930 C256.963,248.224 256.671,249.428 256.069,250.451 C255.650,251.163 255.530,251.812 255.551,252.571 C255.558,252.833 255.492,253.106 255.413,253.360 C255.216,253.986 254.988,254.602 254.780,255.225 C254.480,256.125 254.379,257.166 253.848,257.898 C253.015,259.047 252.585,260.273 252.339,261.618 C252.142,262.691 251.873,263.753 251.723,264.832 C251.578,265.872 251.469,266.928 251.476,267.977 C251.490,269.905 251.929,271.838 251.374,273.757 C250.298,272.475 250.131,270.920 250.181,269.363 C250.242,267.443 250.403,265.522 250.630,263.614 C250.736,262.723 251.152,261.874 251.333,260.986 C251.728,259.052 252.749,257.346 253.165,255.383 C253.588,253.393 254.278,251.378 255.540,249.629 C256.229,248.673 256.292,247.353 257.064,246.386 C257.369,246.004 257.637,245.594 257.936,245.207 C258.922,243.934 259.197,242.372 259.672,240.898 C259.783,240.555 259.558,240.107 259.496,239.706 C259.346,238.719 259.183,237.734 259.057,236.744 C258.889,235.426 258.734,234.106 258.604,232.783 C258.357,230.261 258.110,227.738 257.902,225.212 C257.686,222.589 257.517,219.962 257.320,217.337 C257.315,217.269 257.226,217.207 257.099,217.043 C256.851,217.718 256.588,218.326 256.402,218.956 C255.660,221.486 254.723,223.930 253.364,226.207 C253.196,226.488 253.171,226.915 253.221,227.253 C253.333,228.014 253.254,228.722 252.850,229.374 C252.728,229.571 252.526,229.720 252.355,229.884 C252.102,230.126 251.843,230.363 251.544,230.642 C251.246,230.557 250.897,230.457 250.493,230.342 C250.092,230.891 249.791,231.556 249.278,231.949 C248.423,232.603 247.468,233.411 246.334,233.174 C245.251,232.948 244.265,232.239 243.969,231.076 C243.164,227.909 242.396,224.734 242.073,221.465 C241.828,218.989 241.434,216.527 241.127,214.056 C241.007,213.095 240.942,212.127 240.714,211.119 C240.548,211.692 240.460,212.303 240.201,212.831 C239.556,214.148 239.062,215.519 238.619,216.908 C238.235,218.113 238.075,219.415 237.530,220.537 C236.552,222.549 236.059,224.673 235.549,226.818 C235.310,227.825 234.783,228.763 234.382,229.731 C234.352,229.804 234.294,229.907 234.233,229.921 C232.878,230.224 232.139,231.345 231.171,232.168 C229.938,233.217 228.617,232.930 227.566,231.740 C225.426,229.316 225.008,226.386 224.778,223.366 C224.603,221.074 224.402,218.783 224.276,216.488 C224.192,214.980 224.231,213.466 224.199,211.954 C224.137,209.056 224.065,206.157 223.992,203.259 C223.989,203.124 223.936,202.991 223.886,202.763 C223.217,203.562 222.546,204.278 221.978,205.067 C221.416,205.848 220.925,206.686 220.460,207.530 C219.986,208.390 219.480,209.253 219.166,210.174 C218.497,212.135 218.495,212.234 217.934,212.374 C217.797,213.101 217.709,213.802 217.528,214.478 C216.790,217.236 215.975,219.975 215.289,222.746 C215.019,223.840 215.014,224.998 214.852,226.452 C215.318,226.056 215.526,225.880 215.824,225.627 C215.874,225.966 215.932,226.225 215.946,226.488 C216.015,227.815 215.978,229.157 216.163,230.468 C216.336,231.696 215.813,232.396 214.818,232.915 C214.545,233.058 214.278,233.210 213.871,233.434 C213.947,233.002 214.003,232.686 214.056,232.376 L213.052,233.035 C211.888,232.814 212.200,233.938 211.927,234.510 C210.709,234.967 209.544,235.407 208.233,234.855 C207.168,231.672 206.861,228.350 206.780,224.982 C206.734,223.104 206.528,221.229 206.404,219.352 C206.207,216.373 206.019,213.394 205.822,210.416 C205.795,210.016 205.737,209.618 205.500,209.161 C205.141,209.932 204.649,210.670 204.447,211.479 C203.536,215.128 202.011,218.535 200.497,221.954 C199.361,224.519 198.093,227.051 197.600,229.836 C197.379,231.089 196.974,232.214 196.307,233.274 C196.008,233.749 195.710,234.187 195.098,234.336 C194.798,234.409 194.427,234.585 194.289,234.828 C194.129,235.110 194.045,235.188 193.704,235.176 C193.161,235.157 192.614,235.313 192.067,235.325 C191.764,235.331 191.459,235.195 191.064,235.102 C191.925,234.012 191.925,234.012 191.269,233.334 C191.253,232.908 192.357,232.999 191.798,232.302 C192.291,231.748 191.350,231.502 191.542,230.981 C191.731,230.995 191.940,231.011 192.248,231.034 C192.301,230.175 192.241,229.166 193.528,229.207 C193.777,228.333 194.024,227.466 194.272,226.596 C194.532,226.683 194.703,226.739 194.755,226.757 C196.848,224.403 196.092,221.396 196.885,218.743 C196.780,218.718 196.674,218.692 196.568,218.667 C196.381,219.409 196.137,220.143 196.023,220.896 C195.900,221.711 195.899,222.545 195.846,223.334 C195.514,223.504 195.230,223.649 194.942,223.795 C194.545,222.819 195.117,222.052 195.601,221.217 C195.323,221.021 195.072,220.846 194.877,220.709 C194.754,219.370 194.635,218.077 194.507,216.684 C194.272,216.752 194.072,216.810 193.872,216.868 C194.077,215.574 194.097,214.865 193.879,214.406 C193.877,215.304 193.874,216.085 193.872,216.865 C193.249,219.339 193.539,221.855 193.527,224.357 C193.524,224.909 193.479,225.462 193.441,226.013 C193.418,226.346 193.263,226.498 192.934,226.358 C192.855,226.142 192.683,225.884 192.751,225.737 C193.057,225.086 193.232,224.474 192.844,223.785 C192.748,223.616 192.840,223.337 192.857,223.109 C192.907,222.438 192.963,221.768 192.790,221.024 C192.586,221.318 192.382,221.612 192.021,222.133 C191.869,221.113 191.625,220.284 191.658,219.468 C191.690,218.678 191.733,217.925 191.365,217.142 C191.470,218.008 190.218,217.800 190.263,218.758 C190.296,219.473 189.856,220.211 189.600,221.024 C189.265,220.907 188.897,220.777 188.341,220.582 C186.944,223.513 185.543,226.440 184.156,229.375 C183.941,229.830 183.755,230.307 183.627,230.792 C183.284,232.104 182.650,233.149 181.343,233.742 C181.018,233.889 180.823,234.332 180.585,234.653 C180.244,235.114 179.943,235.452 179.220,235.260 C178.624,235.101 177.891,235.127 177.306,235.325 C176.076,235.742 175.474,234.905 174.861,234.216 C174.485,233.794 174.162,233.136 174.175,232.592 C174.229,230.248 173.528,227.951 173.870,225.583 C174.237,223.048 174.324,220.470 174.752,217.948 C175.071,216.064 175.674,214.218 176.270,212.393 C176.739,210.959 177.390,209.584 177.844,208.061 C177.517,208.372 177.160,208.658 176.870,209.000 C176.339,209.626 175.843,210.282 175.340,210.931 C174.592,211.897 173.833,212.855 173.112,213.841 C172.202,215.086 171.311,216.346 170.438,217.619 C168.981,219.743 168.039,222.116 167.153,224.513 C166.978,224.987 166.857,225.494 166.610,225.929 C166.134,226.769 166.038,227.642 166.066,228.590 C166.097,229.638 166.188,230.769 165.846,231.720 C165.459,232.799 164.641,233.732 163.959,234.692 C163.866,234.822 163.472,234.741 163.234,234.757 C162.899,235.348 162.578,235.992 162.187,236.590 C161.169,238.146 158.145,237.539 157.578,235.463 C156.965,233.214 156.707,230.948 156.403,228.662 C155.865,224.610 155.957,220.554 156.070,216.493 C156.131,214.324 156.224,212.156 156.299,209.988 C156.311,209.642 156.303,209.295 156.304,208.949 C156.209,208.928 156.114,208.907 156.019,208.886 C155.751,209.292 155.425,209.670 155.224,210.106 C154.085,212.579 152.944,215.051 151.872,217.553 C151.365,218.735 151.009,219.981 150.587,221.200 C150.558,221.283 150.508,221.401 150.542,221.459 C150.958,222.168 150.359,222.655 150.235,223.245 C150.118,223.798 149.618,224.041 149.574,224.512 C149.535,224.916 149.843,225.434 149.682,225.732 C148.828,227.307 148.518,229.277 146.567,230.125 C146.564,231.193 146.560,232.251 146.562,233.308 C146.562,233.339 146.645,233.401 146.659,233.393 C146.721,233.359 146.773,233.308 146.828,233.262 C147.134,234.631 146.465,235.823 146.121,237.168 C146.010,236.862 145.929,236.639 145.815,236.323 C145.442,236.605 144.913,236.798 144.850,237.090 C144.600,238.244 143.717,236.945 143.374,237.528 C143.331,237.463 143.302,237.372 143.241,237.337 C142.686,237.017 143.320,236.047 142.447,235.907 C142.666,235.382 142.343,234.837 142.710,234.226 C143.029,233.694 142.763,232.814 142.756,232.088 C143.094,232.709 143.431,233.329 143.769,233.948 C143.659,232.795 143.281,231.728 143.396,230.584 C143.447,230.081 143.454,229.567 143.412,229.065 C143.355,228.387 143.724,227.621 143.035,227.059 C143.546,226.419 143.099,225.731 143.099,225.075 C143.100,223.517 142.971,221.959 142.895,220.401 C142.424,221.747 142.451,223.108 142.576,224.466 C142.803,226.933 142.670,229.368 142.021,231.767 C141.941,231.471 141.783,231.173 141.792,230.880 C141.837,229.548 142.003,228.216 141.973,226.887 C141.957,226.181 141.632,225.482 141.398,224.598 C141.242,224.891 141.155,225.052 141.065,225.221 C140.556,223.906 140.699,222.537 140.650,221.181 C140.624,220.458 140.419,219.742 140.314,219.020 C140.250,218.572 140.170,218.118 140.186,217.669 C140.232,216.341 140.332,215.014 140.383,213.686 C140.390,213.480 140.310,213.166 140.164,213.077 C139.522,212.691 139.598,212.068 139.548,211.483 C139.439,210.201 139.353,208.917 139.233,207.636 C139.203,207.321 139.082,207.014 138.951,206.499 C138.598,207.232 138.350,207.828 138.033,208.386 C137.328,209.626 136.586,210.847 135.864,212.077 C135.794,212.195 135.737,212.325 135.702,212.457 C134.974,215.222 134.178,217.973 133.560,220.763 C133.314,221.869 133.349,223.074 133.464,224.213 C133.636,225.917 133.695,227.584 133.402,229.290 C133.246,230.201 133.481,231.179 133.542,232.126 C133.593,232.909 133.687,233.693 133.680,234.475 C133.676,234.824 133.471,235.171 133.358,235.518 C133.248,235.507 133.139,235.495 133.030,235.483 C132.909,234.659 132.789,233.835 132.640,232.814 C132.295,233.958 132.013,234.894 131.732,235.830 C131.654,235.816 131.576,235.803 131.498,235.790 C131.337,235.366 131.176,234.942 130.936,234.310 C130.602,234.541 130.174,234.679 130.114,234.911 C129.979,235.431 129.867,235.798 129.218,235.611 C129.199,235.606 129.114,235.863 129.045,235.990 C128.718,236.596 128.393,237.204 128.047,237.799 C128.008,237.868 127.846,237.861 127.746,237.901 C126.907,238.232 125.927,237.947 125.123,238.529 C124.967,238.642 124.534,238.377 124.162,238.266 C124.200,237.027 123.500,235.992 123.284,234.798 C122.565,230.834 122.352,226.830 122.213,222.824 C122.060,218.397 121.971,213.965 121.992,209.536 C122.003,207.142 122.309,204.750 122.467,202.357 C122.516,201.620 122.515,200.880 122.536,200.142 C122.568,199.026 122.941,198.585 124.022,198.399 C124.522,198.312 125.024,198.184 125.528,198.169 C127.147,198.118 128.212,198.972 128.967,200.322 C129.994,202.158 130.453,204.177 130.936,206.191 C131.418,208.196 131.915,210.197 132.453,212.392 C132.718,212.038 132.920,211.824 133.059,211.575 C134.866,208.336 136.765,205.163 139.221,202.349 C139.729,201.767 140.070,201.033 140.439,200.342 C140.980,199.329 141.081,199.324 142.285,199.623 C143.205,199.852 144.166,199.924 145.111,200.051 C146.657,200.259 147.691,201.095 147.985,202.616 C148.263,204.048 148.377,205.512 148.558,206.962 C148.586,207.186 148.590,207.413 148.616,207.804 C148.880,207.654 149.044,207.561 149.195,207.475 C149.495,209.602 149.801,211.771 150.106,213.941 C150.195,213.949 150.284,213.956 150.372,213.964 C151.005,212.799 151.663,211.647 152.264,210.466 C153.355,208.322 154.408,206.160 155.488,204.010 C155.674,203.640 155.951,203.312 156.115,202.934 C156.271,202.575 156.404,202.179 156.421,201.794 C156.467,200.782 156.822,200.346 157.759,200.651 C158.592,200.922 159.303,200.723 160.067,200.585 C161.301,200.363 162.355,201.083 162.663,202.286 C162.901,203.213 163.134,204.159 163.526,205.027 C164.213,206.547 164.235,208.185 164.400,209.767 C164.788,213.479 164.955,217.213 165.238,220.937 C165.278,221.470 165.461,221.992 165.639,222.794 C166.401,221.533 167.058,220.501 167.661,219.439 C170.067,215.197 172.959,211.299 176.149,207.620 C177.723,205.805 179.431,204.104 181.052,202.328 C181.736,201.577 182.364,200.774 182.997,199.978 C183.434,199.427 183.886,199.224 184.656,199.368 C186.229,199.662 187.802,199.848 188.813,201.463 C189.136,200.512 189.410,199.703 189.690,198.879 C190.693,198.939 191.442,199.138 192.192,199.755 C193.917,201.176 194.972,202.938 195.509,205.060 C195.857,206.439 196.257,207.806 196.559,209.195 C196.715,209.908 196.728,210.655 196.767,211.388 C196.797,211.968 196.770,212.552 196.987,213.157 C197.069,213.016 197.150,212.874 197.269,212.668 C197.840,214.278 196.947,215.811 197.165,217.412 C197.371,218.923 196.975,220.515 196.939,222.084 C197.985,220.569 197.126,218.719 197.804,217.117 C198.810,217.125 198.462,217.950 198.726,218.511 C199.379,217.048 200.060,215.597 200.680,214.120 C202.127,210.669 203.506,207.190 204.995,203.757 C205.619,202.318 205.979,200.891 205.645,199.254 C205.963,199.133 206.301,198.870 206.527,198.944 C207.505,199.263 208.448,198.943 209.405,198.914 C210.501,198.881 211.240,199.458 211.514,200.507 C211.816,201.660 212.109,202.816 212.439,203.962 C213.452,207.476 213.959,211.068 214.164,214.711 C214.183,215.052 214.302,215.388 214.436,216.007 C215.374,214.039 216.179,212.339 216.994,210.644 C218.528,207.456 220.530,204.533 222.262,201.458 C222.668,200.737 223.007,199.977 223.338,199.219 C223.757,198.258 224.349,197.898 225.387,198.049 C225.709,198.096 226.026,198.203 226.348,198.217 C228.519,198.307 229.598,199.655 230.373,201.489 C231.120,203.257 231.313,205.140 231.752,206.972 C232.503,210.103 233.269,213.230 233.995,216.366 C234.306,217.705 234.528,219.065 234.802,220.412 C234.854,220.669 234.965,220.915 235.112,221.355 C235.425,220.751 235.686,220.333 235.868,219.883 C237.445,216.005 239.013,212.124 240.564,208.235 C240.695,207.905 240.734,207.520 240.735,207.161 C240.746,205.225 240.707,203.289 240.748,201.355 C240.756,200.987 240.965,200.541 241.228,200.278 C241.829,199.680 242.521,199.299 243.465,199.281 C244.960,199.252 246.312,199.648 247.560,200.365 C248.501,200.906 248.942,201.872 248.966,202.934 C249.025,205.524 249.554,208.044 250.017,210.576 C250.264,211.930 250.399,213.309 250.737,214.639 C251.257,216.686 251.905,218.702 252.508,220.728 C252.543,220.844 252.663,220.936 252.860,221.189 C253.391,220.062 253.871,219.027 254.368,217.999 C255.091,216.502 255.798,214.996 256.568,213.522 C257.092,212.519 257.362,211.486 257.456,210.356 C257.684,207.602 258.016,204.856 258.281,202.105 C258.356,201.330 258.318,200.544 258.379,199.766 C258.410,199.366 258.476,198.939 258.652,198.587 C258.857,198.181 259.354,197.935 259.705,198.258 C260.469,198.960 261.381,198.709 262.221,198.753 C263.164,198.802 263.946,199.034 264.552,199.767 C264.640,199.874 264.751,199.962 264.855,200.055 C267.045,202.023 267.083,202.022 267.126,204.996 C267.156,207.043 267.659,209.001 267.995,210.996 C268.261,212.575 268.239,214.205 268.306,215.814 C268.394,217.958 268.104,220.098 268.289,222.253 C268.370,223.189 268.015,224.159 267.888,225.118 C267.715,226.425 267.571,227.736 267.402,229.152 C267.987,228.945 268.517,228.758 269.047,228.571 C268.959,228.929 268.870,229.287 268.781,229.645 C268.083,230.563 267.930,231.662 267.714,232.750 ZM268.124,263.408 C268.125,262.913 268.126,262.418 268.128,261.715 C267.588,262.462 267.589,262.961 268.124,263.408 ZM141.408,222.461 C141.367,222.464 141.326,222.468 141.285,222.472 C141.285,222.741 141.284,223.009 141.283,223.278 C141.354,223.292 141.425,223.305 141.496,223.318 C141.466,223.032 141.437,222.746 141.408,222.461 ZM142.897,217.753 C142.896,218.333 142.894,218.914 142.891,219.804 C143.469,218.938 143.163,218.343 142.897,217.753 ZM146.329,235.274 C146.399,235.255 146.468,235.235 146.537,235.216 C146.449,234.856 146.361,234.496 146.272,234.136 C146.170,234.171 146.068,234.206 145.966,234.241 C146.087,234.585 146.208,234.929 146.329,235.274 ZM146.140,232.868 C146.141,232.517 146.141,232.224 146.143,231.814 C145.467,232.246 145.492,232.540 146.140,232.868 ZM145.623,230.608 C145.214,229.018 145.424,227.381 144.971,225.788 C144.679,228.030 144.662,230.270 145.217,232.501 C145.456,231.873 145.770,231.181 145.623,230.608 ZM146.867,217.868 C146.867,217.708 146.643,217.548 146.340,217.145 C146.186,219.552 146.052,221.655 145.918,223.758 C146.002,223.785 146.086,223.812 146.170,223.838 C146.255,223.595 146.374,223.358 146.420,223.107 C146.560,222.333 146.549,221.508 146.825,220.789 C147.210,219.789 146.869,218.838 146.867,217.868 ZM147.986,216.566 C148.007,216.897 148.029,217.228 148.051,217.559 C148.149,217.558 148.246,217.558 148.344,217.557 C148.364,217.226 148.384,216.895 148.404,216.564 C148.264,216.565 148.125,216.565 147.986,216.566 ZM189.052,212.993 C188.901,211.534 188.788,210.068 188.727,208.603 C188.676,207.365 188.723,206.124 188.727,204.777 C188.469,204.989 188.294,205.133 188.114,205.281 C187.991,205.087 187.900,204.944 187.778,204.753 C186.595,205.630 186.161,206.954 185.760,208.180 C185.032,210.404 184.537,212.705 183.975,214.981 C183.535,216.761 183.081,218.541 182.743,220.341 C182.497,221.651 182.399,222.991 182.295,224.323 C182.230,225.153 182.278,225.992 182.276,226.827 C182.395,226.858 182.515,226.889 182.634,226.920 C184.268,224.354 186.025,221.855 187.493,219.198 C188.531,217.317 189.287,215.256 189.052,212.993 ZM189.311,210.662 C189.309,211.559 189.306,212.457 189.303,213.355 C189.373,213.355 189.442,213.355 189.511,213.355 C189.514,212.468 189.517,211.581 189.519,210.694 C189.450,210.683 189.381,210.672 189.311,210.662 ZM214.327,231.206 C214.261,231.559 214.195,231.913 214.129,232.266 C214.736,232.110 214.715,231.720 214.327,231.206 ZM264.221,258.523 C264.223,257.870 264.237,257.272 264.222,256.674 C264.210,256.168 264.355,255.506 264.093,255.189 C263.524,254.502 263.760,253.803 263.752,253.096 C263.741,252.000 264.146,250.970 264.198,249.853 C264.269,248.322 264.365,246.874 263.686,245.431 C263.116,245.482 262.584,245.530 261.947,245.587 C262.012,246.678 262.025,247.593 262.133,248.498 C262.222,249.236 262.495,249.955 262.555,250.693 C262.618,251.464 262.446,252.255 262.523,253.022 C262.573,253.513 262.758,253.991 262.927,254.470 C262.856,254.117 262.967,253.766 263.520,253.375 C263.313,254.002 263.179,254.411 263.048,254.822 C263.050,254.828 263.052,254.833 263.054,254.839 L263.048,254.838 C262.936,254.989 262.715,255.150 262.729,255.290 C262.905,257.146 263.022,258.999 262.881,260.868 C262.834,261.488 263.102,262.131 263.059,262.753 C262.965,264.113 262.744,265.465 262.616,266.824 C262.559,267.417 262.603,268.020 262.601,268.619 C262.649,268.616 262.698,268.613 262.746,268.610 C262.979,267.424 263.212,266.239 263.445,265.054 C263.505,265.056 263.566,265.057 263.627,265.059 C263.791,265.604 263.955,266.149 264.173,266.875 C265.156,264.164 264.714,261.478 265.189,258.861 C264.819,258.732 264.543,258.635 264.221,258.523 ZM265.485,247.668 C265.315,248.277 265.183,248.754 265.050,249.231 C265.736,248.681 265.736,248.681 265.485,247.668 ZM265.646,254.884 C265.073,256.556 265.146,258.207 265.809,259.831 C265.847,258.182 266.038,256.530 265.646,254.884 ZM266.583,228.487 C266.657,228.960 266.443,229.494 266.991,230.034 C267.242,229.324 266.977,228.892 266.583,228.487 ZM266.545,236.270 C266.521,236.636 266.688,237.015 266.785,237.389 C266.908,235.842 267.031,234.295 267.154,232.747 C266.781,233.904 266.621,235.085 266.545,236.270 ZM267.151,239.750 C266.729,239.057 267.563,238.151 266.804,237.505 C266.800,238.653 266.797,239.802 266.793,241.041 C267.488,240.593 267.357,241.131 267.465,241.365 C267.629,240.515 267.621,240.520 267.151,239.750 ZM192.926,226.408 C192.915,226.388 192.912,226.368 192.899,226.347 C192.913,226.354 192.921,226.352 192.934,226.358 C192.937,226.368 192.944,226.379 192.947,226.389 C192.939,226.396 192.934,226.401 192.926,226.408 ZM192.792,228.148 C192.217,227.077 192.214,227.061 192.926,226.408 C193.275,227.009 193.178,227.583 192.792,228.148 ZM146.838,233.254 C146.834,233.257 146.831,233.259 146.828,233.262 C146.826,233.253 146.828,233.245 146.826,233.236 L146.838,233.254 ZM146.839,233.253 C146.839,233.254 146.838,233.254 146.838,233.254 C146.838,233.254 146.826,233.236 146.832,233.242 C146.834,233.245 146.837,233.249 146.839,233.253 ZM147.095,231.665 C147.531,231.890 147.571,231.507 147.875,230.974 C147.907,231.850 147.913,232.448 147.954,233.043 C147.996,233.668 148.070,234.292 147.961,234.970 C147.589,234.400 147.216,233.829 146.839,233.253 C146.987,233.122 147.256,232.991 147.257,232.858 C147.260,232.461 147.157,232.063 147.095,231.665 Z" class="cls-3"/>
    <path d="M58.971,314.517 C58.992,315.278 59.013,316.040 59.034,316.801 C58.930,316.800 58.826,316.798 58.723,316.797 C58.779,316.038 58.835,315.278 58.890,314.519 C58.917,314.518 58.944,314.518 58.971,314.517 ZM59.901,313.987 C59.978,313.971 60.055,313.955 60.132,313.939 C60.236,314.385 60.339,314.832 60.443,315.279 C60.305,315.299 60.167,315.319 60.029,315.339 C59.986,314.888 59.943,314.438 59.901,313.987 ZM61.298,310.553 C61.454,310.572 61.610,310.590 61.766,310.608 C61.632,311.140 61.499,311.672 61.366,312.204 C61.242,312.176 61.118,312.149 60.993,312.121 C61.095,311.599 61.196,311.076 61.298,310.553 ZM375.895,302.730 C372.850,303.093 369.696,303.044 366.713,304.158 C363.827,305.236 360.955,306.305 358.276,307.847 C355.563,309.409 352.751,310.815 350.548,312.811 C352.023,316.893 353.465,320.868 354.894,324.847 C355.667,326.999 355.684,328.703 355.015,331.659 C353.057,332.125 351.361,332.922 350.235,334.696 C349.810,335.365 349.448,336.232 348.361,336.174 C348.203,336.165 347.995,336.515 347.860,336.731 C347.306,337.614 346.801,338.458 345.518,338.475 C344.968,338.482 344.400,338.926 343.882,339.241 C342.684,339.969 341.553,340.817 340.313,341.464 C339.464,341.906 338.491,342.135 337.552,342.379 C336.140,342.746 334.703,343.016 333.289,343.375 C331.885,343.731 330.596,343.268 329.334,342.825 C327.825,342.296 327.005,341.088 326.551,339.596 C326.268,338.666 326.037,337.695 325.584,336.847 C324.295,334.431 324.501,332.056 325.806,329.805 C326.727,328.216 327.846,326.714 329.047,325.318 C331.702,322.233 334.495,319.271 337.738,316.828 C335.106,311.101 332.498,305.427 329.809,299.574 C329.262,300.496 328.644,301.313 328.259,302.227 C326.578,306.211 323.807,309.437 321.029,312.655 C319.148,314.835 317.113,316.889 315.313,319.131 C313.625,321.232 312.388,323.634 311.055,325.983 C309.714,328.343 309.114,331.155 306.952,333.073 C306.507,333.468 306.511,334.329 306.199,334.918 C305.896,335.489 305.558,336.290 305.053,336.462 C303.343,337.046 302.375,338.257 301.602,339.843 C300.956,339.476 300.429,339.084 299.578,339.741 C297.386,341.433 295.970,341.060 294.271,339.513 C292.818,338.189 291.790,336.730 291.637,334.658 C291.439,331.971 290.920,329.307 290.713,326.620 C290.583,324.934 290.796,323.224 290.808,321.524 C290.813,320.727 290.641,319.929 290.663,319.134 C290.744,316.183 290.888,313.234 290.979,310.283 C291.057,307.723 291.095,305.161 291.158,302.223 C290.254,303.040 289.408,303.568 288.888,304.319 C287.386,306.488 285.991,308.731 284.604,310.975 C283.830,312.228 283.270,313.623 282.409,314.808 C281.061,316.664 280.919,318.778 281.217,320.818 C281.749,324.453 281.562,328.036 281.151,331.641 C281.046,332.559 280.896,333.484 280.927,334.401 C280.981,336.021 280.295,337.053 278.759,337.548 C278.529,337.622 278.304,337.714 278.034,337.813 C277.881,338.462 277.731,339.095 277.566,339.787 C276.861,339.412 276.223,339.073 275.403,338.636 C275.419,339.104 275.426,339.330 275.438,339.694 C275.041,339.631 274.660,339.571 274.128,339.487 C273.996,339.858 273.821,340.346 273.639,340.855 C273.037,341.039 272.398,341.235 271.790,341.422 C271.517,341.113 271.297,340.725 270.965,340.510 C269.351,339.469 268.874,337.787 269.174,336.180 C269.455,334.679 268.953,333.465 268.683,332.134 C268.563,331.539 268.438,330.931 268.440,330.330 C268.452,326.638 268.491,322.946 268.539,319.255 C268.581,316.078 268.690,312.902 268.690,309.726 C268.689,307.664 268.546,305.602 268.453,303.195 C267.618,303.748 267.024,304.125 266.449,304.528 C266.047,304.809 265.701,305.179 265.279,305.420 C263.596,306.378 263.268,306.987 263.662,308.797 C263.871,309.754 264.214,310.682 264.426,311.639 C265.203,315.149 265.513,318.677 264.650,322.221 C264.214,324.011 263.659,325.776 263.285,327.579 C263.003,328.944 262.242,330.011 261.488,331.109 C260.584,332.423 259.692,333.746 258.776,335.052 C258.569,335.345 258.328,335.665 258.025,335.833 C256.322,336.778 254.635,337.767 252.865,338.572 C251.329,339.271 249.804,340.134 247.945,339.729 C247.503,339.633 246.935,340.111 246.221,340.411 C245.426,340.174 244.386,339.797 243.314,339.570 C242.607,339.420 241.833,339.356 241.126,339.475 C237.999,339.997 237.906,340.021 234.990,339.121 C234.876,338.307 234.760,337.418 234.624,336.533 C234.447,335.382 233.325,335.540 232.539,334.883 C232.526,335.475 232.519,335.830 232.506,336.422 C231.671,335.217 233.270,333.944 231.940,333.008 C231.762,333.411 231.590,333.799 231.419,334.188 C231.340,334.155 231.261,334.123 231.183,334.090 C231.306,333.702 231.503,333.320 231.534,332.925 C231.580,332.346 231.521,331.757 231.472,331.175 C231.458,331.004 231.262,330.841 231.264,330.675 C231.289,327.825 230.025,325.236 229.607,322.484 C229.415,321.223 229.544,319.912 229.557,318.623 C229.574,317.044 229.621,315.466 229.664,313.519 C229.322,313.946 229.208,314.089 229.077,314.253 C229.012,313.905 228.950,313.572 228.881,313.204 C228.723,313.277 228.600,313.294 228.549,313.364 C225.479,317.515 222.672,321.842 220.199,326.364 C218.229,329.968 216.837,333.833 215.771,337.804 C215.645,338.273 215.424,338.725 215.355,339.200 C215.001,341.630 213.369,342.745 211.175,343.300 C210.397,343.497 209.625,343.752 208.834,343.852 C207.077,344.074 206.114,343.481 205.324,341.848 C204.952,341.079 204.504,340.345 204.158,339.565 C202.543,335.931 202.413,332.028 202.305,328.168 C202.135,322.079 202.188,315.984 202.141,309.892 C202.140,309.738 202.075,309.584 201.985,309.192 C201.574,309.813 201.220,310.224 201.000,310.697 C199.662,313.574 198.435,316.506 197.011,319.340 C195.614,322.120 194.912,325.099 194.075,328.052 C193.761,329.163 193.357,330.297 192.742,331.262 C191.856,332.651 192.067,334.272 191.499,335.721 C190.739,337.659 190.170,339.670 189.468,341.632 C189.211,342.352 188.810,343.021 188.365,343.940 C188.025,343.998 187.494,344.608 186.767,344.116 C186.088,346.146 185.420,346.562 182.898,346.498 C178.677,340.554 178.344,333.717 178.299,326.535 C178.073,326.828 177.970,326.962 177.656,327.369 C177.840,324.211 178.107,321.309 178.151,318.404 C178.195,315.516 178.832,312.603 178.170,309.730 C178.038,309.717 177.907,309.704 177.775,309.691 C177.004,312.268 176.286,314.862 175.450,317.418 C174.171,321.329 172.756,325.197 171.507,329.117 C170.764,331.447 169.684,333.681 169.519,336.194 C169.478,336.814 169.206,337.301 169.417,338.053 C169.721,339.138 168.591,339.039 167.906,339.058 C167.621,339.865 167.494,340.701 167.062,341.330 C166.520,342.120 165.843,342.970 165.017,343.382 C163.750,344.012 162.253,344.042 161.039,344.999 C160.049,345.780 159.400,344.372 158.503,344.154 C157.872,344.001 157.378,343.257 156.846,342.752 C156.677,342.593 156.514,342.369 156.469,342.149 C156.052,340.110 155.501,338.080 155.301,336.018 C154.969,332.590 154.937,329.133 154.646,325.700 C154.400,322.783 154.671,319.799 153.507,316.641 C152.964,317.867 152.482,318.858 152.081,319.880 C150.603,323.644 149.153,327.420 147.686,331.188 C147.557,331.518 147.459,331.942 147.204,332.128 C145.161,333.618 145.187,335.617 145.715,337.763 C145.743,337.878 145.714,338.006 145.707,338.326 C144.329,338.233 143.353,339.631 141.781,339.233 C141.403,339.137 140.784,339.653 140.391,340.012 C138.987,341.293 137.173,341.572 135.454,341.988 C134.080,342.321 131.877,340.549 131.692,339.094 C131.312,336.117 130.804,333.137 130.716,330.147 C130.564,324.923 130.685,319.690 131.980,314.567 C132.083,314.160 132.140,313.740 131.914,313.138 C130.646,314.753 129.349,316.347 128.114,317.987 C124.790,322.401 122.744,327.494 120.429,332.442 C119.525,334.374 118.586,336.296 117.811,338.280 C117.240,339.743 116.030,340.425 114.803,341.056 C113.223,341.868 111.565,342.540 109.910,343.198 C106.936,344.380 105.049,343.741 103.218,341.117 C101.697,338.939 101.043,336.414 100.438,333.928 C99.627,330.594 99.122,327.172 99.362,323.717 C99.524,321.385 99.769,319.051 100.139,316.745 C100.723,313.107 100.920,309.391 102.218,305.890 C103.050,303.643 103.908,301.406 104.770,299.122 C104.710,299.111 104.499,299.004 104.401,299.068 C102.446,300.349 100.497,301.638 98.564,302.952 C97.913,303.394 97.627,304.024 97.613,304.846 C97.591,306.099 97.427,307.349 97.366,308.602 C97.322,309.519 97.452,310.455 96.725,311.217 C96.579,311.370 96.584,311.678 96.545,311.919 C96.215,313.958 96.023,316.030 95.537,318.031 C94.679,321.562 93.619,325.044 92.688,328.557 C91.965,331.284 91.295,334.025 90.649,336.771 C90.597,336.993 90.909,337.301 91.084,337.629 C90.565,338.056 89.725,338.294 89.915,339.399 C89.982,339.786 89.322,340.393 88.875,340.754 C87.373,341.967 85.916,343.232 84.438,344.466 C83.455,345.286 82.023,345.651 80.733,346.008 C79.302,346.405 78.137,345.649 76.998,344.817 C75.001,343.360 73.175,341.751 71.848,339.653 C71.458,339.035 71.075,338.354 70.930,337.653 C70.461,335.384 70.107,333.092 69.703,330.810 C68.977,326.707 69.167,322.607 69.726,318.505 C69.819,317.825 69.834,317.135 69.684,316.403 C68.195,318.192 67.231,320.220 66.284,322.239 C64.666,325.688 63.143,329.182 61.614,332.673 C60.802,334.525 60.068,336.411 59.287,338.277 C59.098,338.726 58.949,339.242 58.623,339.572 C58.111,340.091 57.945,340.655 57.825,341.353 C57.416,343.728 54.472,346.653 52.070,346.978 C51.204,347.095 50.246,346.840 49.390,346.568 C49.105,346.478 48.965,345.819 48.835,345.397 C48.680,344.894 48.774,344.222 48.471,343.874 C46.751,341.901 46.446,339.422 46.206,337.053 C45.626,331.300 45.553,325.518 45.680,319.730 C45.756,316.307 45.431,312.876 45.463,309.451 C45.486,306.994 45.800,304.538 45.989,302.083 C46.109,300.518 46.239,298.954 46.364,297.390 C46.240,297.357 46.115,297.325 45.990,297.292 C45.770,297.702 45.514,298.097 45.335,298.523 C43.645,302.541 41.958,306.561 40.293,310.590 C39.895,311.554 39.674,312.599 39.203,313.522 C38.593,314.720 37.843,315.851 37.088,316.968 C36.866,317.297 36.454,317.627 36.080,317.697 C35.516,317.801 34.710,317.892 34.376,317.588 C34.038,317.280 33.909,316.387 34.101,315.918 C34.939,313.873 35.969,311.908 36.851,309.879 C38.026,307.177 39.216,304.476 40.242,301.716 C42.129,296.638 43.977,291.544 45.696,286.408 C47.276,281.684 48.752,276.936 49.164,271.906 C49.559,267.070 50.122,262.248 51.229,257.495 C52.200,253.328 52.787,249.072 53.763,244.906 C54.461,241.926 55.520,239.031 56.452,235.988 C57.365,236.049 57.977,236.114 58.590,236.128 C60.334,236.165 60.968,236.834 60.926,238.611 C60.890,240.144 60.822,241.679 60.852,243.211 C60.869,244.127 60.966,245.058 61.169,245.950 C61.687,248.227 62.354,250.471 62.826,252.757 C63.134,254.255 63.296,255.797 63.368,257.327 C63.656,263.520 64.257,269.708 63.770,275.917 C63.637,277.607 63.278,279.296 63.153,280.950 C63.040,282.444 62.274,283.898 62.815,285.528 C63.131,286.482 63.057,287.701 62.523,288.818 C62.191,288.507 61.948,288.281 61.722,288.070 C61.600,288.137 61.518,288.155 61.506,288.193 C61.154,289.388 60.642,290.567 60.508,291.787 C60.355,293.174 60.360,294.533 59.169,295.521 C59.085,295.592 59.012,295.719 59.000,295.827 C58.681,298.766 56.405,301.203 56.799,304.323 C56.032,305.584 56.170,307.015 56.018,308.394 C55.722,311.057 56.026,313.781 55.162,316.388 C54.917,317.125 54.798,317.904 54.621,318.664 C54.752,318.758 54.883,318.852 55.014,318.946 C55.016,318.711 55.018,318.477 55.020,318.242 C55.180,318.310 55.339,318.378 55.499,318.446 C55.537,320.221 55.607,321.997 55.607,323.772 C55.606,327.314 55.552,330.857 55.563,334.399 C55.564,334.833 55.828,335.267 56.043,335.924 C56.270,335.449 56.495,335.191 56.503,334.927 C56.597,331.756 56.597,328.581 56.749,325.414 C56.781,324.757 56.857,324.102 56.922,323.446 C56.870,323.431 56.817,323.416 56.765,323.401 C56.904,322.588 57.043,321.775 57.181,320.962 C57.246,320.427 57.312,319.893 57.369,319.358 C57.494,319.360 57.620,319.362 57.745,319.365 C57.780,323.513 57.815,327.661 57.854,332.248 C58.201,331.811 58.462,331.556 58.630,331.324 C58.315,330.574 58.432,329.818 58.528,329.039 C58.836,326.535 58.516,324.019 58.610,321.508 C58.651,320.423 58.792,319.437 59.673,318.693 C59.597,318.003 59.520,317.311 59.444,316.632 C60.479,316.442 60.503,317.028 60.394,317.584 C60.306,318.035 60.796,318.919 59.671,318.758 C59.408,321.993 59.132,325.226 58.892,328.462 C58.822,329.408 58.848,330.362 58.637,331.315 C58.700,331.227 58.751,331.141 58.785,331.051 C59.472,329.215 60.016,327.320 60.796,325.527 C61.371,324.206 62.261,323.024 62.964,321.754 C66.007,316.249 69.058,310.748 72.046,305.213 C72.653,304.088 72.940,302.798 73.473,301.629 C74.747,298.833 76.062,296.055 77.401,293.289 C77.745,292.580 78.348,292.375 79.111,292.783 C79.693,293.093 80.310,293.337 80.957,293.631 C81.312,293.188 81.595,292.874 81.834,292.529 C82.395,291.717 83.118,291.584 84.090,291.688 C87.496,292.051 90.598,293.295 93.363,295.169 C94.605,296.011 95.410,297.545 96.281,298.852 C96.665,299.427 96.718,300.219 96.967,301.072 C97.628,300.714 98.209,300.411 98.779,300.088 C101.413,298.596 104.081,297.158 106.655,295.569 C107.518,295.037 108.216,294.174 108.852,293.357 C109.746,292.210 110.861,291.537 112.289,291.402 C114.176,291.224 116.079,290.866 117.932,291.613 C118.320,291.770 118.720,291.925 119.065,292.155 C119.715,292.589 120.287,293.149 120.964,293.530 C123.385,294.895 124.517,297.285 123.965,300.019 C123.929,300.200 123.846,300.377 123.839,300.558 C123.760,302.588 122.661,303.783 120.800,304.485 C119.868,304.836 119.027,305.427 117.978,306.001 C117.765,303.304 117.486,300.822 117.867,298.321 C117.932,297.896 117.992,297.466 117.996,297.038 C118.007,295.673 117.942,295.632 116.289,295.790 C115.623,299.197 114.829,302.565 114.825,306.120 C114.821,309.707 114.242,313.293 113.945,316.882 C113.576,321.337 112.991,325.789 113.549,330.270 C113.631,330.923 113.794,331.566 113.993,332.590 C115.447,330.539 116.648,328.766 117.932,327.053 C121.034,322.912 124.080,318.723 127.335,314.703 C129.231,312.361 131.502,310.321 133.572,308.114 C134.102,307.549 134.649,306.926 134.944,306.228 C136.756,301.926 139.202,298.042 142.374,294.606 C142.706,294.246 142.966,293.816 143.236,293.404 C143.804,292.538 144.616,292.029 145.583,291.707 C146.843,291.287 148.210,291.048 149.455,290.912 C151.154,290.726 153.043,291.166 154.498,292.343 C155.288,292.981 155.450,293.990 155.082,294.884 C154.791,295.590 154.300,296.350 153.681,296.762 C150.779,298.691 149.641,301.554 149.025,304.783 C148.658,306.704 148.113,308.591 147.675,310.499 C147.427,311.577 147.156,312.658 147.028,313.753 C146.585,317.529 146.198,321.313 145.797,325.094 C145.780,325.256 145.836,325.425 145.880,325.769 C146.184,325.440 146.431,325.260 146.562,325.018 C148.909,320.685 151.402,316.421 152.943,311.703 C153.805,309.063 154.505,306.415 154.464,303.588 C154.437,301.687 154.543,299.752 154.886,297.886 C155.272,295.783 156.804,293.402 159.772,293.862 C161.836,294.181 162.945,294.575 163.707,296.732 C164.940,300.226 165.776,303.755 166.284,307.398 C166.381,308.094 166.829,308.737 166.961,309.434 C167.360,311.542 167.736,313.658 168.020,315.784 C168.352,318.262 168.579,320.754 169.149,323.353 C169.436,322.685 169.800,322.038 169.997,321.344 C171.253,316.914 172.516,312.484 173.694,308.033 C175.392,301.614 177.080,295.192 178.652,288.742 C179.393,285.702 180.298,282.669 180.234,279.483 C180.223,278.940 180.254,278.396 180.267,277.786 C177.714,277.173 175.244,277.164 172.804,277.412 C169.249,277.773 165.716,278.341 162.171,278.802 C157.442,279.418 152.720,279.688 147.950,279.058 C145.451,278.727 142.896,278.817 140.367,278.719 C139.871,278.699 139.372,278.715 138.882,278.655 C138.370,278.592 137.815,278.554 137.376,278.322 C137.039,278.143 136.853,277.681 136.557,277.289 C136.772,276.859 137.833,276.777 137.277,275.590 C135.366,275.455 133.315,275.316 131.265,275.160 C130.960,275.137 130.556,275.140 130.376,274.958 C129.410,273.978 128.214,274.344 127.070,274.254 C124.927,274.084 122.798,273.627 120.656,273.573 C117.419,273.492 114.176,273.675 110.935,273.704 C109.301,273.719 107.666,273.643 105.908,273.605 C106.287,272.886 106.920,272.864 107.486,272.781 C113.293,271.931 119.084,270.929 124.914,270.291 C133.331,269.371 141.802,268.915 150.200,267.868 C154.491,267.332 158.779,266.886 163.081,266.741 C166.716,266.619 170.369,266.956 174.013,267.130 C176.216,267.236 178.416,267.419 180.830,267.582 C180.882,265.161 180.872,262.839 180.998,260.525 C181.158,257.578 181.451,254.639 181.635,251.694 C181.688,250.850 181.617,249.987 181.505,249.146 C181.286,247.502 181.125,245.870 181.520,244.137 C183.968,244.066 186.253,244.422 187.980,246.045 C188.852,246.865 189.488,248.194 189.714,249.390 C190.473,253.427 191.234,257.484 190.974,261.635 C190.848,263.657 190.733,265.680 190.622,267.704 C190.602,268.069 190.568,268.447 190.636,268.801 C191.016,270.776 191.303,272.722 191.148,274.778 C191.059,275.961 191.856,277.168 191.633,278.510 C191.255,280.785 190.941,283.077 190.747,285.375 C190.615,286.947 190.650,288.545 190.753,290.122 C190.941,292.986 191.168,295.841 190.695,298.698 C190.658,298.922 190.812,299.170 190.817,299.408 C190.881,302.033 191.228,304.697 190.888,307.270 C190.647,309.096 190.624,310.949 190.309,312.781 C189.982,314.679 190.343,316.687 190.330,318.646 C190.323,319.651 190.157,320.654 190.217,321.697 C192.059,319.553 193.321,317.131 194.330,314.565 C194.666,313.709 194.979,312.842 195.364,312.007 C196.781,308.931 198.375,305.926 199.610,302.780 C200.568,300.339 201.162,297.746 201.774,295.186 C202.028,294.122 202.371,293.343 203.573,293.069 C203.887,293.304 204.211,293.589 204.575,293.809 C205.468,294.348 206.337,294.877 207.499,294.565 C208.950,294.176 210.143,294.828 211.229,295.732 C212.841,297.076 214.029,298.563 213.986,300.867 C213.963,302.123 214.481,303.388 214.747,304.650 C215.216,306.876 215.503,309.113 215.308,311.400 C215.247,312.123 215.438,312.865 215.408,313.595 C215.258,317.282 215.071,320.968 214.903,324.655 C214.873,325.312 214.872,325.969 214.851,326.907 C215.299,326.632 215.549,326.563 215.657,326.399 C217.115,324.202 218.539,321.981 220.003,319.787 C220.993,318.304 221.989,316.820 223.062,315.395 C225.170,312.596 227.325,309.831 229.480,307.066 C230.314,305.996 231.239,304.996 232.049,303.909 C233.038,302.582 233.958,301.204 234.892,299.836 C235.895,298.369 236.696,296.712 237.916,295.458 C239.540,293.790 241.668,292.859 244.092,292.915 C245.634,292.952 247.187,292.971 248.713,293.171 C249.856,293.321 250.969,293.721 252.082,294.055 C253.267,294.410 254.421,294.872 255.614,295.191 C258.033,295.837 260.073,297.014 261.362,299.208 C261.819,299.985 262.064,300.885 262.462,301.868 C264.680,300.993 266.675,299.722 268.382,298.031 C268.666,297.750 268.680,297.149 268.717,296.687 C268.745,296.340 268.514,295.966 268.564,295.628 C268.884,293.420 270.076,292.916 272.014,294.022 C273.455,294.844 274.974,295.533 276.467,296.264 C277.742,296.889 278.714,297.803 279.154,299.162 C279.825,301.239 280.437,303.335 281.126,305.592 C281.452,305.182 281.827,304.809 282.088,304.369 C283.812,301.473 286.246,299.189 288.630,296.871 C289.687,295.844 290.912,294.989 291.982,293.973 C292.546,293.437 292.939,292.723 293.470,292.008 C293.771,292.048 294.220,291.976 294.472,292.164 C295.263,292.755 296.141,292.883 297.081,292.937 C298.312,293.008 299.013,293.673 299.549,294.827 C300.939,297.820 301.906,300.870 301.760,304.212 C301.743,304.618 301.950,305.045 302.099,305.445 C303.746,309.857 304.255,314.481 304.708,319.117 C304.724,319.279 304.800,319.434 304.906,319.784 C305.273,319.374 305.549,319.085 305.801,318.778 C306.074,318.445 306.271,318.030 306.594,317.762 C310.656,314.392 313.724,310.093 317.333,306.300 C320.773,302.684 323.775,298.655 326.967,294.806 C327.164,294.569 327.304,294.273 327.534,294.079 C329.341,292.552 329.819,290.455 329.768,288.288 C329.743,287.235 330.008,286.436 330.489,285.670 C332.325,286.240 334.118,286.943 335.977,287.326 C337.478,287.636 338.171,288.510 338.641,289.797 C339.253,291.470 340.013,293.098 340.512,294.802 C341.149,296.975 342.615,298.665 343.644,300.606 C344.993,303.153 346.429,305.655 347.840,308.170 C348.017,308.485 348.271,308.758 348.547,309.128 C350.097,308.259 351.593,307.428 353.083,306.584 C358.222,303.672 363.619,301.447 369.467,300.374 C370.193,300.241 370.853,299.751 371.927,299.246 C372.713,299.561 373.909,300.017 375.084,300.521 C375.975,300.902 376.124,301.637 375.895,302.730 ZM53.474,322.381 C52.639,323.745 52.766,327.414 53.436,329.306 C53.525,328.155 53.690,326.719 53.729,325.280 C53.753,324.402 53.582,323.519 53.474,322.381 ZM55.603,305.490 C54.385,308.956 53.849,312.561 53.767,316.162 C55.483,312.859 55.231,309.131 55.603,305.490 ZM85.819,295.330 C86.021,300.106 89.254,303.210 93.474,302.676 C91.531,299.560 89.550,296.702 85.819,295.330 ZM94.012,305.364 C90.740,305.768 87.822,304.747 85.043,302.913 C84.887,303.526 84.728,303.876 84.719,304.229 C84.651,306.907 84.596,309.585 84.570,312.263 C84.555,313.778 84.617,315.294 84.620,316.810 C84.627,320.724 84.569,324.640 84.646,328.553 C84.677,330.124 84.992,331.689 85.178,333.257 C85.319,333.248 85.460,333.239 85.601,333.229 C85.887,332.837 86.222,332.472 86.450,332.049 C87.060,330.917 87.654,329.774 88.201,328.611 C88.902,327.117 89.746,325.653 90.187,324.082 C91.514,319.356 92.706,314.592 93.882,309.826 C94.227,308.428 94.479,306.978 94.012,305.364 ZM157.773,340.218 C157.590,340.406 157.407,340.593 157.224,340.780 C157.492,341.006 157.760,341.232 158.028,341.459 C158.142,341.337 158.256,341.215 158.369,341.093 C158.170,340.802 157.972,340.510 157.773,340.218 ZM160.050,327.625 C159.580,329.076 159.984,330.339 160.163,331.687 C160.448,331.210 160.687,330.810 160.925,330.410 C161.063,330.473 161.201,330.536 161.339,330.599 C161.097,331.308 161.048,332.218 160.566,332.679 C159.832,333.381 160.355,333.776 160.525,334.461 C160.837,333.858 161.070,333.410 161.354,332.863 C161.532,333.241 161.637,333.461 161.882,333.981 C161.693,331.568 161.849,329.410 160.050,327.625 ZM167.473,326.528 C167.286,326.681 167.132,326.743 167.114,326.832 C166.902,327.869 166.710,328.909 166.514,329.948 C167.132,328.907 167.913,327.909 167.473,326.528 ZM168.092,324.753 C167.982,324.787 167.872,324.821 167.762,324.854 C167.876,325.209 167.990,325.563 168.105,325.918 C168.187,325.883 168.269,325.849 168.351,325.815 C168.265,325.461 168.179,325.107 168.092,324.753 ZM181.883,343.360 C182.417,343.830 182.741,344.116 183.065,344.401 C183.194,344.246 183.446,344.078 183.431,343.938 C183.353,343.192 182.842,343.204 181.883,343.360 ZM237.368,337.655 C237.456,337.526 237.544,337.398 237.632,337.270 C237.380,336.728 237.054,336.333 236.008,336.708 C236.613,337.129 236.990,337.392 237.368,337.655 ZM235.500,333.038 C235.664,333.695 235.637,334.393 235.974,334.731 C236.360,335.116 237.069,335.180 237.643,335.386 C237.884,333.838 237.740,333.669 235.500,333.038 ZM239.781,338.681 C239.092,338.696 238.358,337.960 237.567,338.969 C238.418,339.030 239.118,339.080 239.818,339.130 C239.806,338.981 239.793,338.831 239.781,338.681 ZM250.621,298.936 C250.508,298.549 249.988,298.067 249.600,298.011 C248.090,297.796 246.551,297.701 245.232,298.654 C245.108,302.330 246.969,304.224 251.286,304.617 C251.379,302.596 251.149,300.741 250.621,298.936 ZM252.350,310.478 C252.157,308.925 251.967,308.794 250.369,308.619 C249.635,308.538 248.895,308.451 248.177,308.286 C245.281,307.620 243.021,306.019 241.178,303.155 C241.008,303.854 240.894,304.135 240.876,304.421 C240.753,306.489 240.577,308.557 240.560,310.626 C240.543,312.638 240.634,314.657 240.792,316.663 C240.956,318.737 239.690,320.709 240.415,322.808 C240.451,322.913 240.448,323.073 240.392,323.164 C239.169,325.150 240.368,326.947 240.823,328.802 C241.072,329.818 241.909,330.299 242.764,330.176 C244.628,329.908 246.478,330.733 248.371,330.018 C249.110,329.738 249.652,329.527 250.054,328.842 C251.134,327.003 251.557,324.979 251.997,322.928 C252.885,318.788 252.867,314.643 252.350,310.478 ZM341.376,330.240 C340.840,328.103 340.444,325.932 339.913,323.794 C339.607,322.562 339.148,321.368 338.656,319.840 C335.972,322.116 333.361,324.170 330.951,326.437 C329.576,327.730 328.513,329.357 327.341,330.857 C326.257,332.246 326.281,333.942 326.368,335.536 C326.505,338.011 327.642,338.741 330.107,338.101 C331.820,337.656 333.482,337.021 335.187,336.545 C337.534,335.889 339.460,334.693 340.839,332.641 C341.351,331.879 341.611,331.179 341.376,330.240 ZM220.772,274.623 C219.857,275.514 218.896,276.362 218.033,277.300 C216.740,278.704 214.986,278.383 213.603,278.725 C213.014,278.632 212.651,278.541 212.284,278.523 C210.823,278.451 209.376,278.046 207.904,278.695 C207.084,279.057 206.640,278.642 206.592,277.723 C206.570,277.296 206.558,276.837 206.684,276.438 C207.802,272.896 209.188,269.470 211.646,266.611 C213.564,264.378 215.554,262.204 217.578,260.065 C218.826,258.745 218.837,258.893 220.519,259.633 C223.119,260.778 224.800,262.607 225.637,265.330 C226.350,267.647 225.716,269.566 224.194,271.258 C223.127,272.445 221.919,273.507 220.772,274.623 Z" class="cls-3"/>
  </g>
</svg>
