<?xml version="1.0" standalone="no"?>
<!DOCTYPE svg PUBLIC "-//W3C//DTD SVG 20010904//EN"
 "http://www.w3.org/TR/2001/REC-SVG-20010904/DTD/svg10.dtd">
<svg version="1.0" xmlns="http://www.w3.org/2000/svg"
 width="500.000000pt" height="500.000000pt" viewBox="0 0 500.000000 500.000000"
 preserveAspectRatio="xMidYMid meet">
<metadata>
Created by potrace 1.11, written by Peter Selinger 2001-2013
</metadata>
<g transform="translate(0.000000,500.000000) scale(0.100000,-0.100000)"
fill="#000000" stroke="none">
<path d="M1915 4681 c-38 -16 -54 -47 -75 -141 -11 -52 -26 -115 -34 -140
l-13 -45 -630 -5 c-560 -4 -632 -7 -653 -21 -14 -9 -60 -77 -103 -152 -58
-101 -77 -144 -77 -172 0 -29 41 -108 211 -403 116 -202 224 -379 240 -394 18
-17 41 -28 58 -28 25 0 231 113 615 338 99 58 233 188 305 295 70 104 147 259
191 384 l36 102 78 -157 c95 -191 207 -387 338 -589 54 -84 98 -154 98 -156 0
-2 -39 5 -87 14 -275 55 -553 42 -744 -36 -34 -13 -201 -105 -372 -202 -314
-180 -347 -205 -347 -258 0 -26 245 -454 276 -482 54 -49 55 -48 644 292 300
174 575 336 612 361 175 119 325 337 437 634 l39 104 80 -159 c95 -191 227
-421 346 -603 47 -73 86 -134 86 -136 0 -1 -42 6 -92 16 -61 12 -157 21 -278
25 -208 6 -301 -6 -439 -56 -75 -27 -1195 -663 -1234 -700 -10 -10 -20 -34
-24 -54 -5 -34 5 -55 108 -235 62 -108 122 -212 133 -229 24 -38 64 -57 103
-51 16 2 172 87 348 189 310 178 323 187 416 279 141 140 244 311 325 538 l37
104 91 -179 c106 -206 220 -403 340 -588 47 -71 83 -131 82 -133 -2 -1 -34 4
-72 12 -289 60 -616 40 -795 -49 -30 -15 -188 -104 -352 -198 -251 -143 -301
-176 -314 -203 -9 -18 -13 -42 -10 -55 10 -38 575 -1012 598 -1032 32 -26 105
-23 130 5 11 13 186 311 389 663 203 352 376 644 383 649 10 6 56 -4 138 -29
154 -48 183 -49 221 -7 47 54 41 78 -68 240 -52 79 -93 149 -91 155 3 7 260
453 572 992 495 857 566 984 561 1012 -8 52 -163 311 -196 328 -25 13 -181 15
-1162 15 l-1134 0 -74 151 c-41 83 -82 157 -91 165 -20 18 -77 27 -104 15z
m-210 -553 c-10 -32 -71 -142 -119 -213 -83 -123 -150 -176 -436 -341 -202
-116 -268 -150 -276 -141 -17 19 -327 560 -327 572 0 6 17 40 38 78 l39 67
544 0 543 0 -6 -22z m1103 -70 c-25 -119 -87 -303 -136 -410 l-39 -83 -77 119
c-79 121 -266 443 -266 458 0 4 121 8 269 8 l269 0 -20 -92z m1610 17 c41 -71
42 -76 28 -102 -8 -15 -161 -281 -339 -591 l-325 -562 -165 252 c-206 318
-290 464 -461 806 l-136 272 678 0 678 0 42 -75z m-2118 -851 c8 -8 -138 -97
-471 -290 -265 -153 -487 -280 -494 -282 -7 -2 -36 39 -65 90 -30 51 -60 103
-67 114 -13 21 -5 27 242 169 268 154 319 178 425 201 77 16 414 14 430 -2z
m1030 -480 c98 -17 329 -79 343 -93 4 -4 -52 -110 -124 -235 -108 -186 -134
-225 -144 -214 -21 22 -193 324 -257 452 l-60 119 74 -7 c40 -3 116 -13 168
-22z m-711 -101 c-64 -171 -195 -362 -303 -443 -50 -37 -532 -320 -544 -320
-8 1 -127 208 -127 221 0 8 962 568 977 569 4 0 3 -12 -3 -27z m472 -951 l36
-7 -308 -533 c-169 -293 -310 -534 -314 -535 -7 -2 -426 715 -421 720 16 17
522 297 562 313 112 41 337 63 445 42z"/>
</g>
</svg>
