<svg xmlns="http://www.w3.org/2000/svg" xmlns:xlink="http://www.w3.org/1999/xlink" preserveAspectRatio="xMidYMid" width="987.969" height="568.656" viewBox="0 0 987.969 568.656">
  <defs>
    <style>
      .cls-1 {
        fill: #d89d5c;
      }

      .cls-1, .cls-2, .cls-3 {
        fill-rule: evenodd;
      }

      .cls-2, .cls-3 {
        fill: #363641;
      }

      .cls-2 {
        opacity: 0.8;
      }

      .cls-3 {
        opacity: 0.5;
        mix-blend-mode: multiply;
      }
    </style>
  </defs>
  <g>
    <path d="M550.588,91.798 C551.973,90.824 553.133,90.204 554.046,89.333 C561.267,82.449 568.607,75.677 575.584,68.558 C583.768,60.208 593.021,53.303 603.081,47.379 C604.067,46.798 605.175,46.421 606.964,45.618 C606.328,46.944 606.168,47.709 605.703,48.178 C601.706,52.197 597.651,56.159 593.621,60.146 C591.089,62.651 588.417,65.041 586.107,67.734 C584.858,69.190 584.418,71.294 583.300,72.893 C580.261,77.239 577.029,81.453 573.924,85.756 C571.067,89.716 568.387,93.807 565.412,97.678 C563.671,99.943 562.210,102.291 561.169,104.927 C560.711,106.084 559.737,106.873 559.984,108.504 C560.139,109.530 558.567,110.812 557.638,112.172 C556.924,111.886 556.221,111.605 555.226,111.207 C553.603,113.412 551.163,114.336 548.359,114.725 C545.448,115.129 542.559,115.743 539.699,116.424 C535.114,117.514 531.611,115.728 529.392,112.052 C525.693,105.927 522.138,99.660 520.986,92.443 C520.593,89.973 520.329,87.482 519.947,84.545 C517.589,86.372 515.772,88.079 514.481,90.369 C512.144,94.516 509.653,98.580 507.318,102.727 C505.862,105.311 504.920,108.249 503.125,110.556 C500.717,113.654 497.809,116.399 494.330,118.442 C490.200,120.867 485.876,120.706 481.562,119.243 C478.278,118.130 476.808,115.322 475.369,112.367 C470.255,101.864 470.831,90.508 470.045,79.363 C469.561,72.511 469.130,65.639 469.095,58.774 C469.045,49.141 469.385,39.505 469.565,29.485 C468.876,30.102 468.017,30.605 467.535,31.347 C464.796,35.564 462.179,39.859 459.458,44.088 C456.751,48.296 453.825,52.374 451.261,56.664 C448.558,61.187 445.979,65.705 446.697,71.447 C447.583,78.529 447.536,85.664 446.201,92.752 C445.865,94.533 446.219,96.430 446.122,98.266 C445.864,103.097 445.548,107.925 445.208,112.750 C445.174,113.223 444.816,113.674 444.493,114.393 C443.174,113.949 441.985,113.549 440.654,113.101 C440.398,113.872 440.160,114.591 439.977,115.143 C434.157,117.399 427.722,117.175 422.318,120.581 C419.318,122.471 418.938,122.095 416.842,119.281 C414.069,115.558 413.697,111.265 413.550,106.919 C413.435,103.503 413.416,100.074 413.581,96.661 C413.854,90.988 414.544,85.326 414.631,79.652 C414.748,72.047 414.337,64.435 414.372,56.827 C414.421,46.174 413.710,35.472 416.127,24.935 C416.382,23.822 416.200,22.611 416.230,20.934 C412.427,22.863 408.908,24.648 405.038,26.610 C405.624,29.059 406.352,31.431 406.737,33.856 C407.569,39.104 409.012,44.256 408.063,49.728 C407.054,55.546 406.647,61.465 405.901,67.331 C405.275,72.243 404.253,77.062 402.403,81.702 C401.606,83.700 401.111,85.826 400.599,87.923 C399.892,90.823 399.977,93.907 398.225,96.566 C397.768,97.259 397.852,98.355 397.840,99.268 C397.782,103.984 396.746,108.354 393.676,112.141 C393.163,112.773 392.916,113.878 393.032,114.698 C393.402,117.308 391.779,118.783 389.890,119.724 C386.802,121.261 383.594,122.716 380.272,123.601 C376.706,124.551 372.950,124.805 369.276,125.359 C368.086,125.539 366.900,125.795 365.703,125.855 C364.246,125.928 362.598,126.257 361.349,125.736 C355.744,123.397 350.882,120.396 348.001,114.495 C344.023,106.344 342.160,97.831 341.339,88.954 C340.697,82.016 340.848,75.130 341.974,68.240 C342.347,65.961 342.086,63.587 342.235,61.264 C342.964,49.870 345.604,38.825 348.751,27.896 C350.250,22.685 352.254,17.703 355.734,13.316 C357.211,11.455 358.557,10.844 360.776,11.577 C362.548,8.656 364.854,6.455 367.543,4.531 C369.015,3.479 370.236,3.515 371.930,3.596 C379.723,3.970 386.688,7.140 393.872,9.550 C397.318,10.706 401.564,16.044 402.813,20.421 C406.862,19.896 409.917,17.121 413.538,15.714 C417.665,14.109 418.419,9.907 421.217,6.880 C424.191,7.878 427.219,8.786 430.163,9.910 C433.699,11.260 435.608,13.993 436.394,17.600 C438.382,26.733 442.280,35.396 443.265,44.783 C443.327,45.377 443.880,45.921 444.382,46.800 C446.481,43.611 448.456,40.658 450.382,37.673 C455.747,29.360 462.613,22.275 469.311,15.052 C469.853,14.468 470.655,13.985 470.912,13.301 C472.206,9.857 475.033,9.629 478.081,9.758 C482.560,9.948 486.712,11.361 490.696,13.245 C491.585,13.666 492.448,14.573 492.867,15.465 C496.893,24.040 498.809,33.075 499.035,42.535 C499.248,51.486 499.764,60.432 500.203,69.377 C500.583,77.127 501.041,84.873 501.488,93.060 C502.305,92.329 503.037,91.851 503.537,91.198 C508.380,84.868 513.217,78.532 517.965,72.133 C518.723,71.112 519.396,69.796 519.495,68.568 C520.225,59.488 520.863,50.399 521.385,41.305 C521.528,38.813 521.086,36.294 521.068,33.787 C520.999,24.464 522.613,15.538 528.835,8.162 C530.548,6.130 533.229,4.696 535.727,3.540 C545.926,-1.177 556.307,-1.028 566.687,3.036 C568.740,3.840 569.504,6.954 568.039,8.731 C565.178,12.202 563.584,16.171 562.777,20.519 C562.639,21.261 562.313,21.995 561.945,22.664 C558.171,29.521 553.629,35.872 548.400,41.700 C546.257,44.089 545.535,46.650 545.711,49.677 C546.072,55.881 546.414,62.088 546.707,68.296 C546.793,70.112 546.888,71.966 546.633,73.754 C545.725,80.111 548.879,85.503 550.588,91.798 ZM373.682,105.107 C374.848,103.902 375.605,103.333 376.086,102.589 C380.982,95.021 386.039,87.541 390.618,79.788 C393.162,75.480 395.156,70.798 396.922,66.111 C399.784,58.513 399.292,50.503 399.117,42.579 C399.015,37.986 398.731,33.403 397.033,28.708 C389.649,29.602 382.338,30.445 375.161,27.537 C373.056,33.592 372.320,39.469 371.667,45.352 C371.304,48.610 370.980,51.888 370.934,55.160 C370.860,60.305 371.233,65.460 371.061,70.599 C370.759,79.579 370.715,88.545 371.767,97.476 C372.039,99.789 372.891,102.035 373.682,105.107 ZM560.367,8.433 C553.370,5.598 548.344,8.562 543.376,12.002 C541.897,13.026 541.471,14.379 541.146,15.976 C540.053,21.362 541.101,26.685 541.522,32.025 C541.562,32.528 541.852,33.011 542.201,34.000 C545.961,27.809 549.412,22.189 552.787,16.525 C553.724,14.952 554.543,13.291 555.225,11.595 C556.443,8.565 556.388,8.537 560.367,8.433 ZM393.663,22.173 C391.368,18.864 388.532,16.804 385.458,14.932 C383.032,13.456 380.840,13.187 378.639,15.189 C378.440,21.441 384.890,24.556 393.663,22.173 Z" class="cls-1"/>
    <path d="M268.548,296.803 C268.829,296.800 269.110,296.796 269.391,296.793 C269.391,299.519 269.391,302.245 269.391,304.970 C269.110,304.983 268.829,304.996 268.548,305.008 C268.548,302.273 268.548,299.538 268.548,296.803 ZM270.156,332.722 C267.143,327.522 265.310,313.734 267.767,307.368 C267.767,309.432 267.767,311.495 267.767,313.761 C268.513,313.305 268.911,313.062 268.992,313.012 C270.970,319.496 271.486,326.233 270.156,332.722 ZM986.256,245.609 C985.249,246.469 983.789,246.852 982.475,247.291 C977.550,248.939 973.471,251.663 969.758,255.412 C965.519,259.694 960.530,263.226 955.914,267.140 C952.289,270.213 948.754,273.393 945.140,276.479 C943.523,277.859 942.864,279.494 942.782,281.650 C942.410,291.500 941.955,301.348 941.370,311.187 C941.156,314.782 940.606,318.368 940.018,321.927 C939.300,326.270 938.645,330.654 937.476,334.886 C936.184,339.568 934.430,344.133 932.674,348.670 C932.249,349.768 931.190,350.848 930.143,351.436 C926.074,353.721 924.236,358.105 920.773,361.076 C917.009,364.307 912.465,365.441 908.482,367.877 C907.284,368.610 905.656,368.853 904.208,368.917 C900.254,369.090 896.291,369.096 892.332,369.077 C889.036,369.060 886.991,367.666 885.820,364.265 C881.935,352.983 883.264,342.260 888.161,331.615 C894.527,317.774 902.677,305.081 911.929,293.031 C912.948,291.704 913.574,289.832 913.754,288.145 C914.313,282.901 914.799,277.628 914.886,272.359 C914.994,265.752 913.663,259.289 911.996,252.915 C911.418,250.708 910.646,248.553 909.897,246.162 C907.626,246.598 906.459,248.523 904.972,249.919 C897.227,257.194 891.357,265.912 885.784,274.879 C884.425,277.066 882.395,278.827 880.762,280.855 C878.283,283.933 875.589,286.893 873.538,290.242 C871.845,293.007 871.140,296.099 871.529,299.687 C872.183,305.729 871.906,311.875 871.984,317.978 C872.080,325.509 872.324,333.044 872.162,340.570 C871.995,348.289 871.251,355.995 871.065,363.714 C870.903,370.436 871.222,377.168 871.230,383.896 C871.247,397.852 871.281,411.810 871.125,425.765 C871.080,429.791 870.020,433.817 870.105,437.829 C870.364,449.968 867.264,461.801 867.088,473.893 C867.060,475.790 866.144,477.669 865.667,479.565 C865.353,480.814 864.927,482.065 864.835,483.336 C864.523,487.664 863.603,488.607 859.210,488.815 C858.739,488.837 858.274,489.005 858.221,489.016 C856.295,492.644 854.523,495.980 852.492,499.806 C851.525,498.657 851.043,498.086 850.417,497.342 C849.514,500.270 847.130,501.245 844.683,502.473 C841.997,503.821 839.681,504.864 837.620,503.123 C837.016,499.375 836.472,496.319 836.052,493.245 C835.863,491.862 836.233,490.335 835.789,489.070 C835.257,487.555 834.065,486.285 833.268,484.849 C831.885,482.360 831.232,479.788 831.407,476.812 C831.937,467.756 832.196,458.683 832.466,449.613 C832.749,440.065 833.605,430.471 832.996,420.974 C831.868,403.374 832.684,385.725 831.157,368.153 C829.724,351.659 831.319,335.162 831.181,318.664 C831.095,308.427 831.545,298.186 831.696,287.945 C831.714,286.755 831.359,285.558 830.662,284.323 C829.673,289.308 825.816,293.214 826.066,298.490 C826.074,298.646 825.995,298.814 825.926,298.963 C821.953,307.678 820.863,317.220 818.066,326.266 C817.201,329.064 815.639,331.668 814.232,334.272 C809.074,343.820 804.732,353.828 798.252,362.635 C794.174,368.176 788.143,370.127 781.899,370.156 C775.763,370.184 771.883,365.723 769.307,360.407 C765.784,353.137 765.058,345.274 764.659,337.357 C764.436,332.929 764.185,328.502 763.897,323.133 C763.056,324.277 762.643,324.640 762.478,325.093 C760.059,331.729 757.761,338.412 755.258,345.016 C751.216,355.684 743.731,363.209 733.617,368.240 C730.950,369.567 728.366,370.153 726.456,367.038 C723.868,369.540 723.280,369.390 722.316,366.607 C721.693,364.810 721.075,362.468 719.684,361.576 C713.955,357.903 712.238,351.939 710.816,346.126 C707.661,333.226 707.286,320.001 707.288,306.757 C707.291,293.078 707.011,279.400 706.789,265.723 C706.763,264.105 706.320,262.494 705.953,260.118 C704.789,261.700 703.877,262.619 703.341,263.721 C700.682,269.197 698.040,274.685 695.560,280.244 C694.221,283.244 693.098,286.356 692.089,289.486 C689.160,298.561 686.335,307.670 683.476,316.768 C681.012,324.609 678.287,332.383 676.224,340.328 C675.351,343.687 675.870,347.410 675.776,350.968 C675.731,352.690 675.730,354.412 675.707,356.379 C680.585,353.654 680.528,353.670 679.369,349.414 C679.147,348.602 679.256,347.351 679.753,346.751 C682.436,343.510 683.107,339.759 683.021,335.732 C683.016,335.507 683.420,335.274 683.977,334.674 C684.278,335.687 684.775,336.492 684.689,337.229 C684.365,339.994 683.825,342.733 683.426,345.490 C683.336,346.111 683.232,347.048 683.573,347.361 C686.407,349.965 684.243,352.135 683.004,354.288 C679.149,360.989 673.943,366.559 668.152,371.604 C667.751,371.954 667.023,371.928 666.158,372.150 C667.034,368.662 671.383,366.718 669.058,362.354 C668.114,362.867 667.016,363.205 666.276,363.915 C663.500,366.575 660.724,369.252 658.176,372.125 C656.052,374.518 654.188,375.277 651.376,374.232 C648.864,373.298 647.753,371.301 648.151,368.192 C648.476,365.646 648.507,362.955 649.415,360.619 C650.607,357.556 649.723,354.877 649.027,352.052 C648.248,348.887 647.196,345.765 649.565,342.686 C650.131,341.950 649.925,340.536 649.896,339.438 C649.586,327.441 649.250,315.445 648.901,303.449 C648.745,298.091 648.543,292.734 648.344,286.848 C645.460,289.732 647.835,292.699 646.907,295.134 C646.003,297.508 644.415,299.361 644.979,302.419 C645.922,307.526 646.690,312.876 646.173,317.986 C645.630,323.344 646.925,328.278 647.412,333.406 C647.532,334.671 646.226,336.072 645.059,337.290 C644.027,334.281 642.951,331.579 643.606,328.408 C644.093,326.047 644.138,323.474 643.788,321.082 C642.512,312.370 643.426,303.651 643.341,294.936 C643.311,291.796 642.596,288.635 643.780,285.582 C645.253,281.784 646.090,278.003 644.109,274.122 C646.287,271.697 644.533,268.816 644.857,266.170 C645.221,263.193 644.704,259.884 643.719,257.013 C641.760,251.302 642.096,245.404 641.411,239.590 C641.227,238.028 641.591,236.129 638.976,235.315 C637.957,234.997 637.691,231.881 637.315,229.993 C637.040,228.611 637.145,227.154 636.407,225.545 C635.821,226.641 635.203,227.722 634.655,228.837 C627.242,243.919 619.800,258.986 612.458,274.102 C610.449,278.239 608.551,282.456 607.028,286.787 C606.605,287.987 607.411,289.904 608.167,291.188 C612.497,298.538 617.129,305.713 621.365,313.116 C624.379,318.384 626.940,323.913 629.682,329.336 C630.567,331.087 631.363,332.883 632.239,334.639 C633.843,337.854 635.329,341.032 634.621,344.854 C634.339,346.377 634.804,348.039 634.943,349.813 C632.753,350.897 630.202,351.979 627.856,353.398 C626.653,354.126 625.789,355.435 624.818,356.524 C624.184,357.235 623.775,358.228 623.024,358.740 C616.281,363.334 609.537,367.931 602.668,372.331 C600.923,373.448 598.786,374.221 596.734,374.540 C590.397,375.526 584.020,376.268 577.647,377.003 C573.424,377.489 569.449,376.540 565.733,374.486 C565.156,374.166 564.344,374.040 564.001,373.564 C560.430,368.605 554.505,365.230 553.690,357.984 C555.132,358.231 556.463,358.458 557.850,358.696 C560.893,347.279 566.172,336.850 572.023,326.671 C574.242,322.810 576.309,318.859 578.608,315.047 C579.696,313.244 579.609,311.706 578.570,309.998 C573.462,301.600 568.139,293.320 563.386,284.724 C560.543,279.583 558.254,274.059 556.368,268.485 C554.451,262.822 553.643,261.472 547.779,262.707 C542.633,263.790 538.025,263.390 532.969,260.429 C532.196,263.250 531.165,265.512 531.018,267.830 C530.595,274.537 528.113,280.643 525.951,286.843 C522.925,295.521 519.375,304.034 516.747,312.827 C514.642,319.867 513.750,327.263 511.981,334.417 C511.016,338.322 511.610,342.467 509.757,346.247 C509.178,347.426 509.615,349.164 509.762,350.628 C510.106,354.035 510.617,357.493 509.091,360.703 C507.454,364.146 509.631,366.667 511.003,369.737 C510.136,370.760 509.227,371.831 508.251,372.981 C507.650,371.945 507.202,371.174 506.309,369.635 C505.735,371.434 505.390,372.520 504.997,373.751 C504.544,373.862 503.915,374.149 503.286,374.147 C500.735,374.140 499.135,374.805 498.644,377.824 C498.434,379.112 496.285,380.082 495.353,380.902 C492.800,379.336 490.880,377.637 488.649,376.940 C486.503,376.269 485.995,375.024 485.394,373.208 C483.603,367.802 481.395,362.529 479.717,357.091 C478.522,353.222 477.502,349.205 477.157,345.189 C476.691,339.750 475.540,334.558 474.137,329.295 C472.448,322.965 471.711,316.378 470.609,309.893 C468.685,298.575 466.801,287.251 464.879,275.933 C464.835,275.672 464.539,275.454 464.176,274.969 C460.874,277.139 460.231,280.800 459.109,284.087 C457.840,287.806 456.799,291.610 455.809,295.416 C454.901,298.909 454.171,302.451 453.400,305.979 C451.301,315.588 449.326,325.225 447.091,334.801 C446.012,339.420 444.426,343.918 443.137,348.490 C442.741,349.896 442.304,351.373 442.353,352.801 C442.426,354.929 441.721,356.567 440.454,358.208 C439.463,359.490 438.857,361.070 437.748,363.136 C436.300,363.137 434.386,363.723 432.672,365.535 C428.607,369.832 422.637,370.124 417.428,371.911 C414.482,372.921 412.037,370.815 410.271,368.519 C406.592,363.736 404.494,358.204 403.774,352.275 C402.704,343.455 401.720,334.609 401.163,325.745 C400.378,313.262 399.591,300.752 399.588,288.253 C399.584,274.429 400.467,260.606 400.956,246.782 C401.002,245.491 400.991,244.199 401.014,242.277 C394.465,244.825 388.293,247.226 382.663,249.416 C382.210,259.256 381.847,268.513 381.321,277.761 C381.155,280.676 380.453,283.557 380.173,286.470 C379.568,292.776 379.009,299.090 378.558,305.409 C378.108,311.719 376.034,317.610 373.981,323.484 C370.953,332.151 367.280,340.556 365.535,349.695 C364.693,354.107 362.488,358.457 358.923,361.607 C355.608,364.535 352.236,367.476 348.547,369.888 C340.741,374.990 332.746,374.495 326.068,368.022 C323.015,365.063 319.556,362.354 317.309,358.513 C313.537,352.067 310.653,345.236 308.951,338.029 C306.555,327.883 305.735,317.504 305.833,307.068 C305.844,305.969 305.860,304.870 305.873,303.770 C305.538,303.684 305.203,303.597 304.869,303.511 C303.526,307.249 302.120,310.967 300.853,314.731 C298.014,323.164 295.168,331.596 292.468,340.074 C289.968,347.921 288.015,355.812 288.267,364.239 C288.462,370.793 284.346,375.586 278.067,377.487 C276.989,377.813 276.575,380.719 274.703,378.272 C274.593,379.578 274.685,380.775 274.365,381.848 C273.638,384.278 272.708,386.647 271.854,389.062 C267.916,387.153 267.018,385.501 267.336,381.649 C267.425,380.567 266.933,379.446 266.777,378.333 C266.589,376.989 266.475,375.634 266.252,373.571 C268.024,374.299 268.951,374.680 270.828,375.453 C269.699,370.829 268.372,367.010 267.919,363.091 C267.471,359.217 267.906,355.242 267.955,351.109 C269.479,354.654 270.917,358.000 272.716,362.186 C274.433,356.774 276.088,352.335 274.061,347.208 C273.269,345.205 273.558,342.651 273.779,340.389 C274.697,330.986 273.575,321.708 272.509,312.400 C272.158,309.340 272.471,306.199 272.528,303.096 C272.572,300.733 273.059,298.162 269.420,298.373 C269.500,291.801 269.102,285.852 270.887,279.778 C272.121,275.580 271.243,270.763 271.330,266.223 C271.348,265.286 271.381,264.336 271.550,263.418 C272.406,258.764 272.085,254.749 270.120,247.856 C267.031,255.917 268.485,263.767 268.663,271.835 C263.376,270.398 262.805,265.766 261.315,261.278 C260.486,264.216 258.570,267.219 259.374,268.978 C260.886,272.285 258.614,274.561 258.662,277.285 C258.710,280.029 259.435,282.773 259.357,285.503 C259.295,287.669 258.936,290.083 257.882,291.909 C255.669,295.746 256.296,299.521 257.399,303.298 C257.880,304.944 258.214,306.217 257.551,307.970 C257.040,309.318 257.396,311.152 257.799,312.654 C258.459,315.112 258.417,316.653 257.322,319.937 C257.112,320.569 257.770,321.530 258.121,322.297 C258.365,322.831 258.906,323.254 259.054,323.798 C259.160,324.185 258.833,324.690 258.569,325.585 C256.440,323.734 255.619,321.676 255.436,319.190 C255.109,314.745 254.721,310.302 254.255,305.870 C253.811,301.654 253.739,297.268 249.509,294.205 C247.941,297.931 246.259,301.804 244.676,305.717 C242.521,311.045 240.428,316.398 238.332,321.749 C235.293,329.511 232.178,337.245 229.275,345.058 C226.525,352.462 224.037,359.963 221.350,367.392 C220.994,368.378 220.293,369.360 219.495,370.044 C216.753,372.392 213.964,374.697 211.063,376.842 C209.091,378.300 207.005,379.685 204.790,380.715 C198.048,383.852 194.267,382.770 189.911,376.762 C184.021,368.636 181.124,359.436 180.466,349.529 C179.846,340.184 179.507,330.820 179.041,321.464 C179.001,320.665 178.930,319.868 178.815,318.250 C177.553,318.877 176.338,319.066 175.979,319.724 C173.071,325.043 170.509,330.558 167.481,335.804 C163.554,342.607 159.803,349.608 155.053,355.816 C148.448,364.450 138.713,368.371 128.320,370.233 C122.764,371.228 118.384,367.760 114.522,364.246 C110.439,360.532 107.809,355.705 105.976,350.550 C102.087,339.609 99.940,328.350 99.661,316.682 C99.366,304.331 98.710,291.997 100.950,279.744 C101.092,278.971 100.987,278.153 100.999,277.124 C99.652,277.108 98.585,277.095 96.870,277.074 C96.809,282.133 96.750,287.024 96.686,292.332 C93.684,290.949 98.116,287.053 93.561,286.916 C93.061,289.904 92.916,292.787 93.545,295.940 C94.371,300.077 94.334,304.389 94.613,308.630 C94.643,309.078 94.371,309.584 94.133,310.003 C93.398,311.296 90.646,310.759 91.344,313.566 C91.740,315.153 90.691,317.045 90.789,318.772 C91.078,323.872 88.073,328.120 87.400,332.990 C86.689,338.134 84.929,343.146 84.383,348.297 C83.476,356.854 81.316,364.985 77.986,372.878 C77.203,374.735 76.923,376.808 76.454,378.791 C76.342,379.265 76.576,379.889 76.349,380.256 C72.323,386.758 71.923,394.452 69.480,401.484 C66.775,409.274 65.475,417.549 63.501,425.598 C61.146,435.198 59.093,444.877 56.886,454.502 C54.874,463.277 51.536,471.375 47.968,479.458 C46.346,483.133 43.948,486.472 41.799,489.899 C41.298,490.699 40.440,491.322 39.640,491.873 C38.430,492.708 37.127,493.409 35.389,494.451 C33.798,494.292 31.541,493.936 29.274,493.867 C25.258,493.746 22.059,491.937 19.357,489.194 C18.356,488.179 17.097,486.742 17.121,485.521 C17.193,481.846 15.204,478.950 14.168,475.703 C13.219,472.729 11.942,469.755 11.664,466.702 C11.411,463.936 9.974,461.648 9.303,459.110 C7.719,453.114 6.852,447.042 6.256,440.977 C4.496,423.092 3.240,405.157 1.670,387.252 C0.070,368.995 -0.217,350.693 0.091,332.397 C0.364,316.157 1.206,299.925 1.916,283.695 C2.081,279.924 2.533,276.137 3.238,272.431 C3.621,270.412 4.337,268.047 5.736,266.715 C8.707,263.887 8.536,260.756 7.936,257.279 C7.072,252.268 7.738,247.379 9.378,242.550 C11.631,248.371 8.039,254.909 11.975,261.321 C12.359,258.519 12.643,256.447 12.923,254.400 C17.042,254.640 17.229,254.340 16.968,247.880 C15.417,248.230 13.958,248.559 12.171,248.962 C12.753,244.301 13.319,239.770 13.886,235.240 C14.184,235.261 14.482,235.282 14.781,235.303 C14.887,238.207 14.993,241.111 15.098,244.015 C15.318,243.992 15.537,243.968 15.757,243.945 C17.209,238.136 18.858,232.368 20.028,226.503 C20.595,223.663 20.380,220.639 20.247,217.711 C20.217,217.060 19.043,216.461 18.219,215.668 C18.959,213.409 19.953,210.819 20.639,208.150 C21.280,205.653 23.454,203.049 20.023,200.618 C19.142,199.994 19.080,197.892 19.041,196.458 C18.904,191.478 18.902,186.578 20.240,181.611 C21.981,175.149 22.697,168.418 24.106,161.856 C25.422,155.724 27.291,149.753 30.976,144.532 C31.349,144.004 31.829,143.460 31.954,142.859 C35.836,124.177 43.956,107.147 55.577,93.412 C59.256,89.063 63.156,88.743 67.791,91.778 C69.524,92.912 71.969,93.000 74.116,93.430 C74.695,93.546 75.541,92.839 75.980,93.064 C80.683,95.477 86.633,95.465 90.086,100.324 C91.124,101.786 92.299,103.151 93.425,104.549 C99.004,111.480 97.649,119.369 96.278,127.116 C95.039,134.118 92.724,140.964 91.895,147.998 C90.896,156.472 88.065,164.319 85.072,172.105 C81.885,180.398 77.813,188.346 74.391,196.554 C71.667,203.087 69.544,209.873 66.764,216.380 C64.915,220.707 62.402,224.752 60.144,228.900 C57.793,233.218 55.391,237.507 53.010,241.811 C57.305,244.001 57.732,243.737 57.612,239.587 C59.491,239.610 61.356,239.633 63.265,239.656 C63.655,240.832 64.045,242.012 64.586,243.643 C66.468,242.283 68.044,241.144 70.095,239.661 C70.488,241.479 70.717,242.542 70.995,243.827 C72.867,243.700 74.770,243.571 76.723,243.438 C77.218,244.434 77.772,245.549 78.594,247.202 C79.531,245.904 80.125,245.082 80.991,243.882 C86.863,249.819 92.901,255.418 95.972,263.833 C95.801,263.767 96.104,263.984 96.408,263.984 C106.631,263.994 105.022,265.949 108.560,254.919 C111.517,245.700 115.297,236.702 119.338,227.893 C121.686,222.774 126.251,219.161 130.863,215.933 C131.866,215.231 133.313,214.717 134.503,214.808 C139.729,215.209 144.802,216.451 149.544,218.710 C150.644,219.233 151.486,220.461 152.244,221.512 C159.466,231.533 158.391,242.429 155.355,253.432 C154.559,256.319 152.117,259.075 155.860,261.612 C156.037,261.732 156.107,262.244 156.014,262.493 C155.288,264.434 154.845,267.118 156.536,267.849 C158.076,268.515 159.214,269.698 160.663,270.803 C159.183,270.585 157.703,270.367 155.868,270.096 C153.881,273.345 150.375,272.961 146.968,272.757 C138.187,272.232 137.062,272.919 137.471,281.840 C137.913,291.491 139.151,301.108 140.126,310.730 C140.724,316.638 141.234,322.572 142.239,328.415 C143.069,333.238 144.567,337.945 145.837,342.972 C149.568,341.348 151.850,338.649 153.934,336.026 C162.776,324.900 170.813,313.224 177.382,300.562 C178.929,297.579 179.190,294.654 178.952,291.488 C178.633,287.257 177.706,283.016 179.109,278.795 C179.254,278.360 179.185,277.783 179.037,277.331 C176.845,270.634 178.195,263.703 177.660,256.899 C177.145,250.349 176.572,243.803 176.184,237.247 C175.951,233.297 176.053,229.330 175.951,225.371 C175.752,217.667 175.573,209.961 175.278,202.259 C175.008,195.223 175.265,188.204 175.442,181.172 C175.635,173.492 175.060,165.796 175.112,158.109 C175.145,153.185 175.710,148.265 176.029,143.343 C176.347,138.449 176.488,133.536 177.015,128.665 C177.507,124.110 178.502,119.612 179.102,115.066 C180.419,105.095 181.323,95.060 182.981,85.149 C184.132,78.269 186.259,71.554 187.989,64.604 C189.591,65.058 190.598,65.702 191.424,65.520 C196.349,64.433 199.073,67.941 201.668,70.819 C204.349,73.792 206.314,77.398 206.257,81.813 C206.101,93.685 206.103,105.559 206.124,117.432 C206.130,120.711 206.628,123.995 206.544,127.267 C206.326,135.767 205.855,144.260 205.589,152.759 C205.297,162.098 205.126,171.441 204.893,180.782 C204.730,187.310 204.437,193.838 204.412,200.367 C204.381,208.428 204.759,216.494 204.582,224.549 C204.494,228.572 203.771,232.619 202.950,236.575 C202.261,239.900 202.311,243.045 203.105,246.331 C203.398,247.545 202.746,248.988 202.481,250.337 C202.507,250.348 202.524,250.356 202.550,250.367 C201.953,251.409 200.744,252.527 200.862,253.480 C201.508,258.656 202.411,263.805 203.370,268.936 C203.941,271.992 204.934,274.972 205.471,278.033 C207.319,288.556 209.052,299.098 210.822,309.635 C211.146,311.569 211.465,313.505 211.742,315.445 C213.355,326.783 214.949,338.123 216.582,349.457 C216.646,349.901 217.047,350.297 217.655,351.338 C220.454,345.308 223.220,339.771 225.624,334.082 C230.814,321.797 235.648,309.360 240.945,297.123 C246.869,283.435 250.378,269.074 253.567,254.596 C254.552,250.122 255.767,245.688 256.513,241.175 C258.011,232.123 259.314,223.036 260.585,213.949 C261.287,208.931 261.775,203.884 262.325,198.846 C262.395,198.212 262.366,197.527 262.203,196.913 C261.160,192.956 262.031,189.163 262.910,185.307 C263.450,182.939 263.920,180.372 263.548,178.033 C263.218,175.962 261.681,174.083 260.304,171.390 C259.729,165.932 259.048,159.466 258.266,152.037 C256.336,155.271 254.451,157.012 251.305,156.976 C251.577,158.726 251.500,160.663 252.208,162.250 C253.515,165.177 253.034,167.366 249.952,169.204 C249.839,168.274 249.452,167.224 249.645,166.296 C250.231,163.479 251.204,160.782 248.701,158.229 C248.085,157.602 248.285,156.042 248.327,154.919 C248.709,144.555 248.998,134.185 249.597,123.833 C250.156,114.179 251.071,104.546 251.807,94.902 C252.511,85.679 256.121,77.313 259.695,68.993 C261.052,65.832 263.376,63.342 267.738,64.377 C271.013,65.155 274.460,65.204 277.767,65.570 C279.185,72.373 280.967,78.476 281.603,84.696 C282.167,90.212 281.688,95.876 281.258,101.443 C280.551,110.596 279.619,119.736 278.573,128.858 C277.918,134.562 276.729,140.204 276.069,145.908 C275.698,149.110 275.887,152.380 275.879,155.620 C275.870,158.894 275.905,162.169 275.971,165.443 C275.994,166.578 276.064,167.731 276.290,168.839 C277.033,172.473 278.468,176.091 278.457,179.711 C278.448,182.651 277.174,185.830 275.690,188.468 C273.241,192.819 272.880,197.306 273.146,202.086 C273.250,203.949 272.671,205.855 272.366,207.735 C272.234,208.547 271.629,209.496 271.882,210.123 C274.221,215.925 271.240,221.934 272.861,227.920 C273.936,231.890 273.202,236.449 272.785,240.696 C272.344,245.170 272.723,249.547 273.868,253.776 C275.183,258.630 273.929,263.283 273.439,267.977 C273.166,270.594 273.114,273.050 273.408,275.688 C273.861,279.759 273.479,283.925 273.416,288.051 C273.378,290.526 273.449,293.022 273.150,295.469 C272.841,297.997 273.865,299.551 275.971,300.635 L275.891,300.590 C275.908,302.687 275.660,304.829 275.998,306.873 C276.764,311.508 274.813,316.318 276.984,320.839 C277.191,321.271 277.422,321.829 277.322,322.252 C275.759,328.815 277.505,335.327 277.590,341.861 C277.595,342.293 277.899,342.720 278.241,343.611 C281.758,338.787 279.133,333.467 280.722,328.687 C281.076,330.053 281.429,331.419 281.968,333.503 C286.634,321.091 290.694,309.293 295.482,297.799 C302.292,281.446 306.017,264.146 311.646,247.444 C314.794,238.103 317.023,228.370 322.637,219.992 C323.435,218.802 323.740,217.281 324.418,215.542 C327.781,217.766 331.399,216.852 335.098,216.318 C351.409,213.964 364.837,219.219 375.225,232.047 C376.238,233.298 376.813,234.905 377.589,236.348 C378.354,237.771 379.115,239.196 380.131,241.092 C388.010,238.206 395.650,235.407 403.207,232.639 C402.375,225.294 402.882,224.172 408.133,221.490 C409.440,222.338 410.755,223.344 412.206,224.081 C413.331,224.651 414.775,225.445 415.821,225.168 C419.937,224.082 423.649,225.995 427.275,226.934 C430.495,227.768 433.350,230.522 436.021,232.830 C438.868,235.289 438.754,238.808 438.799,242.372 C438.851,246.463 440.037,250.531 440.203,254.631 C440.644,265.495 440.844,276.369 441.049,287.241 C441.130,291.515 440.968,295.794 441.689,300.356 C443.393,296.402 445.265,292.511 446.772,288.483 C451.851,274.915 456.991,261.364 461.677,247.659 C462.977,243.857 462.668,239.526 463.319,235.473 C463.804,232.451 464.646,229.486 465.358,226.364 C474.471,226.819 480.951,230.831 485.066,238.084 C490.763,248.123 495.883,258.571 497.506,270.126 C498.464,276.946 500.493,283.836 499.054,291.037 C499.537,289.967 500.020,288.896 500.954,286.824 C502.725,293.826 503.276,300.009 502.236,307.115 C503.706,306.228 504.511,305.742 505.735,305.003 C505.903,306.305 506.053,307.469 506.214,308.725 C506.620,308.595 507.041,308.570 507.082,308.431 C511.930,292.186 516.747,275.931 521.578,259.680 C521.855,258.748 522.270,257.858 522.566,256.931 C523.556,253.823 524.333,251.102 522.153,247.712 C519.648,243.817 519.226,239.008 520.958,234.369 C522.580,230.025 529.727,227.310 533.782,229.484 C537.198,231.316 538.271,233.854 537.477,238.241 C537.052,240.586 535.178,243.102 537.414,245.244 C540.114,247.830 543.036,250.244 546.144,252.306 C547.075,252.924 549.040,252.369 550.371,251.899 C552.359,251.197 554.205,250.094 556.196,249.120 C555.525,242.013 556.775,235.262 558.807,228.650 C559.478,226.465 560.440,224.304 561.645,222.367 C562.937,220.290 564.906,219.285 567.453,218.475 C574.759,216.150 581.777,218.316 588.898,218.874 C592.437,219.151 594.564,221.257 595.449,224.662 C596.378,228.231 598.473,231.334 597.579,235.576 C596.963,238.496 596.344,240.784 594.053,242.703 C591.295,245.012 588.717,247.536 586.039,249.987 C588.260,260.827 595.435,269.034 600.434,279.377 C602.707,275.599 604.648,272.603 606.359,269.481 C610.159,262.546 613.908,255.581 617.562,248.568 C625.422,233.480 632.669,218.099 638.397,202.066 C640.968,194.871 641.807,187.223 640.524,179.717 C639.873,175.914 637.964,172.234 638.375,168.257 C638.926,162.938 636.869,157.965 636.791,152.724 C636.628,141.709 636.679,130.648 635.623,119.705 C634.956,112.785 634.919,105.901 635.075,99.045 C635.254,91.164 636.158,83.250 637.410,75.457 C638.427,69.130 640.371,62.946 642.021,56.729 C642.481,54.994 643.180,53.268 644.074,51.713 C646.812,46.952 652.570,46.989 655.726,51.567 C658.328,55.343 661.147,58.971 663.899,62.643 C667.855,67.922 670.005,73.830 670.461,80.428 C671.219,91.402 669.318,102.122 667.654,112.880 C666.698,119.063 665.599,125.261 665.263,131.491 C665.055,135.358 665.945,139.338 666.704,143.195 C668.927,154.482 670.545,165.824 671.142,177.328 C671.642,186.957 671.688,196.725 673.486,206.135 C674.991,214.015 673.951,222.156 676.612,229.826 C676.836,230.473 676.404,231.359 676.244,232.127 C676.047,233.074 675.584,234.026 675.634,234.954 C676.237,246.212 676.913,257.465 677.620,269.585 C682.369,258.799 689.537,250.069 692.918,239.298 C693.899,236.175 695.507,233.220 697.060,230.312 C698.846,226.971 700.816,223.787 700.816,219.768 C700.816,218.573 701.626,217.302 702.284,216.196 C704.222,212.937 705.317,212.560 708.638,214.158 C713.228,216.366 717.872,218.279 723.001,218.896 C726.191,219.279 728.829,220.564 730.568,223.684 C731.728,225.766 733.789,227.333 735.383,229.186 C737.619,231.785 738.308,235.021 738.590,238.269 C739.059,243.685 739.094,249.140 739.590,254.553 C739.993,258.956 741.099,263.303 741.373,267.707 C741.908,276.322 742.263,284.959 742.349,293.590 C742.433,302.198 741.977,310.811 741.982,319.422 C741.987,326.219 742.331,333.017 742.991,339.861 C752.327,321.408 757.038,301.608 761.103,281.641 C765.163,261.694 767.209,241.444 768.771,220.417 C771.066,221.474 772.305,222.219 773.648,222.609 C774.811,222.947 776.140,223.155 777.310,222.944 C780.995,222.278 783.865,223.380 785.712,226.607 C789.593,233.388 792.359,240.550 792.984,248.448 C793.634,256.656 794.287,264.868 795.204,273.048 C795.993,280.082 797.213,287.067 798.125,294.088 C798.485,296.862 798.660,299.676 798.684,302.474 C798.721,306.759 798.707,310.947 800.072,315.171 C801.030,318.133 800.736,321.500 801.813,324.927 C803.289,322.437 805.032,320.065 806.195,317.436 C811.332,305.832 816.911,294.372 821.172,282.446 C826.204,268.364 831.268,254.195 833.101,239.173 C833.540,235.580 834.408,232.037 835.125,228.480 C835.674,225.762 835.706,225.768 838.890,223.305 C839.976,224.057 841.111,224.941 842.338,225.669 C844.289,226.827 846.242,227.539 848.666,227.878 C855.835,228.883 863.298,230.181 866.351,238.253 C867.413,241.059 867.673,244.168 868.384,247.545 C869.287,246.799 870.206,246.205 870.918,245.422 C874.251,241.764 877.611,238.126 880.804,234.347 C887.171,226.815 895.522,222.364 904.491,218.878 C907.364,217.761 910.249,217.957 913.031,219.536 C917.148,221.872 921.265,224.222 925.503,226.324 C935.019,231.042 939.445,239.167 941.117,249.191 C941.629,252.257 941.981,255.350 942.479,258.953 C945.227,257.324 947.606,255.710 950.161,254.456 C953.005,253.060 954.916,250.593 957.349,248.789 C961.258,245.891 965.539,243.467 969.793,241.073 C972.489,239.555 975.365,237.607 978.261,237.419 C980.849,237.251 983.614,239.145 986.216,240.318 C986.986,240.666 988.044,241.741 987.957,242.333 C987.785,243.504 987.144,244.850 986.256,245.609 ZM904.784,324.674 C899.845,333.192 894.988,341.789 893.953,351.854 C893.790,353.450 894.360,355.122 894.665,357.292 C896.829,356.379 897.866,355.873 898.948,355.497 C903.258,353.998 906.300,351.218 907.554,346.767 C908.532,343.299 909.734,339.816 910.085,336.265 C910.737,329.683 910.840,323.047 911.233,315.216 C908.602,319.045 906.486,321.739 904.784,324.674 ZM19.920,485.540 C19.797,485.826 19.673,486.111 19.549,486.397 C20.851,487.104 22.153,487.810 23.455,488.517 C23.696,488.094 23.936,487.672 24.177,487.249 C22.758,486.679 21.339,486.110 19.920,485.540 ZM44.980,196.336 C44.624,198.273 44.268,200.209 43.913,202.146 C44.218,202.217 44.524,202.288 44.829,202.358 C45.148,200.406 45.467,198.454 45.787,196.502 C45.517,196.447 45.248,196.391 44.980,196.336 ZM58.840,174.945 C65.755,158.505 71.068,141.578 73.766,123.923 C74.364,120.008 74.995,115.795 72.253,111.337 C66.550,117.090 64.263,123.876 62.193,130.732 C60.676,135.758 58.708,140.798 58.245,145.949 C57.766,151.279 55.227,155.993 55.236,161.581 C55.243,166.505 52.059,171.375 50.701,176.382 C49.779,179.782 46.951,183.226 50.059,186.979 C50.336,187.313 50.024,188.224 49.850,188.828 C49.175,191.184 48.374,193.506 47.770,195.879 C47.539,196.786 47.711,197.796 47.700,198.759 C49.137,197.509 49.874,196.254 50.439,194.926 C53.264,188.276 56.038,181.605 58.840,174.945 ZM73.509,258.676 C69.622,255.042 64.834,252.853 59.966,250.855 C59.072,250.488 57.557,250.223 57.426,249.657 C56.858,247.201 55.148,248.042 53.739,248.113 C52.611,248.169 51.495,248.446 49.793,248.717 C49.286,251.732 48.739,254.627 48.331,257.542 C48.068,259.418 48.982,260.813 50.789,261.253 C55.745,262.461 60.693,263.825 65.728,264.545 C69.529,265.089 73.459,264.737 78.483,264.798 C76.417,262.220 75.169,260.227 73.509,258.676 ZM80.319,274.719 C68.719,275.069 57.921,273.279 46.984,270.180 C46.459,273.164 45.785,275.851 45.540,278.576 C44.242,292.993 42.844,307.406 41.891,321.847 C41.160,332.935 41.040,344.064 40.641,355.174 C40.442,360.686 40.399,366.211 39.979,371.707 C39.328,380.228 38.684,388.707 40.079,397.236 C40.706,401.068 41.347,405.101 40.807,408.874 C40.016,414.403 40.388,419.861 40.198,425.348 C40.112,427.811 40.088,430.169 40.471,432.583 C40.935,435.500 41.137,438.469 41.761,441.348 C42.139,443.090 41.740,445.223 44.045,447.213 C46.880,438.905 49.671,431.200 52.127,423.389 C54.351,416.318 56.192,409.127 58.233,401.997 C62.040,388.705 66.096,375.479 68.355,361.792 C70.123,351.085 71.782,340.353 73.897,329.714 C76.719,315.509 78.362,301.148 80.110,286.801 C80.577,282.960 80.267,279.024 80.319,274.719 ZM142.209,252.608 C146.997,245.536 148.459,237.878 145.458,229.705 C144.463,226.996 142.376,225.555 138.575,226.054 C137.469,229.726 136.058,233.541 135.196,237.477 C133.968,243.084 133.100,248.773 132.177,254.442 C131.953,255.816 132.112,257.252 132.094,258.758 C135.561,258.041 140.456,255.198 142.209,252.608 ZM202.432,250.315 C202.324,249.523 202.213,248.710 202.048,247.507 C200.885,249.583 200.868,249.642 202.432,250.315 ZM263.791,147.160 C261.489,149.572 261.489,149.572 262.545,155.818 C265.998,153.539 266.307,151.392 263.791,147.160 ZM274.530,180.657 C274.650,179.357 274.770,178.058 274.890,176.758 C274.538,176.758 274.186,176.758 273.833,176.758 C273.818,178.038 273.802,179.319 273.787,180.599 C274.035,180.618 274.283,180.638 274.530,180.657 ZM270.208,81.505 C268.239,87.561 268.954,93.614 270.190,99.655 C271.547,93.581 271.767,87.527 270.208,81.505 ZM356.374,228.229 C355.958,228.029 355.466,227.979 355.004,227.885 C352.049,227.281 349.094,226.683 346.037,226.063 C346.945,232.463 347.811,238.571 348.717,244.958 C356.014,246.385 363.224,244.344 370.689,243.193 C368.472,239.170 359.264,229.621 356.374,228.229 ZM373.698,252.102 C365.096,252.880 356.902,253.621 347.945,254.431 C347.377,260.285 346.692,265.990 346.308,271.715 C345.989,276.472 346.149,281.259 345.874,286.019 C345.414,293.972 344.310,301.916 344.349,309.859 C344.386,317.231 345.370,324.621 346.323,331.953 C346.749,335.230 347.120,338.735 349.761,342.068 C353.174,335.562 356.452,329.514 359.545,323.374 C364.990,312.565 368.300,301.003 370.735,289.228 C372.400,281.181 373.465,272.997 374.484,264.835 C375.022,260.527 375.688,256.055 373.698,252.102 ZM489.892,356.058 C489.290,354.297 489.872,351.289 486.304,351.035 C486.154,352.049 485.552,353.399 485.956,353.859 C487.829,355.980 487.913,358.328 487.630,360.906 C487.591,361.262 488.635,361.738 489.948,362.756 C489.982,359.948 490.493,357.812 489.892,356.058 ZM497.988,321.354 C498.241,324.127 498.661,326.328 498.574,328.509 C498.492,330.558 497.874,332.587 497.290,335.698 C502.503,329.148 501.074,324.981 497.988,321.354 ZM583.407,225.978 C580.223,224.583 578.463,225.697 578.591,229.288 C578.693,232.121 579.278,234.936 579.721,238.309 C586.738,234.955 585.394,233.090 585.851,227.474 C585.067,226.986 584.288,226.364 583.407,225.978 ZM596.292,334.864 C594.842,335.422 593.512,335.934 591.920,336.548 C590.052,333.266 588.249,330.099 586.235,326.560 C580.858,339.568 570.967,350.386 568.902,365.084 C572.363,366.824 575.823,367.227 579.437,366.792 C587.861,365.780 596.161,364.453 602.404,357.825 C601.857,357.212 601.353,356.646 600.815,356.043 C603.035,355.132 604.937,354.351 607.059,353.481 C604.727,346.227 600.315,340.782 596.292,334.864 ZM653.835,63.129 C653.465,69.658 654.023,75.825 655.261,81.916 C657.023,90.587 658.981,99.218 660.900,108.072 C666.563,94.978 662.758,69.683 653.835,63.129 ZM670.129,234.913 C668.954,237.042 667.506,239.262 670.624,240.598 C670.459,238.703 670.294,236.808 670.129,234.913 ZM671.713,255.673 C669.948,250.682 670.581,245.670 670.628,240.642 C670.628,240.634 670.627,240.626 670.626,240.619 C669.606,240.522 668.585,240.425 667.491,240.321 C667.182,244.923 666.569,249.098 666.698,253.251 C666.896,259.630 667.581,265.996 668.142,272.360 C668.184,272.845 668.884,273.272 669.278,273.726 C668.541,274.737 667.629,275.667 667.108,276.779 C666.412,278.266 668.744,277.915 668.725,278.977 C668.695,280.600 668.626,282.252 668.294,283.834 C667.704,286.648 667.854,289.393 668.435,292.211 C669.386,290.780 669.831,289.289 670.331,287.816 C670.908,286.120 672.009,284.449 672.039,282.752 C672.104,279.046 671.647,275.331 671.331,271.625 C671.319,271.490 670.535,271.422 670.111,271.322 C671.120,268.764 672.129,266.207 673.257,263.348 C672.543,262.801 671.822,262.248 671.115,261.707 C671.360,259.672 672.322,257.394 671.713,255.673 ZM814.847,148.920 C813.807,150.139 813.238,151.762 812.379,153.333 C807.145,154.198 803.330,156.643 801.385,162.214 C800.490,164.779 798.316,167.116 794.417,167.243 C790.748,167.362 788.863,171.015 787.235,173.988 C784.974,178.117 783.167,182.494 781.060,186.712 C780.587,187.660 779.679,188.390 778.654,189.591 C776.967,183.464 776.406,177.771 776.784,172.028 C777.534,160.619 779.799,149.473 783.363,138.621 C785.729,131.418 788.445,124.331 790.919,117.162 C791.506,115.461 791.828,113.655 792.134,111.874 C792.735,108.384 794.633,106.254 798.597,105.592 C802.564,110.173 808.079,112.079 814.064,112.863 C818.539,113.449 821.505,116.272 823.952,119.650 C824.844,120.881 825.526,122.828 825.255,124.248 C823.549,133.184 820.938,141.786 814.847,148.920 ZM276.215,287.783 C276.214,287.678 276.215,287.575 276.214,287.470 C276.250,287.597 276.281,287.724 276.319,287.851 C276.319,287.851 276.238,287.806 276.215,287.783 ZM276.192,278.338 C276.192,281.374 276.193,284.412 276.214,287.470 C275.352,284.458 275.091,281.423 276.192,278.338 ZM279.155,174.092 C279.237,174.666 279.320,175.241 279.403,175.815 C279.258,175.864 279.113,175.913 278.968,175.963 C278.968,175.344 278.968,174.726 278.968,174.108 C279.030,174.103 279.092,174.098 279.155,174.092 ZM280.055,188.045 C279.954,191.099 279.256,194.190 279.560,197.190 C280.170,203.211 278.170,208.294 274.378,212.987 C274.953,210.368 275.709,207.771 276.040,205.120 C276.273,203.255 276.462,201.065 275.710,199.475 C274.702,197.343 275.325,195.738 275.976,193.894 C277.111,190.681 278.169,187.442 279.583,183.256 C279.795,185.271 280.101,186.664 280.055,188.045 ZM281.177,243.140 C281.260,241.869 281.343,240.599 281.420,239.410 C281.049,239.253 280.797,239.141 280.794,239.147 C279.738,241.402 279.262,243.678 280.629,245.994 L280.675,246.018 C280.669,246.019 280.663,246.019 280.657,246.021 C280.645,246.031 280.635,246.040 280.623,246.050 C280.624,246.042 280.625,246.034 280.626,246.026 C279.179,246.315 277.721,246.002 277.845,244.352 C278.173,240.002 276.667,235.456 279.097,231.313 C278.443,230.654 277.150,229.894 277.236,229.353 C277.854,225.459 278.207,221.444 280.329,217.950 C280.833,224.015 283.098,230.019 280.366,236.064 C282.818,238.329 283.113,239.804 281.177,243.140 ZM280.623,246.050 C280.372,248.593 280.120,251.142 279.785,254.539 C277.034,250.050 277.227,248.940 280.623,246.050 Z" class="cls-2"/>
    <path d="M390.799,468.988 C390.564,469.070 390.190,468.754 389.828,468.600 C389.597,469.255 389.542,470.064 388.438,470.020 C387.298,469.975 387.444,469.096 387.110,468.250 C386.641,469.093 386.233,469.827 385.598,470.967 C385.453,470.203 385.395,469.896 385.337,469.587 C383.960,470.115 382.862,470.920 382.156,472.289 C381.829,472.925 381.159,473.368 380.527,472.592 C379.652,473.276 378.774,473.961 377.607,474.873 C377.741,475.818 377.111,476.847 375.777,477.601 C375.463,477.255 375.113,476.871 374.770,476.493 C373.272,477.482 372.024,478.675 370.655,479.714 C370.139,480.106 369.914,480.874 369.541,481.462 C369.078,482.194 368.951,483.311 367.680,483.142 C367.028,484.028 366.711,485.270 364.986,485.615 C365.350,484.934 365.552,484.555 365.755,484.175 C366.067,483.921 366.380,483.666 366.693,483.412 C367.018,483.304 367.344,483.196 367.669,483.088 C367.804,482.595 367.938,482.101 368.073,481.609 C367.882,481.557 367.692,481.505 367.502,481.453 C367.232,482.106 366.962,482.759 366.693,483.412 C366.380,483.666 366.067,483.921 365.755,484.175 C365.723,482.281 366.641,480.662 367.886,479.499 C369.954,477.567 372.349,475.982 374.593,474.234 C375.112,473.829 375.597,473.760 376.294,473.758 C377.951,473.753 378.938,472.585 379.561,471.159 C380.085,471.084 380.720,471.175 381.077,470.903 C381.913,470.266 382.615,469.453 383.371,468.712 L385.611,467.124 C386.095,466.205 386.631,465.310 387.051,464.363 C387.669,462.969 387.647,462.988 389.138,463.574 C389.687,463.789 390.343,463.731 390.894,463.791 C391.162,464.279 391.357,464.818 391.704,465.229 C392.722,466.436 392.282,468.474 390.799,468.988 ZM361.445,485.436 C361.433,485.441 361.419,485.447 361.407,485.452 C361.401,485.424 361.405,485.402 361.397,485.372 C361.397,485.372 361.441,485.413 361.454,485.425 C361.717,484.250 362.709,483.902 363.995,483.135 C363.493,484.640 363.133,485.721 362.683,487.073 C362.155,486.374 361.797,485.900 361.445,485.436 ZM359.950,487.891 C359.885,487.007 359.852,486.547 359.819,486.103 C360.390,485.872 360.901,485.664 361.407,485.452 C361.630,486.568 360.491,486.805 359.950,487.891 ZM356.969,496.026 C356.523,494.596 357.694,493.074 356.360,491.984 C356.720,491.624 357.157,491.307 357.391,490.879 C357.718,490.282 357.235,490.273 356.845,490.239 C357.332,489.518 357.818,488.797 358.305,488.076 C358.471,488.126 358.637,488.176 358.804,488.226 C358.760,489.005 358.998,489.975 358.621,490.525 C357.500,492.158 357.405,494.024 356.969,496.026 ZM356.735,490.328 C356.743,490.296 356.751,490.264 356.759,490.231 C356.787,490.234 356.816,490.237 356.845,490.239 C356.831,490.261 356.816,490.283 356.801,490.304 C356.779,490.312 356.757,490.320 356.735,490.328 ZM356.317,492.025 C356.319,492.015 356.322,492.005 356.324,491.995 C356.331,491.985 356.335,491.974 356.342,491.965 L356.317,492.025 ZM356.360,491.984 C356.346,491.998 356.330,492.011 356.317,492.025 C356.317,492.025 356.342,491.965 356.342,491.965 C356.350,491.971 356.353,491.978 356.360,491.984 ZM354.670,496.818 C354.170,499.341 354.693,501.802 355.068,504.261 C355.859,509.455 355.996,514.674 355.889,519.910 C355.873,520.699 355.916,521.489 355.875,522.275 C355.798,523.760 355.574,525.246 355.603,526.727 C355.647,528.936 355.657,531.177 356.041,533.340 C356.788,537.547 356.646,541.773 356.650,545.997 C356.651,547.025 356.277,548.052 355.797,549.048 C355.770,548.482 355.707,547.916 355.724,547.352 C355.746,546.595 355.972,545.809 355.093,545.308 C355.022,545.267 355.227,544.746 355.304,544.446 C354.936,544.507 354.431,544.291 354.394,544.976 C354.328,546.167 354.228,547.355 354.135,548.544 C354.041,549.748 353.940,550.952 353.839,552.156 C353.827,552.298 353.830,552.458 353.764,552.575 C353.470,553.099 353.154,553.611 352.845,554.127 C354.085,554.769 352.566,555.137 352.673,555.721 C352.786,556.338 352.687,557.011 352.583,557.644 C352.482,558.259 352.365,558.913 352.068,559.446 C350.986,561.391 349.833,563.298 348.684,565.206 C348.547,565.433 348.280,565.591 348.055,565.755 C346.086,567.192 343.856,568.044 341.512,568.626 C341.261,568.688 340.949,568.604 340.687,568.519 C339.402,568.101 338.128,568.293 336.841,568.516 C334.001,569.008 332.172,567.737 331.499,564.841 C331.845,564.791 332.375,564.571 332.510,564.716 C334.101,566.429 335.888,565.616 337.797,565.253 C337.702,564.092 338.217,563.311 339.253,562.893 C340.034,562.578 340.898,562.398 341.283,561.480 C341.309,561.418 341.917,561.600 342.087,561.635 C343.142,559.980 343.752,558.210 343.828,556.285 C343.831,556.220 343.885,556.153 343.929,556.097 C345.289,554.361 345.401,552.232 345.607,550.197 C345.690,549.374 346.525,548.382 345.506,547.542 C345.440,547.488 345.592,547.171 345.643,546.976 C346.432,547.385 346.314,547.005 346.343,546.364 C346.445,544.122 346.207,541.892 346.216,539.656 C346.217,539.464 346.098,539.101 346.051,539.103 C344.656,539.182 345.162,537.994 345.051,537.423 C344.629,535.262 344.339,533.072 344.081,530.884 C343.873,529.108 343.829,527.312 343.628,525.534 C343.169,521.472 342.658,517.415 342.168,513.354 C341.148,515.515 340.110,517.714 339.099,519.856 C339.031,519.642 338.938,519.347 338.778,518.843 C338.022,520.854 337.569,522.723 336.636,524.312 C335.987,525.418 335.802,526.427 335.834,527.606 C335.845,528.013 335.743,528.437 335.620,528.830 C335.315,529.803 334.962,530.760 334.641,531.728 C334.176,533.126 334.019,534.742 333.196,535.880 C331.907,537.663 331.241,539.568 330.859,541.657 C330.555,543.324 330.138,544.974 329.905,546.650 C329.681,548.266 329.513,549.906 329.524,551.534 C329.546,554.530 330.225,557.531 329.366,560.512 C327.699,558.521 327.441,556.107 327.518,553.687 C327.612,550.706 327.862,547.721 328.214,544.758 C328.378,543.375 329.022,542.055 329.302,540.676 C329.914,537.672 331.494,535.022 332.140,531.973 C332.794,528.883 333.863,525.753 335.817,523.035 C336.884,521.551 336.982,519.500 338.177,517.998 C338.650,517.405 339.065,516.768 339.529,516.167 C341.054,514.190 341.481,511.763 342.216,509.475 C342.388,508.941 342.039,508.246 341.944,507.623 C341.711,506.090 341.459,504.560 341.264,503.023 C341.004,500.975 340.764,498.924 340.563,496.870 C340.180,492.952 339.798,489.033 339.475,485.110 C339.141,481.035 338.879,476.955 338.574,472.878 C338.566,472.772 338.428,472.676 338.232,472.421 C337.847,473.470 337.440,474.414 337.153,475.393 C336.002,479.323 334.552,483.119 332.448,486.655 C332.187,487.092 332.148,487.754 332.226,488.280 C332.400,489.462 332.277,490.561 331.651,491.575 C331.463,491.880 331.150,492.112 330.884,492.367 C330.492,492.743 330.092,493.110 329.628,493.543 C329.167,493.412 328.627,493.257 328.001,493.078 C327.381,493.930 326.914,494.964 326.120,495.574 C324.796,496.591 323.317,497.845 321.560,497.477 C319.883,497.126 318.356,496.024 317.898,494.217 C316.651,489.298 315.461,484.367 314.961,479.290 C314.582,475.443 313.972,471.619 313.496,467.781 C313.311,466.288 313.209,464.785 312.857,463.219 C312.600,464.110 312.463,465.058 312.062,465.879 C311.063,467.925 310.298,470.054 309.613,472.212 C309.018,474.083 308.770,476.106 307.926,477.848 C306.410,480.973 305.647,484.272 304.857,487.605 C304.487,489.168 303.672,490.626 303.051,492.129 C303.004,492.242 302.915,492.402 302.819,492.424 C300.721,492.895 299.577,494.636 298.078,495.915 C296.168,497.544 294.122,497.098 292.495,495.249 C289.181,491.485 288.533,486.933 288.177,482.243 C287.906,478.682 287.594,475.124 287.399,471.559 C287.270,469.217 287.329,466.865 287.280,464.517 C287.184,460.015 287.073,455.513 286.960,451.011 C286.955,450.802 286.874,450.595 286.795,450.240 C285.759,451.482 284.721,452.594 283.841,453.819 C282.970,455.032 282.211,456.334 281.490,457.645 C280.755,458.980 279.973,460.321 279.486,461.752 C278.449,464.797 278.447,464.952 277.578,465.169 C277.365,466.298 277.230,467.387 276.949,468.437 C275.805,472.721 274.543,476.976 273.482,481.280 C273.063,482.978 273.055,484.778 272.804,487.036 C273.527,486.421 273.849,486.147 274.310,485.754 C274.387,486.281 274.478,486.684 274.499,487.091 C274.607,489.153 274.549,491.237 274.835,493.274 C275.102,495.181 274.293,496.269 272.752,497.075 C272.330,497.296 271.916,497.533 271.285,497.881 C271.403,497.211 271.490,496.717 271.573,496.237 L270.018,497.262 C268.215,496.918 268.697,498.663 268.275,499.551 C266.389,500.262 264.584,500.946 262.554,500.089 C260.905,495.144 260.430,489.984 260.303,484.753 C260.233,481.835 259.914,478.923 259.722,476.007 C259.416,471.381 259.125,466.753 258.820,462.127 C258.779,461.506 258.689,460.889 258.322,460.179 C257.766,461.376 257.003,462.522 256.690,463.780 C255.281,469.446 252.918,474.739 250.573,480.050 C248.814,484.032 246.850,487.967 246.088,492.292 C245.745,494.238 245.118,495.986 244.085,497.632 C243.622,498.371 243.160,499.051 242.212,499.281 C241.747,499.394 241.173,499.668 240.960,500.045 C240.711,500.484 240.582,500.605 240.054,500.587 C239.213,500.557 238.365,500.799 237.518,500.817 C237.049,500.827 236.576,500.616 235.964,500.471 C237.299,498.778 237.299,498.778 236.283,497.726 C236.258,497.063 237.967,497.204 237.101,496.122 C237.865,495.261 236.408,494.879 236.705,494.071 C236.998,494.093 237.322,494.117 237.798,494.153 C237.880,492.819 237.788,491.251 239.781,491.315 C240.166,489.958 240.549,488.610 240.932,487.259 C241.336,487.394 241.601,487.482 241.682,487.509 C244.922,483.854 243.752,479.182 244.980,475.062 C244.817,475.022 244.653,474.983 244.489,474.943 C244.200,476.096 243.822,477.236 243.646,478.406 C243.455,479.672 243.452,480.967 243.371,482.193 C242.856,482.456 242.417,482.681 241.971,482.909 C241.355,481.392 242.241,480.201 242.992,478.904 C242.560,478.601 242.173,478.328 241.870,478.115 C241.679,476.036 241.495,474.028 241.297,471.863 C240.934,471.969 240.624,472.059 240.314,472.149 C240.631,470.140 240.662,469.038 240.325,468.325 C240.321,469.720 240.317,470.933 240.314,472.145 C239.349,475.988 239.798,479.895 239.779,483.781 C239.775,484.639 239.705,485.497 239.646,486.354 C239.611,486.871 239.370,487.107 238.862,486.889 C238.740,486.555 238.472,486.153 238.578,485.925 C239.052,484.913 239.323,483.963 238.722,482.894 C238.573,482.630 238.715,482.197 238.742,481.844 C238.820,480.802 238.906,479.760 238.639,478.604 C238.322,479.061 238.006,479.518 237.447,480.327 C237.211,478.742 236.834,477.456 236.884,476.187 C236.934,474.960 237.001,473.792 236.431,472.574 C236.594,473.919 234.656,473.597 234.724,475.085 C234.776,476.196 234.095,477.341 233.698,478.605 C233.179,478.423 232.609,478.222 231.747,477.918 C229.584,482.470 227.414,487.017 225.267,491.575 C224.934,492.282 224.645,493.023 224.448,493.778 C223.916,495.815 222.935,497.438 220.910,498.358 C220.408,498.587 220.105,499.276 219.737,499.773 C219.208,500.490 218.743,501.015 217.622,500.716 C216.700,500.470 215.564,500.510 214.658,500.818 C212.753,501.465 211.821,500.165 210.871,499.095 C210.289,498.440 209.789,497.418 209.809,496.573 C209.893,492.931 208.807,489.363 209.337,485.686 C209.906,481.748 210.040,477.744 210.702,473.826 C211.197,470.900 212.130,468.032 213.054,465.199 C213.780,462.971 214.789,460.835 215.491,458.470 C214.985,458.953 214.433,459.397 213.983,459.928 C213.161,460.900 212.392,461.919 211.614,462.928 C210.455,464.428 209.279,465.916 208.163,467.447 C206.754,469.382 205.373,471.339 204.022,473.315 C201.765,476.616 200.307,480.300 198.935,484.023 C198.663,484.761 198.476,485.547 198.094,486.223 C197.356,487.528 197.209,488.884 197.252,490.357 C197.299,491.984 197.439,493.741 196.911,495.218 C196.311,496.894 195.044,498.343 193.988,499.835 C193.844,500.037 193.235,499.911 192.866,499.935 C192.347,500.853 191.850,501.854 191.244,502.783 C189.668,505.199 184.984,504.257 184.106,501.032 C183.156,497.539 182.757,494.019 182.287,490.468 C181.453,484.174 181.595,477.875 181.771,471.566 C181.865,468.198 182.010,464.831 182.125,461.463 C182.144,460.925 182.131,460.387 182.132,459.848 C181.985,459.816 181.839,459.784 181.692,459.751 C181.276,460.381 180.771,460.969 180.460,461.647 C178.697,465.487 176.930,469.328 175.269,473.213 C174.484,475.049 173.933,476.985 173.280,478.877 C173.235,479.007 173.156,479.190 173.209,479.280 C173.854,480.382 172.927,481.139 172.734,482.054 C172.552,482.913 171.779,483.291 171.710,484.023 C171.651,484.650 172.128,485.454 171.878,485.917 C170.555,488.363 170.075,491.424 167.054,492.741 C167.049,494.399 167.043,496.042 167.046,497.685 C167.046,497.732 167.175,497.829 167.196,497.817 C167.293,497.764 167.374,497.683 167.460,497.611 C167.935,499.738 166.896,501.590 166.364,503.680 C166.192,503.205 166.066,502.858 165.889,502.368 C165.311,502.806 164.492,503.105 164.394,503.559 C164.008,505.352 162.640,503.334 162.109,504.239 C162.042,504.138 161.998,503.997 161.903,503.943 C161.043,503.446 162.025,501.939 160.674,501.722 C161.012,500.906 160.511,500.060 161.080,499.110 C161.575,498.285 161.163,496.918 161.152,495.791 C161.675,496.754 162.198,497.716 162.721,498.679 C162.550,496.888 161.964,495.231 162.143,493.453 C162.222,492.673 162.232,491.875 162.167,491.094 C162.079,490.041 162.651,488.851 161.583,487.979 C162.375,486.985 161.682,485.916 161.683,484.896 C161.684,482.476 161.485,480.056 161.367,477.637 C160.638,479.727 160.680,481.841 160.874,483.951 C161.225,487.783 161.018,491.565 160.014,495.291 C159.889,494.831 159.644,494.368 159.659,493.913 C159.728,491.844 159.985,489.775 159.939,487.711 C159.915,486.615 159.411,485.529 159.049,484.156 C158.806,484.611 158.673,484.861 158.532,485.124 C157.744,483.082 157.965,480.955 157.890,478.849 C157.850,477.725 157.532,476.613 157.370,475.492 C157.270,474.797 157.147,474.091 157.171,473.394 C157.242,471.331 157.398,469.270 157.476,467.207 C157.488,466.887 157.364,466.399 157.137,466.262 C156.143,465.662 156.261,464.693 156.184,463.785 C156.015,461.794 155.881,459.799 155.696,457.810 C155.650,457.320 155.462,456.843 155.259,456.044 C154.712,457.181 154.329,458.108 153.838,458.975 C152.745,460.901 151.597,462.797 150.477,464.709 C150.370,464.891 150.281,465.093 150.227,465.297 C149.099,469.593 147.867,473.866 146.909,478.200 C146.530,479.918 146.584,481.789 146.762,483.558 C147.028,486.205 147.119,488.793 146.666,491.444 C146.423,492.859 146.788,494.378 146.883,495.850 C146.961,497.066 147.107,498.282 147.095,499.497 C147.090,500.039 146.772,500.578 146.597,501.118 C146.427,501.100 146.258,501.081 146.089,501.063 C145.902,499.783 145.716,498.504 145.485,496.917 C144.951,498.695 144.515,500.148 144.079,501.601 C143.958,501.581 143.838,501.560 143.717,501.539 C143.468,500.881 143.219,500.222 142.847,499.241 C142.329,499.600 141.666,499.814 141.573,500.174 C141.365,500.983 141.191,501.552 140.186,501.262 C140.157,501.254 140.025,501.653 139.918,501.851 C139.412,502.792 138.907,503.735 138.373,504.661 C138.311,504.767 138.061,504.757 137.906,504.819 C136.607,505.333 135.090,504.890 133.844,505.795 C133.603,505.970 132.932,505.558 132.356,505.386 C132.415,503.462 131.330,501.854 130.995,500.000 C129.882,493.842 129.552,487.623 129.338,481.400 C129.100,474.524 128.962,467.640 128.995,460.760 C129.012,457.043 129.486,453.327 129.731,449.610 C129.806,448.465 129.804,447.316 129.837,446.169 C129.887,444.436 130.465,443.750 132.138,443.461 C132.914,443.327 133.690,443.129 134.470,443.104 C136.978,443.026 138.628,444.352 139.798,446.449 C141.387,449.300 142.098,452.436 142.847,455.565 C143.593,458.679 144.363,461.787 145.195,465.197 C145.607,464.646 145.919,464.314 146.134,463.928 C148.932,458.897 151.873,453.968 155.677,449.597 C156.464,448.693 156.992,447.553 157.563,446.481 C158.400,444.907 158.558,444.898 160.422,445.364 C161.847,445.720 163.336,445.830 164.799,446.028 C167.193,446.352 168.794,447.649 169.250,450.012 C169.680,452.237 169.856,454.510 170.137,456.763 C170.180,457.111 170.186,457.463 170.227,458.071 C170.636,457.837 170.889,457.693 171.124,457.559 C171.588,460.863 172.061,464.233 172.535,467.603 C172.672,467.615 172.810,467.627 172.947,467.639 C173.926,465.829 174.945,464.039 175.876,462.205 C177.566,458.875 179.197,455.517 180.869,452.178 C181.157,451.603 181.587,451.094 181.841,450.507 C182.082,449.949 182.288,449.334 182.315,448.735 C182.385,447.163 182.936,446.487 184.386,446.960 C185.676,447.381 186.778,447.072 187.961,446.858 C189.871,446.513 191.504,447.631 191.981,449.499 C192.350,450.940 192.710,452.409 193.318,453.757 C194.381,456.117 194.416,458.662 194.672,461.119 C195.273,466.885 195.531,472.685 195.968,478.469 C196.031,479.297 196.315,480.108 196.591,481.355 C197.770,479.396 198.787,477.793 199.721,476.142 C203.447,469.554 207.926,463.499 212.866,457.785 C215.305,454.965 217.949,452.324 220.459,449.564 C221.519,448.398 222.492,447.151 223.471,445.914 C224.149,445.059 224.848,444.744 226.042,444.967 C228.477,445.424 230.913,445.712 232.479,448.221 C232.979,446.744 233.404,445.487 233.837,444.207 C235.391,444.301 236.550,444.609 237.711,445.569 C240.383,447.776 242.017,450.513 242.848,453.809 C243.388,455.950 244.007,458.074 244.475,460.231 C244.716,461.338 244.736,462.498 244.797,463.638 C244.844,464.539 244.801,465.445 245.138,466.385 C245.264,466.166 245.391,465.946 245.575,465.625 C246.458,468.127 245.076,470.508 245.414,472.995 C245.733,475.341 245.120,477.814 245.063,480.252 C246.684,477.897 245.353,475.025 246.403,472.535 C247.962,472.549 247.422,473.830 247.831,474.702 C248.842,472.429 249.897,470.175 250.856,467.881 C253.098,462.521 255.234,457.116 257.539,451.785 C258.505,449.550 259.063,447.333 258.546,444.790 C259.039,444.603 259.562,444.194 259.913,444.309 C261.427,444.804 262.887,444.307 264.369,444.263 C266.067,444.211 267.211,445.107 267.636,446.736 C268.103,448.527 268.557,450.323 269.068,452.102 C270.637,457.561 271.422,463.141 271.739,468.798 C271.769,469.329 271.954,469.850 272.160,470.812 C273.613,467.756 274.860,465.114 276.122,462.481 C278.498,457.530 281.598,452.990 284.281,448.213 C284.909,447.094 285.434,445.914 285.947,444.736 C286.595,443.244 287.513,442.684 289.121,442.919 C289.619,442.992 290.110,443.158 290.608,443.179 C293.970,443.320 295.642,445.413 296.842,448.262 C297.999,451.008 298.297,453.933 298.978,456.778 C300.140,461.641 301.327,466.498 302.452,471.369 C302.932,473.449 303.276,475.561 303.701,477.655 C303.782,478.054 303.953,478.435 304.181,479.119 C304.666,478.180 305.070,477.531 305.352,476.833 C307.794,470.809 310.222,464.780 312.624,458.740 C312.828,458.228 312.887,457.630 312.890,457.071 C312.906,454.065 312.845,451.058 312.909,448.053 C312.921,447.482 313.245,446.790 313.653,446.381 C314.583,445.452 315.655,444.860 317.118,444.832 C319.433,444.786 321.527,445.402 323.459,446.516 C324.916,447.356 325.599,448.856 325.637,450.505 C325.728,454.530 326.547,458.444 327.263,462.377 C327.646,464.479 327.856,466.622 328.379,468.686 C329.184,471.867 330.188,474.997 331.122,478.145 C331.176,478.326 331.362,478.468 331.666,478.860 C332.490,477.111 333.233,475.502 334.002,473.906 C335.122,471.581 336.217,469.241 337.409,466.952 C338.221,465.394 338.639,463.789 338.784,462.034 C339.138,457.756 339.652,453.492 340.063,449.219 C340.178,448.014 340.119,446.793 340.213,445.586 C340.262,444.964 340.363,444.301 340.637,443.755 C340.954,443.123 341.723,442.742 342.267,443.243 C343.451,444.334 344.863,443.944 346.165,444.012 C347.624,444.088 348.836,444.449 349.775,445.587 C349.911,445.753 350.082,445.889 350.242,446.034 C353.634,449.091 353.693,449.090 353.761,453.710 C353.807,456.888 354.586,459.930 355.106,463.029 C355.518,465.482 355.484,468.013 355.587,470.512 C355.725,473.843 355.275,477.166 355.562,480.513 C355.686,481.968 355.137,483.474 354.941,484.963 C354.673,486.993 354.449,489.029 354.187,491.229 C355.093,490.909 355.915,490.618 356.735,490.328 C356.598,490.883 356.461,491.439 356.324,491.995 C355.242,493.421 355.005,495.129 354.670,496.818 ZM355.305,544.438 C355.307,543.670 355.309,542.901 355.312,541.808 C354.475,542.969 354.477,543.743 355.305,544.438 ZM159.064,480.836 C159.001,480.842 158.937,480.848 158.874,480.853 C158.873,481.271 158.871,481.688 158.870,482.106 C158.980,482.127 159.090,482.147 159.200,482.168 C159.154,481.724 159.109,481.280 159.064,480.836 ZM161.370,473.523 C161.368,474.425 161.365,475.328 161.361,476.710 C162.257,475.364 161.782,474.441 161.370,473.523 ZM166.686,500.738 C166.793,500.709 166.900,500.679 167.007,500.649 C166.870,500.089 166.734,499.530 166.597,498.970 C166.439,499.025 166.281,499.079 166.124,499.133 C166.311,499.668 166.498,500.203 166.686,500.738 ZM166.391,497.001 C166.393,496.457 166.395,496.000 166.396,495.364 C165.349,496.035 165.389,496.492 166.391,497.001 ZM165.591,493.490 C164.958,491.021 165.284,488.478 164.582,486.004 C164.129,489.487 164.104,492.966 164.964,496.431 C165.334,495.455 165.820,494.382 165.591,493.490 ZM167.519,473.703 C167.519,473.455 167.172,473.206 166.701,472.580 C166.464,476.318 166.256,479.585 166.049,482.851 C166.178,482.893 166.308,482.934 166.438,482.976 C166.570,482.598 166.755,482.229 166.826,481.840 C167.043,480.638 167.026,479.356 167.453,478.240 C168.049,476.686 167.521,475.209 167.519,473.703 ZM169.250,471.680 C169.284,472.194 169.318,472.709 169.351,473.223 C169.503,473.221 169.655,473.220 169.806,473.219 C169.837,472.705 169.868,472.191 169.898,471.677 C169.682,471.678 169.466,471.679 169.250,471.680 ZM232.849,466.131 C232.615,463.864 232.441,461.588 232.346,459.311 C232.266,457.389 232.340,455.460 232.346,453.369 C231.946,453.698 231.676,453.922 231.397,454.152 C231.206,453.850 231.064,453.628 230.876,453.331 C229.044,454.693 228.372,456.751 227.751,458.654 C226.624,462.109 225.857,465.683 224.986,469.218 C224.304,471.983 223.602,474.747 223.079,477.543 C222.698,479.578 222.545,481.660 222.384,483.728 C222.284,485.018 222.359,486.321 222.355,487.619 C222.540,487.667 222.725,487.715 222.910,487.763 C225.440,483.776 228.162,479.895 230.434,475.768 C232.043,472.847 233.213,469.645 232.849,466.131 ZM233.250,462.509 C233.246,463.904 233.242,465.298 233.238,466.692 C233.346,466.693 233.453,466.693 233.560,466.694 C233.564,465.315 233.568,463.937 233.573,462.559 C233.465,462.542 233.358,462.526 233.250,462.509 ZM271.992,494.420 C271.890,494.969 271.788,495.517 271.685,496.066 C272.626,495.824 272.593,495.218 271.992,494.420 ZM349.261,536.850 C349.264,535.835 349.286,534.907 349.263,533.979 C349.244,533.193 349.469,532.164 349.063,531.672 C348.182,530.605 348.547,529.518 348.536,528.420 C348.518,526.718 349.145,525.119 349.226,523.384 C349.336,521.006 349.485,518.756 348.432,516.515 C347.551,516.594 346.727,516.668 345.739,516.757 C345.840,518.452 345.861,519.874 346.028,521.278 C346.165,522.425 346.589,523.542 346.682,524.689 C346.779,525.885 346.512,527.114 346.632,528.306 C346.709,529.059 346.994,529.792 347.252,530.527 C347.154,529.988 347.334,529.451 348.175,528.854 C347.856,529.828 347.648,530.463 347.445,531.102 C347.448,531.110 347.451,531.119 347.454,531.127 L347.445,531.126 C347.272,531.361 346.930,531.611 346.950,531.828 C347.223,534.712 347.404,537.589 347.186,540.492 C347.114,541.456 347.529,542.455 347.462,543.420 C347.316,545.534 346.974,547.632 346.775,549.743 C346.688,550.665 346.755,551.602 346.753,552.532 C346.828,552.527 346.902,552.522 346.977,552.517 C347.338,550.677 347.698,548.836 348.059,546.995 C348.153,546.997 348.247,547.000 348.341,547.002 C348.595,547.849 348.849,548.695 349.187,549.823 C350.709,545.613 350.025,541.440 350.761,537.375 C350.188,537.175 349.760,537.025 349.261,536.850 ZM351.218,519.989 C350.956,520.936 350.751,521.677 350.545,522.417 C351.608,521.564 351.608,521.564 351.218,519.989 ZM351.468,531.198 C350.581,533.794 350.694,536.360 351.721,538.882 C351.779,536.321 352.075,533.755 351.468,531.198 ZM352.918,490.197 C353.034,490.931 352.703,491.761 353.551,492.599 C353.939,491.496 353.530,490.825 352.918,490.197 ZM352.860,502.286 C352.823,502.854 353.083,503.440 353.233,504.020 C353.423,501.618 353.614,499.216 353.804,496.814 C353.226,498.611 352.978,500.444 352.860,502.286 ZM353.800,507.691 C353.145,506.614 354.438,505.207 353.261,504.204 C353.256,505.987 353.251,507.772 353.245,509.696 C354.320,509.000 354.117,509.836 354.285,510.199 C354.540,508.879 354.527,508.886 353.800,507.691 ZM238.849,486.967 C238.831,486.936 238.828,486.905 238.808,486.873 C238.829,486.883 238.842,486.881 238.862,486.889 C238.868,486.905 238.877,486.922 238.882,486.937 C238.869,486.949 238.861,486.956 238.849,486.967 ZM238.641,489.671 C237.751,488.007 237.745,487.982 238.849,486.967 C239.389,487.901 239.239,488.792 238.641,489.671 ZM167.473,497.601 C167.469,497.605 167.464,497.608 167.460,497.611 C167.457,497.598 167.458,497.586 167.455,497.573 L167.473,497.601 ZM167.475,497.600 C167.474,497.600 167.473,497.601 167.473,497.601 C167.473,497.601 167.455,497.573 167.463,497.582 C167.467,497.588 167.471,497.594 167.475,497.600 ZM167.871,495.132 C168.546,495.482 168.608,494.888 169.080,494.059 C169.129,495.420 169.139,496.348 169.201,497.273 C169.266,498.244 169.381,499.213 169.212,500.267 C168.636,499.381 168.059,498.494 167.475,497.600 C167.704,497.395 168.121,497.192 168.123,496.986 C168.127,496.369 167.967,495.750 167.871,495.132 Z" class="cls-3"/>
    <path d="M428.480,469.937 C428.504,470.819 428.528,471.702 428.552,472.585 C428.433,472.583 428.313,472.582 428.193,472.581 C428.258,471.700 428.322,470.819 428.387,469.939 C428.418,469.938 428.449,469.937 428.480,469.937 ZM429.555,469.323 C429.644,469.304 429.733,469.285 429.822,469.266 C429.942,469.784 430.062,470.302 430.182,470.820 C430.022,470.843 429.863,470.866 429.703,470.889 C429.654,470.367 429.604,469.845 429.555,469.323 ZM431.170,465.341 C431.350,465.362 431.531,465.383 431.711,465.404 C431.557,466.021 431.403,466.638 431.249,467.255 C431.105,467.223 430.962,467.191 430.818,467.159 C430.936,466.553 431.053,465.947 431.170,465.341 ZM794.900,456.270 C791.380,456.691 787.734,456.635 784.285,457.926 C780.948,459.176 777.627,460.415 774.530,462.203 C771.393,464.014 768.142,465.644 765.595,467.958 C767.300,472.692 768.968,477.300 770.620,481.913 C771.513,484.409 771.533,486.384 770.759,489.812 C768.496,490.352 766.535,491.277 765.233,493.333 C764.742,494.108 764.323,495.114 763.067,495.046 C762.884,495.036 762.643,495.442 762.487,495.692 C761.847,496.717 761.263,497.694 759.780,497.714 C759.144,497.722 758.487,498.238 757.888,498.602 C756.503,499.446 755.195,500.431 753.762,501.180 C752.780,501.693 751.655,501.958 750.569,502.241 C748.937,502.666 747.275,502.980 745.640,503.396 C744.017,503.809 742.527,503.271 741.067,502.758 C739.323,502.144 738.375,500.744 737.850,499.014 C737.523,497.936 737.255,496.810 736.732,495.826 C735.241,493.026 735.480,490.272 736.988,487.662 C738.053,485.820 739.347,484.078 740.736,482.459 C743.806,478.883 747.035,475.449 750.784,472.616 C747.741,465.976 744.726,459.398 741.617,452.612 C740.985,453.681 740.271,454.628 739.825,455.687 C737.881,460.307 734.678,464.046 731.466,467.778 C729.291,470.305 726.938,472.686 724.857,475.286 C722.906,477.723 721.475,480.508 719.933,483.231 C718.384,485.967 717.690,489.227 715.190,491.451 C714.676,491.909 714.680,492.907 714.320,493.590 C713.970,494.253 713.578,495.181 712.995,495.381 C711.018,496.057 709.898,497.462 709.005,499.300 C708.258,498.875 707.648,498.420 706.664,499.182 C704.130,501.145 702.493,500.712 700.529,498.918 C698.849,497.383 697.660,495.691 697.484,493.289 C697.254,490.173 696.654,487.085 696.415,483.970 C696.265,482.015 696.511,480.031 696.525,478.060 C696.531,477.137 696.332,476.211 696.357,475.290 C696.451,471.868 696.618,468.449 696.722,465.028 C696.813,462.059 696.856,459.090 696.930,455.683 C695.885,456.630 694.906,457.242 694.305,458.113 C692.568,460.627 690.955,463.228 689.352,465.830 C688.457,467.282 687.809,468.901 686.814,470.274 C685.255,472.426 685.091,474.877 685.436,477.242 C686.051,481.457 685.835,485.611 685.359,489.791 C685.238,490.855 685.065,491.928 685.100,492.990 C685.163,494.869 684.370,496.066 682.594,496.640 C682.328,496.726 682.069,496.832 681.756,496.947 C681.579,497.699 681.405,498.433 681.215,499.236 C680.399,498.800 679.662,498.407 678.714,497.901 C678.732,498.443 678.741,498.705 678.755,499.127 C678.295,499.055 677.855,498.985 677.240,498.888 C677.087,499.318 676.885,499.884 676.674,500.474 C675.979,500.688 675.240,500.915 674.537,501.131 C674.222,500.773 673.967,500.323 673.582,500.074 C671.717,498.867 671.165,496.917 671.513,495.054 C671.837,493.313 671.257,491.906 670.945,490.362 C670.806,489.673 670.661,488.968 670.663,488.270 C670.678,483.990 670.722,479.710 670.778,475.430 C670.827,471.747 670.953,468.064 670.952,464.381 C670.952,461.991 670.786,459.600 670.679,456.810 C669.714,457.451 669.027,457.887 668.362,458.355 C667.897,458.681 667.497,459.110 667.008,459.389 C665.063,460.500 664.683,461.207 665.140,463.305 C665.381,464.414 665.777,465.490 666.022,466.599 C666.921,470.669 667.279,474.760 666.281,478.869 C665.777,480.945 665.136,482.991 664.704,485.081 C664.377,486.663 663.498,487.901 662.625,489.174 C661.581,490.698 660.549,492.231 659.490,493.745 C659.251,494.086 658.973,494.456 658.622,494.651 C656.653,495.747 654.703,496.894 652.656,497.827 C650.880,498.637 649.117,499.638 646.967,499.168 C646.456,499.057 645.800,499.612 644.974,499.959 C644.056,499.685 642.853,499.248 641.613,498.983 C640.796,498.810 639.901,498.737 639.084,498.873 C635.468,499.479 635.361,499.507 631.990,498.463 C631.857,497.519 631.723,496.489 631.566,495.463 C631.361,494.128 630.065,494.312 629.156,493.550 C629.141,494.236 629.132,494.648 629.117,495.334 C628.152,493.937 630.001,492.461 628.463,491.376 C628.257,491.843 628.059,492.293 627.860,492.744 C627.769,492.706 627.678,492.668 627.587,492.630 C627.730,492.181 627.958,491.738 627.994,491.280 C628.046,490.609 627.978,489.925 627.922,489.250 C627.906,489.052 627.680,488.863 627.681,488.671 C627.710,485.366 626.250,482.365 625.765,479.174 C625.543,477.712 625.692,476.191 625.708,474.698 C625.727,472.867 625.782,471.036 625.831,468.780 C625.437,469.275 625.304,469.441 625.153,469.630 C625.078,469.227 625.006,468.841 624.926,468.414 C624.744,468.499 624.602,468.519 624.542,468.599 C620.993,473.412 617.747,478.430 614.889,483.673 C612.610,487.852 611.002,492.333 609.768,496.937 C609.623,497.481 609.368,498.004 609.288,498.555 C608.879,501.373 606.992,502.665 604.455,503.309 C603.556,503.537 602.663,503.832 601.748,503.949 C599.717,504.207 598.604,503.519 597.690,501.626 C597.260,500.734 596.742,499.883 596.342,498.979 C594.475,494.765 594.324,490.239 594.200,485.764 C594.003,478.704 594.065,471.638 594.010,464.574 C594.009,464.395 593.934,464.217 593.830,463.763 C593.354,464.482 592.946,464.959 592.691,465.508 C591.143,468.843 589.725,472.243 588.079,475.528 C586.464,478.752 585.652,482.206 584.685,485.630 C584.321,486.917 583.854,488.233 583.143,489.351 C582.119,490.962 582.363,492.842 581.706,494.521 C580.827,496.768 580.169,499.100 579.358,501.375 C579.061,502.210 578.597,502.985 578.083,504.051 C577.689,504.117 577.076,504.825 576.235,504.255 C575.450,506.608 574.677,507.091 571.762,507.016 C566.881,500.125 566.496,492.198 566.445,483.871 C566.183,484.210 566.064,484.366 565.701,484.837 C565.914,481.176 566.222,477.811 566.273,474.443 C566.324,471.096 567.060,467.717 566.296,464.387 C566.143,464.372 565.991,464.357 565.838,464.342 C564.947,467.330 564.117,470.337 563.151,473.300 C561.672,477.835 560.036,482.320 558.591,486.865 C557.733,489.565 556.484,492.156 556.293,495.070 C556.246,495.788 555.931,496.353 556.175,497.226 C556.526,498.483 555.220,498.368 554.428,498.390 C554.099,499.326 553.952,500.295 553.453,501.025 C552.825,501.941 552.043,502.926 551.088,503.404 C549.624,504.135 547.892,504.169 546.488,505.279 C545.344,506.184 544.594,504.552 543.557,504.299 C542.827,504.121 542.256,503.259 541.640,502.674 C541.446,502.489 541.257,502.229 541.205,501.975 C540.724,499.610 540.086,497.257 539.855,494.865 C539.471,490.890 539.433,486.883 539.098,482.902 C538.813,479.520 539.126,476.061 537.780,472.399 C537.153,473.821 536.595,474.970 536.131,476.155 C534.422,480.519 532.747,484.896 531.050,489.265 C530.901,489.648 530.788,490.140 530.493,490.356 C528.130,492.084 528.162,494.401 528.771,496.889 C528.804,497.022 528.770,497.171 528.762,497.541 C527.169,497.433 526.041,499.054 524.223,498.593 C523.786,498.482 523.070,499.080 522.616,499.496 C520.993,500.981 518.896,501.305 516.908,501.788 C515.319,502.174 512.772,500.119 512.558,498.432 C512.119,494.980 511.531,491.525 511.431,488.058 C511.255,482.001 511.394,475.934 512.891,469.995 C513.011,469.522 513.076,469.036 512.816,468.337 C511.349,470.210 509.850,472.059 508.422,473.960 C504.579,479.078 502.213,484.983 499.536,490.719 C498.491,492.960 497.405,495.188 496.510,497.489 C495.849,499.185 494.450,499.975 493.032,500.707 C491.205,501.649 489.288,502.428 487.375,503.190 C483.936,504.561 481.755,503.820 479.637,500.777 C477.879,498.252 477.123,495.325 476.423,492.442 C475.485,488.577 474.901,484.610 475.179,480.603 C475.367,477.900 475.650,475.194 476.078,472.519 C476.752,468.302 476.980,463.993 478.481,459.934 C479.443,457.329 480.435,454.735 481.432,452.087 C481.362,452.075 481.118,451.950 481.005,452.024 C478.745,453.509 476.491,455.005 474.256,456.528 C473.504,457.041 473.173,457.771 473.157,458.723 C473.131,460.176 472.943,461.626 472.872,463.079 C472.820,464.142 472.971,465.227 472.131,466.110 C471.962,466.288 471.967,466.645 471.922,466.924 C471.541,469.289 471.319,471.691 470.756,474.011 C469.764,478.105 468.539,482.141 467.463,486.215 C466.627,489.377 465.853,492.555 465.106,495.739 C465.045,495.996 465.406,496.353 465.608,496.733 C465.008,497.228 464.037,497.504 464.257,498.786 C464.334,499.234 463.571,499.938 463.055,500.356 C461.318,501.763 459.633,503.230 457.924,504.661 C456.788,505.612 455.132,506.034 453.641,506.449 C451.986,506.909 450.640,506.032 449.322,505.068 C447.013,503.379 444.902,501.513 443.368,499.080 C442.917,498.364 442.475,497.574 442.307,496.761 C441.765,494.131 441.355,491.474 440.888,488.828 C440.048,484.070 440.269,479.316 440.915,474.561 C441.022,473.773 441.039,472.972 440.866,472.123 C439.144,474.198 438.030,476.549 436.936,478.889 C435.064,482.889 433.303,486.940 431.535,490.987 C430.597,493.135 429.749,495.321 428.845,497.484 C428.627,498.005 428.455,498.604 428.078,498.986 C427.485,499.588 427.294,500.242 427.155,501.051 C426.682,503.805 423.279,507.197 420.501,507.573 C419.500,507.709 418.392,507.413 417.402,507.098 C417.073,506.993 416.911,506.229 416.761,505.740 C416.582,505.157 416.691,504.378 416.340,503.974 C414.351,501.687 413.998,498.813 413.722,496.066 C413.050,489.396 412.966,482.692 413.114,475.981 C413.201,472.012 412.825,468.035 412.863,464.063 C412.889,461.213 413.252,458.367 413.470,455.520 C413.610,453.706 413.759,451.892 413.904,450.079 C413.760,450.041 413.616,450.003 413.472,449.966 C413.217,450.440 412.922,450.898 412.714,451.393 C410.760,456.052 408.810,460.712 406.885,465.383 C406.424,466.501 406.169,467.713 405.625,468.783 C404.919,470.171 404.052,471.484 403.180,472.779 C402.923,473.160 402.446,473.543 402.014,473.623 C401.362,473.744 400.430,473.850 400.044,473.497 C399.653,473.140 399.504,472.105 399.726,471.561 C400.695,469.190 401.886,466.911 402.905,464.560 C404.264,461.426 405.640,458.295 406.826,455.095 C409.007,449.207 411.145,443.300 413.132,437.346 C414.959,431.869 416.665,426.364 417.141,420.532 C417.598,414.925 418.249,409.334 419.529,403.823 C420.652,398.991 421.331,394.057 422.459,389.227 C423.265,385.772 424.490,382.415 425.568,378.887 C426.623,378.958 427.330,379.034 428.039,379.049 C430.056,379.093 430.789,379.868 430.741,381.928 C430.699,383.706 430.620,385.485 430.655,387.262 C430.675,388.324 430.787,389.403 431.021,390.438 C431.620,393.078 432.392,395.680 432.937,398.330 C433.294,400.066 433.481,401.855 433.563,403.628 C433.897,410.808 434.591,417.984 434.028,425.183 C433.875,427.141 433.460,429.100 433.315,431.017 C433.185,432.750 432.299,434.435 432.924,436.325 C433.290,437.432 433.204,438.845 432.586,440.140 C432.203,439.780 431.922,439.517 431.661,439.273 C431.520,439.351 431.424,439.371 431.411,439.416 C431.004,440.802 430.412,442.169 430.257,443.583 C430.081,445.191 430.086,446.767 428.709,447.912 C428.611,447.994 428.527,448.142 428.514,448.267 C428.145,451.675 425.513,454.499 425.969,458.117 C425.082,459.579 425.242,461.239 425.065,462.837 C424.724,465.925 425.075,469.083 424.076,472.106 C423.793,472.961 423.655,473.864 423.451,474.745 C423.602,474.854 423.754,474.963 423.905,475.072 C423.907,474.800 423.909,474.528 423.912,474.256 C424.096,474.335 424.281,474.413 424.466,474.492 C424.510,476.550 424.590,478.609 424.590,480.667 C424.589,484.774 424.527,488.881 424.540,492.989 C424.541,493.492 424.846,493.995 425.095,494.757 C425.357,494.206 425.618,493.907 425.627,493.601 C425.735,489.924 425.736,486.244 425.912,482.571 C425.948,481.809 426.035,481.049 426.111,480.289 C426.050,480.272 425.990,480.255 425.929,480.238 C426.090,479.295 426.250,478.352 426.411,477.409 C426.485,476.789 426.562,476.169 426.628,475.549 C426.773,475.552 426.918,475.555 427.063,475.557 C427.103,480.367 427.144,485.176 427.188,490.495 C427.590,489.987 427.892,489.693 428.086,489.424 C427.721,488.554 427.857,487.677 427.968,486.774 C428.324,483.871 427.953,480.954 428.063,478.042 C428.110,476.785 428.274,475.641 429.291,474.778 C429.204,473.979 429.115,473.176 429.027,472.389 C430.224,472.168 430.251,472.848 430.126,473.492 C430.024,474.015 430.590,475.041 429.289,474.854 C428.985,478.604 428.667,482.353 428.389,486.105 C428.307,487.202 428.338,488.307 428.094,489.413 C428.167,489.311 428.226,489.211 428.265,489.107 C429.059,486.978 429.688,484.782 430.590,482.702 C431.255,481.170 432.284,479.800 433.096,478.327 C436.615,471.945 440.143,465.566 443.597,459.149 C444.298,457.845 444.631,456.350 445.247,454.994 C446.720,451.752 448.240,448.531 449.789,445.324 C450.186,444.502 450.883,444.264 451.765,444.737 C452.438,445.097 453.152,445.380 453.899,445.720 C454.310,445.207 454.638,444.843 454.914,444.443 C455.563,443.501 456.398,443.347 457.522,443.468 C461.460,443.889 465.046,445.331 468.243,447.504 C469.679,448.480 470.610,450.258 471.618,451.774 C472.060,452.440 472.122,453.359 472.411,454.347 C473.174,453.932 473.846,453.581 474.505,453.207 C477.551,451.477 480.635,449.810 483.612,447.968 C484.609,447.351 485.416,446.351 486.151,445.403 C487.185,444.072 488.475,443.293 490.125,443.137 C492.307,442.930 494.507,442.515 496.649,443.381 C497.098,443.563 497.561,443.742 497.959,444.009 C498.710,444.513 499.373,445.161 500.155,445.604 C502.954,447.186 504.263,449.958 503.625,453.127 C503.583,453.337 503.487,453.542 503.479,453.752 C503.388,456.105 502.117,457.492 499.965,458.305 C498.887,458.712 497.915,459.398 496.703,460.063 C496.457,456.935 496.134,454.059 496.574,451.159 C496.649,450.666 496.719,450.167 496.723,449.670 C496.736,448.088 496.661,448.040 494.749,448.224 C493.980,452.174 493.062,456.079 493.057,460.201 C493.052,464.360 492.383,468.517 492.039,472.678 C491.613,477.844 490.937,483.005 491.582,488.201 C491.676,488.958 491.865,489.704 492.095,490.891 C493.776,488.513 495.165,486.457 496.649,484.471 C500.235,479.670 503.757,474.813 507.521,470.152 C509.714,467.437 512.339,465.071 514.732,462.513 C515.344,461.857 515.978,461.136 516.318,460.326 C518.414,455.339 521.241,450.834 524.908,446.851 C525.292,446.433 525.593,445.935 525.906,445.457 C526.562,444.453 527.501,443.863 528.619,443.490 C530.076,443.003 531.656,442.726 533.095,442.568 C535.060,442.352 537.244,442.863 538.927,444.227 C539.839,444.967 540.027,446.137 539.601,447.173 C539.266,447.992 538.698,448.873 537.981,449.351 C534.626,451.588 533.311,454.907 532.598,458.651 C532.174,460.878 531.544,463.066 531.037,465.278 C530.751,466.528 530.438,467.781 530.289,469.051 C529.777,473.429 529.330,477.816 528.867,482.200 C528.847,482.388 528.911,482.584 528.962,482.982 C529.314,482.601 529.599,482.393 529.751,482.112 C532.465,477.088 535.347,472.144 537.128,466.674 C538.125,463.613 538.934,460.542 538.887,457.265 C538.855,455.061 538.978,452.817 539.374,450.654 C539.821,448.216 541.593,445.456 545.024,445.988 C547.410,446.358 548.693,446.815 549.573,449.316 C550.999,453.367 551.966,457.458 552.553,461.682 C552.665,462.489 553.183,463.235 553.336,464.043 C553.797,466.488 554.231,468.940 554.561,471.406 C554.944,474.279 555.206,477.168 555.866,480.182 C556.197,479.407 556.618,478.657 556.845,477.852 C558.298,472.716 559.758,467.580 561.120,462.418 C563.084,454.977 565.035,447.530 566.853,440.052 C567.710,436.528 568.756,433.011 568.681,429.317 C568.668,428.687 568.705,428.056 568.720,427.350 C565.768,426.639 562.912,426.628 560.091,426.915 C555.981,427.334 551.896,427.992 547.798,428.528 C542.330,429.242 536.871,429.555 531.356,428.824 C528.467,428.441 525.513,428.545 522.588,428.431 C522.015,428.408 521.438,428.427 520.871,428.357 C520.279,428.284 519.637,428.240 519.131,427.971 C518.740,427.764 518.525,427.227 518.184,426.772 C518.432,426.275 519.659,426.179 519.016,424.804 C516.807,424.647 514.435,424.485 512.065,424.305 C511.712,424.278 511.245,424.282 511.037,424.070 C509.920,422.934 508.537,423.359 507.215,423.254 C504.737,423.057 502.276,422.527 499.799,422.465 C496.057,422.371 492.307,422.583 488.559,422.617 C486.670,422.634 484.780,422.545 482.748,422.502 C483.185,421.668 483.917,421.643 484.572,421.547 C491.286,420.561 497.981,419.399 504.722,418.660 C514.453,417.592 524.247,417.065 533.957,415.849 C538.918,415.229 543.876,414.712 548.849,414.543 C553.053,414.401 557.276,414.792 561.489,414.994 C564.036,415.117 566.579,415.330 569.370,415.519 C569.431,412.711 569.420,410.019 569.565,407.336 C569.750,403.920 570.089,400.512 570.301,397.097 C570.362,396.118 570.281,395.118 570.151,394.143 C569.898,392.237 569.712,390.345 570.168,388.336 C572.998,388.253 575.641,388.666 577.637,390.547 C578.646,391.498 579.381,393.039 579.642,394.425 C580.520,399.107 581.400,403.811 581.099,408.623 C580.953,410.968 580.820,413.313 580.692,415.660 C580.668,416.083 580.630,416.521 580.708,416.932 C581.147,419.222 581.479,421.478 581.300,423.862 C581.197,425.233 582.119,426.633 581.861,428.188 C581.424,430.827 581.061,433.484 580.837,436.148 C580.683,437.971 580.724,439.824 580.844,441.653 C581.061,444.972 581.323,448.283 580.776,451.596 C580.733,451.855 580.911,452.142 580.918,452.418 C580.992,455.462 581.393,458.551 581.000,461.534 C580.721,463.652 580.694,465.800 580.330,467.924 C579.953,470.124 580.369,472.452 580.354,474.724 C580.346,475.889 580.154,477.052 580.223,478.262 C582.353,475.775 583.813,472.968 584.979,469.993 C585.368,469.000 585.730,467.994 586.174,467.026 C587.813,463.460 589.655,459.976 591.083,456.328 C592.191,453.498 592.879,450.492 593.585,447.524 C593.879,446.290 594.276,445.387 595.665,445.069 C596.029,445.342 596.404,445.672 596.824,445.927 C597.857,446.552 598.861,447.165 600.204,446.804 C601.882,446.353 603.262,447.108 604.517,448.157 C606.381,449.714 607.754,451.439 607.705,454.111 C607.678,455.567 608.277,457.033 608.584,458.497 C609.127,461.077 609.458,463.671 609.234,466.322 C609.162,467.161 609.384,468.022 609.349,468.867 C609.176,473.143 608.959,477.417 608.765,481.691 C608.730,482.452 608.729,483.215 608.706,484.302 C609.223,483.983 609.512,483.903 609.637,483.714 C611.323,481.166 612.969,478.591 614.661,476.047 C615.806,474.327 616.958,472.606 618.198,470.955 C620.636,467.709 623.127,464.503 625.619,461.298 C626.583,460.057 627.652,458.897 628.589,457.638 C629.733,456.099 630.797,454.500 631.876,452.915 C633.036,451.214 633.961,449.293 635.372,447.839 C637.250,445.905 639.710,444.825 642.512,444.891 C644.296,444.933 646.092,444.956 647.855,445.187 C649.177,445.361 650.464,445.825 651.751,446.212 C653.121,446.624 654.455,447.159 655.834,447.529 C658.631,448.279 660.989,449.644 662.480,452.187 C663.008,453.088 663.292,454.131 663.752,455.271 C666.317,454.256 668.623,452.783 670.596,450.823 C670.925,450.497 670.941,449.799 670.984,449.264 C671.016,448.862 670.750,448.428 670.806,448.036 C671.177,445.476 672.555,444.892 674.795,446.174 C676.462,447.128 678.218,447.926 679.944,448.774 C681.418,449.498 682.542,450.557 683.050,452.134 C683.827,454.542 684.534,456.972 685.331,459.588 C685.708,459.113 686.141,458.681 686.443,458.171 C688.436,454.813 691.250,452.165 694.007,449.477 C695.229,448.286 696.646,447.295 697.882,446.117 C698.534,445.496 698.989,444.668 699.603,443.839 C699.951,443.885 700.469,443.801 700.761,444.020 C701.675,444.705 702.691,444.853 703.778,444.916 C705.201,444.999 706.011,445.769 706.631,447.107 C708.238,450.578 709.356,454.114 709.188,457.989 C709.167,458.459 709.407,458.955 709.579,459.419 C711.484,464.533 712.072,469.895 712.596,475.270 C712.614,475.457 712.702,475.637 712.825,476.044 C713.250,475.568 713.568,475.233 713.860,474.877 C714.175,474.491 714.403,474.009 714.777,473.699 C719.473,469.791 723.020,464.807 727.192,460.410 C731.170,456.217 734.641,451.546 738.332,447.083 C738.559,446.809 738.721,446.465 738.987,446.240 C741.076,444.470 741.628,442.039 741.569,439.526 C741.541,438.305 741.847,437.378 742.403,436.491 C744.526,437.151 746.599,437.967 748.748,438.411 C750.484,438.770 751.285,439.784 751.828,441.275 C752.535,443.215 753.415,445.102 753.992,447.079 C754.729,449.598 756.423,451.558 757.612,453.808 C759.173,456.761 760.832,459.662 762.464,462.578 C762.669,462.943 762.962,463.259 763.281,463.688 C765.073,462.681 766.804,461.717 768.526,460.738 C774.468,457.362 780.707,454.783 787.469,453.539 C788.308,453.385 789.072,452.816 790.313,452.231 C791.221,452.596 792.604,453.125 793.963,453.709 C794.994,454.152 795.165,455.003 794.900,456.270 ZM422.125,479.054 C421.160,480.636 421.306,484.890 422.080,487.083 C422.184,485.749 422.374,484.084 422.419,482.415 C422.447,481.397 422.249,480.374 422.125,479.054 ZM424.586,459.470 C423.178,463.489 422.558,467.668 422.464,471.844 C424.448,468.015 424.156,463.692 424.586,459.470 ZM459.521,447.691 C459.754,453.228 463.493,456.827 468.371,456.208 C466.125,452.594 463.834,449.281 459.521,447.691 ZM468.994,459.324 C465.211,459.792 461.837,458.608 458.624,456.482 C458.443,457.193 458.259,457.599 458.249,458.009 C458.170,461.113 458.107,464.218 458.077,467.324 C458.060,469.080 458.131,470.838 458.134,472.595 C458.143,477.133 458.076,481.674 458.165,486.211 C458.200,488.032 458.565,489.847 458.780,491.665 C458.943,491.654 459.106,491.643 459.269,491.632 C459.600,491.178 459.987,490.754 460.251,490.264 C460.956,488.951 461.643,487.626 462.275,486.277 C463.086,484.546 464.061,482.848 464.571,481.026 C466.105,475.547 467.483,470.024 468.843,464.498 C469.242,462.877 469.533,461.195 468.994,459.324 ZM542.712,499.736 C542.501,499.953 542.289,500.170 542.078,500.387 C542.388,500.649 542.698,500.911 543.008,501.174 C543.139,501.032 543.271,500.891 543.402,500.750 C543.172,500.412 542.942,500.074 542.712,499.736 ZM545.346,485.135 C544.802,486.817 545.269,488.281 545.476,489.844 C545.805,489.291 546.081,488.828 546.357,488.364 C546.517,488.437 546.676,488.510 546.836,488.583 C546.555,489.405 546.500,490.460 545.942,490.994 C545.093,491.808 545.698,492.266 545.894,493.060 C546.256,492.362 546.525,491.842 546.853,491.207 C547.059,491.646 547.180,491.901 547.463,492.503 C547.245,489.706 547.425,487.204 545.346,485.135 ZM553.927,483.863 C553.712,484.040 553.533,484.112 553.512,484.215 C553.267,485.417 553.046,486.623 552.819,487.828 C553.534,486.620 554.436,485.464 553.927,483.863 ZM554.644,481.805 C554.516,481.844 554.389,481.883 554.262,481.922 C554.394,482.333 554.526,482.744 554.658,483.155 C554.753,483.115 554.848,483.076 554.943,483.036 C554.843,482.625 554.743,482.215 554.644,481.805 ZM570.588,503.379 C571.205,503.924 571.580,504.255 571.955,504.586 C572.104,504.406 572.395,504.211 572.378,504.048 C572.288,503.184 571.697,503.197 570.588,503.379 ZM634.739,496.763 C634.840,496.614 634.942,496.465 635.044,496.317 C634.752,495.689 634.376,495.231 633.166,495.666 C633.866,496.154 634.302,496.459 634.739,496.763 ZM632.579,491.410 C632.768,492.172 632.737,492.982 633.127,493.373 C633.573,493.820 634.393,493.894 635.057,494.132 C635.336,492.338 635.168,492.142 632.579,491.410 ZM637.528,497.954 C636.732,497.971 635.883,497.117 634.968,498.287 C635.953,498.358 636.762,498.416 637.571,498.474 C637.557,498.301 637.543,498.127 637.528,497.954 ZM650.062,451.872 C649.931,451.423 649.330,450.864 648.881,450.799 C647.135,450.549 645.356,450.439 643.831,451.545 C643.688,455.806 645.839,458.002 650.831,458.458 C650.938,456.115 650.672,453.964 650.062,451.872 ZM652.060,465.253 C651.837,463.454 651.617,463.301 649.771,463.098 C648.921,463.004 648.066,462.903 647.235,462.712 C643.888,461.940 641.274,460.084 639.144,456.763 C638.947,457.574 638.815,457.899 638.795,458.231 C638.652,460.628 638.448,463.026 638.429,465.425 C638.410,467.758 638.515,470.098 638.698,472.425 C638.887,474.829 637.423,477.116 638.261,479.549 C638.303,479.672 638.300,479.857 638.235,479.962 C636.821,482.264 638.208,484.349 638.733,486.499 C639.021,487.678 639.989,488.235 640.977,488.092 C643.132,487.781 645.272,488.738 647.460,487.909 C648.314,487.585 648.941,487.339 649.406,486.545 C650.655,484.414 651.143,482.067 651.652,479.688 C652.679,474.889 652.659,470.083 652.060,465.253 ZM754.990,488.167 C754.371,485.689 753.913,483.171 753.299,480.692 C752.945,479.264 752.415,477.880 751.846,476.108 C748.742,478.748 745.723,481.129 742.937,483.757 C741.348,485.256 740.119,487.142 738.764,488.882 C737.510,490.492 737.537,492.459 737.639,494.307 C737.797,497.177 739.111,498.022 741.962,497.280 C743.942,496.765 745.863,496.029 747.835,495.476 C750.549,494.716 752.776,493.329 754.370,490.950 C754.962,490.067 755.262,489.255 754.990,488.167 ZM615.551,423.682 C614.493,424.715 613.382,425.698 612.384,426.786 C610.889,428.413 608.861,428.041 607.263,428.438 C606.581,428.330 606.161,428.225 605.737,428.204 C604.048,428.121 602.375,427.650 600.673,428.403 C599.725,428.823 599.212,428.342 599.156,427.276 C599.131,426.781 599.117,426.249 599.263,425.786 C600.556,421.680 602.158,417.707 604.999,414.392 C607.218,411.804 609.518,409.283 611.858,406.803 C613.301,405.273 613.314,405.445 615.258,406.303 C618.265,407.630 620.208,409.751 621.176,412.908 C622.000,415.594 621.267,417.819 619.508,419.781 C618.273,421.157 616.877,422.388 615.551,423.682 Z" class="cls-3"/>
  </g>
</svg>
